<?xml version="1.0" standalone="no"?>
<!DOCTYPE svg PUBLIC "-//W3C//DTD SVG 20010904//EN"
 "http://www.w3.org/TR/2001/REC-SVG-20010904/DTD/svg10.dtd">
<svg version="1.0" xmlns="http://www.w3.org/2000/svg"
 width="450.000000pt" height="300.000000pt" viewBox="0 0 450.000000 300.000000"
 preserveAspectRatio="xMidYMid meet">
<metadata>
Created by potrace 1.10, written by Peter Selinger 2001-2011
</metadata>
<g transform="translate(0.000000,300.000000) scale(0.100000,-0.100000)"
fill="#000000" stroke="none">
<path d="M4 2991 c5 -8 56 -3 56 5 0 2 -14 4 -31 4 -16 0 -28 -4 -25 -9z"/>
<path d="M130 2991 c0 -11 42 -43 48 -37 4 5 -35 46 -43 46 -3 0 -5 -4 -5 -9z"/>
<path d="M256 2983 c-6 -14 -5 -15 5 -6 7 7 10 15 7 18 -3 3 -9 -2 -12 -12z"/>
<path d="M296 2992 c-2 -4 5 -14 17 -22 20 -12 21 -12 9 3 -11 13 -10 16 5 20
15 4 14 5 -4 6 -12 0 -24 -3 -27 -7z"/>
<path d="M394 2985 c-4 -8 -15 -15 -25 -15 -11 0 -23 -10 -29 -24 -5 -13 -15
-26 -22 -29 -8 -3 -6 -6 5 -6 11 -1 21 8 24 18 4 16 34 34 54 33 3 0 10 8 17
19 10 16 9 19 -3 19 -9 0 -18 -7 -21 -15z"/>
<path d="M440 2982 c0 -9 6 -12 16 -8 12 4 15 2 10 -9 -3 -8 -1 -15 5 -15 6 0
8 -3 6 -8 -3 -4 3 -23 14 -42 24 -46 24 -24 -1 43 -12 32 -26 54 -35 54 -8 0
-15 -7 -15 -15z"/>
<path d="M496 2978 c10 -15 24 -26 31 -23 7 2 15 0 18 -5 4 -6 10 -10 16 -10
5 0 4 9 -3 20 -7 11 -22 20 -33 20 -12 0 -27 6 -35 13 -7 6 -5 0 6 -15z"/>
<path d="M598 2993 c6 -2 18 -2 25 0 6 3 1 5 -13 5 -14 0 -19 -2 -12 -5z"/>
<path d="M665 2979 c-5 -15 -2 -25 8 -31 9 -5 14 -14 11 -21 -2 -8 -1 -24 5
-38 l9 -24 10 25 c14 37 38 53 67 46 34 -9 31 -21 -7 -34 -26 -8 -28 -10 -10
-11 27 -1 28 -9 5 -27 -10 -7 -13 -13 -8 -14 15 0 28 11 53 47 21 31 21 33 5
53 -10 11 -22 20 -27 20 -5 0 -18 7 -28 17 -10 9 -21 13 -25 9 -4 -4 -1 -11 7
-16 24 -15 -3 -34 -35 -26 -21 5 -26 12 -22 26 7 27 -10 25 -18 -1z"/>
<path d="M700 2983 c0 -11 7 -20 15 -20 12 0 12 3 3 16 -7 9 -14 18 -15 20 -2
2 -3 -5 -3 -16z"/>
<path d="M792 2995 c10 -11 48 -14 48 -4 0 5 -12 9 -27 9 -14 0 -24 -2 -21 -5z"/>
<path d="M863 2986 c3 -7 0 -20 -6 -27 -7 -7 -2 -5 11 5 26 22 28 36 6 36 -10
0 -14 -6 -11 -14z"/>
<path d="M920 2990 c0 -5 7 -7 15 -4 11 5 15 -1 15 -24 0 -17 6 -32 15 -36 17
-6 16 17 -3 52 -13 22 -42 31 -42 12z"/>
<path d="M976 2985 c4 -8 11 -15 16 -15 6 0 5 6 -2 15 -7 8 -14 15 -16 15 -2
0 -1 -7 2 -15z"/>
<path d="M1030 2990 c8 -5 22 -10 30 -10 13 0 13 1 0 10 -8 5 -22 10 -30 10
-13 0 -13 -1 0 -10z"/>
<path d="M2968 2993 c12 -2 32 -2 45 0 12 2 2 4 -23 4 -25 0 -35 -2 -22 -4z"/>
<path d="M3093 2993 c9 -2 23 -2 30 0 6 3 -1 5 -18 5 -16 0 -22 -2 -12 -5z"/>
<path d="M3698 2993 c7 -3 16 -2 19 1 4 3 -2 6 -13 5 -11 0 -14 -3 -6 -6z"/>
<path d="M3762 2969 c-29 -36 -14 -38 27 -3 24 20 37 24 60 19 17 -3 32 -2 36
4 4 7 -12 11 -47 10 -46 0 -56 -4 -76 -30z"/>
<path d="M3923 2993 c9 -2 25 -2 35 0 9 3 1 5 -18 5 -19 0 -27 -2 -17 -5z"/>
<path d="M4028 2982 c-9 -9 -21 -27 -27 -40 -12 -23 -12 -23 30 4 23 14 56 32
73 40 l31 13 -27 1 c-15 0 -30 -5 -33 -10 -5 -8 -11 -8 -19 -1 -9 8 -17 6 -28
-7z"/>
<path d="M4170 2993 c8 -3 23 -10 32 -15 14 -6 16 -5 12 7 -4 8 -18 15 -33 14
-15 0 -20 -3 -11 -6z"/>
<path d="M4243 2969 c7 -37 2 -50 -28 -67 -15 -9 -16 -11 -4 -12 9 0 29 12 45
26 16 14 38 29 49 34 20 9 20 9 -1 9 -11 1 -31 11 -44 23 l-23 21 6 -34z"/>
<path d="M1133 2972 c21 -10 37 -24 37 -33 0 -9 7 -19 15 -23 9 -3 15 0 15 8
0 21 -58 66 -83 65 -17 0 -13 -4 16 -17z"/>
<path d="M3495 2980 c3 -5 8 -10 11 -10 2 0 4 5 4 10 0 6 -5 10 -11 10 -5 0
-7 -4 -4 -10z"/>
<path d="M893 2963 c-3 -10 -12 -25 -19 -33 -14 -18 -36 -92 -25 -85 5 2 11
19 15 37 4 22 9 29 15 20 5 -8 11 4 18 33 10 45 8 61 -4 28z"/>
<path d="M46 2961 c-3 -5 -14 -8 -24 -6 -9 1 -11 0 -5 -2 7 -3 13 -9 13 -14 0
-5 5 -9 11 -9 5 0 7 5 4 10 -4 6 5 10 19 10 14 0 26 5 26 10 0 12 -37 13 -44
1z"/>
<path d="M921 2947 c-16 -41 -13 -57 5 -24 8 16 13 34 11 40 -3 7 -10 -1 -16
-16z"/>
<path d="M4420 2953 c0 -13 5 -23 10 -23 13 0 13 11 0 30 -8 12 -10 11 -10 -7z"/>
<path d="M3826 2942 c-6 -17 -3 -27 11 -38 10 -8 14 -14 8 -13 -26 3 -35 -3
-35 -23 1 -22 1 -23 15 -4 8 11 15 14 15 7 0 -7 4 -10 8 -7 11 7 46 -35 47
-54 0 -21 68 -100 86 -100 8 0 23 -14 34 -31 11 -17 27 -34 36 -39 18 -10 47
4 30 14 -6 4 -11 2 -11 -5 0 -6 -9 -1 -19 12 -27 34 -7 41 60 24 30 -8 74 -15
99 -15 73 0 150 -12 144 -22 -3 -5 -12 -7 -20 -4 -8 3 -23 0 -34 -6 -19 -12
-22 -12 -110 20 -13 5 -13 4 0 -13 14 -17 14 -18 -8 -6 -13 7 -28 11 -34 9
-17 -6 56 -38 86 -38 26 0 26 -1 10 -25 -11 -17 -12 -25 -5 -25 7 0 9 -5 5
-12 -4 -6 -3 -8 4 -4 6 3 13 2 17 -4 8 -13 25 -13 25 1 0 6 -9 13 -20 16 -27
7 -25 18 8 41 31 23 44 17 75 -30 10 -16 25 -28 35 -28 15 1 15 2 2 13 -8 7
-23 24 -33 39 l-17 27 36 7 c19 3 49 4 67 2 36 -6 57 -1 57 14 0 5 -19 9 -42
7 -24 -1 -50 1 -58 4 -30 13 -117 29 -170 33 -96 6 -137 14 -137 27 0 7 -2 18
-4 25 -3 9 16 20 53 32 31 9 59 16 61 13 3 -2 38 12 78 32 42 21 84 34 97 32
12 -2 22 0 22 4 0 19 -56 7 -183 -37 -83 -29 -133 -42 -135 -35 -5 16 -22 13
-22 -4 0 -7 -8 -19 -17 -24 -15 -9 -15 -10 -2 -11 8 0 24 -7 35 -15 18 -13 16
-14 -21 -11 -22 2 -50 7 -61 11 -21 7 -44 43 -44 69 0 8 -7 16 -15 20 -8 3
-15 12 -15 20 0 8 -14 19 -31 25 -16 6 -29 16 -28 23 2 7 -4 29 -13 48 -14 34
-15 34 -22 12z m504 -312 c0 -5 -5 -10 -11 -10 -5 0 -7 5 -4 10 3 6 8 10 11
10 2 0 4 -4 4 -10z"/>
<path d="M275 2940 c-3 -5 1 -10 9 -10 9 0 16 5 16 10 0 6 -4 10 -9 10 -6 0
-13 -4 -16 -10z"/>
<path d="M4491 2938 c-1 -11 -17 -24 -38 -34 -38 -16 -38 -16 -13 -25 13 -6
33 -17 42 -26 17 -15 18 -15 18 0 0 10 -4 17 -10 17 -14 0 -13 33 1 47 6 6 9
17 6 25 -4 9 -6 7 -6 -4z"/>
<path d="M70 2919 c0 -12 5 -16 15 -13 8 4 15 12 15 18 0 7 -7 13 -15 13 -8 0
-15 -8 -15 -18z"/>
<path d="M214 2909 c6 -31 6 -32 -30 -26 -30 5 -35 3 -32 -11 4 -17 10 -18 41
-7 24 10 23 -25 -3 -58 -25 -32 -25 -36 0 -30 11 3 17 9 14 14 -3 5 2 12 11
15 10 4 13 13 10 26 -6 16 -3 18 20 14 26 -5 26 -4 11 13 -9 9 -19 32 -22 49
-4 18 -11 32 -16 32 -6 0 -8 -13 -4 -31z"/>
<path d="M396 2923 c-6 -14 -5 -15 5 -6 7 7 10 15 7 18 -3 3 -9 -2 -12 -12z"/>
<path d="M644 2929 c-3 -6 -19 -9 -35 -5 -27 5 -29 3 -29 -24 0 -20 5 -30 15
-30 7 0 18 -7 22 -15 11 -19 54 -9 46 11 -4 12 -7 12 -18 -2 -9 -13 -14 -14
-19 -5 -5 7 -1 18 7 24 8 7 17 22 20 35 6 24 2 28 -9 11z"/>
<path d="M1048 2896 c3 -22 0 -36 -7 -36 -6 0 -11 -4 -11 -10 0 -5 6 -7 14 -4
19 7 26 50 12 70 -10 13 -11 9 -8 -20z"/>
<path d="M1123 2914 c16 -8 31 -13 35 -10 8 8 1 12 -33 20 l-30 6 28 -16z"/>
<path d="M4062 2914 c-7 -8 -18 -28 -24 -44 -6 -19 -17 -30 -28 -30 -21 0 -35
-16 -22 -24 5 -3 18 1 28 9 10 8 38 15 62 15 23 0 58 6 77 14 18 8 37 11 42 8
4 -4 3 -1 -3 7 -9 10 -17 10 -34 1 -12 -6 -24 -9 -27 -6 -4 3 -12 1 -20 -5
-18 -16 -45 7 -41 35 3 18 9 21 43 19 33 -1 36 0 15 7 -37 12 -54 11 -68 -6z"/>
<path d="M127 2909 c7 -7 15 -10 18 -7 3 3 -2 9 -12 12 -14 6 -15 5 -6 -5z"/>
<path d="M3743 2902 c-24 -18 -43 -68 -43 -111 0 -25 25 -50 51 -51 13 0 39
-37 39 -57 0 -3 -13 -3 -30 1 -27 5 -30 3 -30 -18 0 -24 0 -24 33 -8 19 10 59
17 102 18 39 1 73 2 78 3 10 2 9 29 -3 36 -6 4 -7 -1 -3 -12 6 -17 5 -17 -14
0 -24 21 -43 22 -43 2 0 -10 -10 -15 -29 -15 -24 0 -28 3 -24 20 5 18 2 20
-21 16 -31 -6 -37 19 -6 29 22 7 48 45 30 45 -5 0 -15 -9 -22 -20 -21 -33 -36
-24 -31 18 2 20 5 42 7 48 2 6 -2 11 -9 11 -10 0 -13 -10 -10 -31 l5 -31 -12
28 c-7 15 -15 27 -20 27 -12 0 -10 -14 7 -36 8 -10 14 -26 14 -34 0 -11 -4
-10 -15 5 -8 11 -20 19 -25 18 -18 -5 -9 26 15 52 14 15 27 32 29 38 3 9 8 8
20 -2 21 -16 23 -5 3 15 -18 17 -16 17 -43 -4z"/>
<path d="M90 2890 c0 -5 5 -10 11 -10 5 0 7 5 4 10 -3 6 -8 10 -11 10 -2 0 -4
-4 -4 -10z"/>
<path d="M3947 2881 c-6 -26 16 -34 31 -11 9 14 8 19 -4 24 -21 8 -21 8 -27
-13z"/>
<path d="M120 2881 c0 -6 5 -13 10 -16 6 -3 10 1 10 9 0 9 -4 16 -10 16 -5 0
-10 -4 -10 -9z"/>
<path d="M811 2873 c-9 -19 -11 -25 -11 -44 0 -7 -10 -9 -25 -7 -14 3 -30 -1
-35 -8 -12 -13 -8 -15 53 -28 15 -4 27 -13 27 -22 0 -8 5 -12 10 -9 19 12 10
35 -15 41 -23 6 -24 8 -11 23 15 17 32 71 22 71 -3 0 -10 -8 -15 -17z"/>
<path d="M921 2874 c0 -11 3 -14 6 -6 3 7 2 16 -1 19 -3 4 -6 -2 -5 -13z"/>
<path d="M293 2860 c-8 -12 -9 -21 -3 -25 6 -3 10 0 10 7 0 9 3 9 10 -2 13
-20 12 -33 -2 -24 -7 5 -8 3 -3 -5 5 -9 10 -10 18 -2 9 9 8 17 -1 32 -7 11
-10 24 -7 29 4 6 2 10 -2 10 -5 0 -14 -9 -20 -20z"/>
<path d="M378 2873 c7 -3 16 -2 19 1 4 3 -2 6 -13 5 -11 0 -14 -3 -6 -6z"/>
<path d="M3491 2866 c-16 -19 -11 -29 8 -17 7 5 12 14 9 21 -3 9 -8 7 -17 -4z"/>
<path d="M345 2850 c10 -11 20 -20 22 -20 2 0 -2 9 -9 20 -7 11 -17 20 -22 20
-5 0 -1 -9 9 -20z"/>
<path d="M450 2858 c0 -19 26 -42 34 -30 3 5 -3 17 -14 27 -17 15 -20 16 -20
3z"/>
<path d="M90 2847 c0 -23 11 -47 21 -47 6 0 5 10 -2 22 -10 18 -9 20 6 15 11
-5 15 -3 13 5 -7 19 -38 22 -38 5z"/>
<path d="M690 2845 c-10 -12 -10 -21 -1 -42 11 -24 10 -29 -10 -43 l-22 -17
23 -6 c17 -4 24 -1 27 14 3 12 11 18 19 15 25 -10 24 11 -1 22 -22 10 -24 14
-13 32 17 26 -2 49 -22 25z"/>
<path d="M3635 2850 c3 -5 13 -10 21 -10 8 0 14 5 14 10 0 6 -9 10 -21 10 -11
0 -17 -4 -14 -10z"/>
<path d="M8 2843 c7 -3 16 -2 19 1 4 3 -2 6 -13 5 -11 0 -14 -3 -6 -6z"/>
<path d="M406 2835 c-3 -8 -1 -15 4 -15 6 0 10 -3 10 -8 0 -4 -17 -6 -39 -4
l-39 4 12 -36 c6 -20 17 -36 25 -36 11 0 11 -3 1 -15 -6 -8 -9 -19 -5 -25 11
-18 23 -1 21 30 -2 22 2 30 15 30 9 0 20 7 23 16 6 15 8 15 26 -1 15 -13 24
-15 31 -8 8 8 3 15 -18 25 -15 7 -32 23 -38 36 -11 26 -21 28 -29 7z m-4 -57
c-9 -9 -15 -9 -24 0 -9 9 -7 12 12 12 19 0 21 -3 12 -12z"/>
<path d="M630 2829 c-24 -10 -44 -34 -45 -53 0 -19 -21 -15 -22 4 -1 11 2 20
7 20 4 0 11 7 14 16 4 10 -7 5 -28 -12 -19 -16 -35 -34 -35 -41 -1 -6 -6 -13
-12 -15 -6 -2 2 -9 17 -16 25 -11 27 -11 11 2 -15 12 -16 14 -2 20 18 6 45 -2
45 -15 0 -5 7 -9 16 -9 13 0 14 3 4 14 -9 12 -5 19 24 38 20 13 36 31 36 41 0
9 -1 17 -2 16 -2 0 -14 -5 -28 -10z"/>
<path d="M958 2828 c5 -5 16 -8 23 -6 8 3 3 7 -10 11 -17 4 -21 3 -13 -5z"/>
<path d="M495 2820 c-3 -5 1 -10 9 -10 9 0 16 5 16 10 0 6 -4 10 -9 10 -6 0
-13 -4 -16 -10z"/>
<path d="M863 2810 c-1 -11 4 -20 12 -20 20 0 30 21 14 31 -21 13 -25 11 -26
-11z"/>
<path d="M1011 2814 c0 -11 3 -14 6 -6 3 7 2 16 -1 19 -3 4 -6 -2 -5 -13z"/>
<path d="M30 2814 c0 -1 6 -7 14 -13 10 -9 15 -8 19 3 4 10 0 14 -14 13 -10
-1 -19 -2 -19 -3z"/>
<path d="M276 2802 c-2 -4 4 -19 15 -32 10 -14 19 -20 19 -13 0 6 -7 18 -15
26 -8 8 -11 17 -8 21 4 3 4 6 0 6 -3 0 -8 -4 -11 -8z"/>
<path d="M3596 2802 c-9 -14 12 -35 28 -29 23 9 20 37 -3 37 -11 0 -22 -4 -25
-8z"/>
<path d="M3857 2793 c-10 -9 -9 -63 1 -63 4 0 8 16 8 35 0 38 0 38 -9 28z"/>
<path d="M4395 2790 c26 -11 35 -12 35 -2 0 4 -12 8 -27 9 -24 1 -25 1 -8 -7z"/>
<path d="M3980 2781 c0 -5 7 -15 17 -22 15 -13 15 -12 4 9 -12 23 -21 28 -21
13z"/>
<path d="M321 2764 c0 -11 3 -14 6 -6 3 7 2 16 -1 19 -3 4 -6 -2 -5 -13z"/>
<path d="M960 2770 c-22 -5 -23 -7 -7 -13 10 -4 26 -3 34 2 21 11 4 19 -27 11z"/>
<path d="M4370 2777 c0 -5 7 -16 16 -24 8 -9 13 -24 11 -34 -3 -11 -1 -22 4
-25 5 -3 9 3 9 13 1 16 2 16 13 2 7 -9 23 -19 37 -23 23 -7 23 -6 -5 13 -16
11 -42 35 -57 53 -15 18 -28 29 -28 25z"/>
<path d="M133 2728 c2 -27 9 -42 19 -44 12 -1 13 5 5 42 -13 56 -28 57 -24 2z"/>
<path d="M864 2760 c-14 -14 -57 -18 -76 -7 -11 8 -23 7 -40 -1 -20 -10 -21
-12 -3 -10 11 1 30 -2 42 -6 22 -7 22 -8 -15 -45 -37 -38 -91 -76 -97 -69 -2
2 -6 15 -9 30 -2 14 -9 35 -14 45 -5 10 -7 24 -5 31 7 18 -17 15 -24 -4 -3 -9
0 -19 6 -24 7 -4 12 -11 12 -16 -2 -20 12 -75 20 -80 13 -7 11 -38 -3 -52 -7
-7 -17 -8 -30 -1 -15 8 -18 6 -18 -10 0 -11 -9 -25 -20 -31 -15 -8 -21 -6 -29
9 -9 17 -8 18 12 14 18 -4 19 -3 7 6 -10 7 -12 13 -4 19 6 4 14 14 18 22 4 8
13 26 21 39 11 19 11 29 2 45 -6 12 -11 24 -12 29 0 4 -4 6 -10 5 -5 -2 -8
-10 -7 -20 2 -9 -2 -19 -8 -23 -5 -3 -10 -15 -10 -26 0 -18 -1 -19 -24 -3 -14
9 -22 22 -19 30 3 8 9 12 13 9 4 -3 10 4 13 15 4 17 1 19 -26 16 -28 -3 -32
-7 -30 -32 3 -44 10 -52 48 -68 l36 -16 -27 -34 c-21 -26 -31 -32 -41 -24 -7
6 -13 17 -13 25 0 12 3 13 14 4 9 -8 16 -8 20 -2 4 5 -2 16 -12 23 -10 7 -21
20 -25 28 -4 12 -6 11 -6 -2 -1 -20 -1 -20 -51 -23 -51 -4 -50 -4 -50 -14 0
-5 9 -11 19 -13 16 -2 18 -6 8 -19 -11 -15 -19 -13 -81 17 -37 19 -73 34 -80
34 -15 0 42 -34 79 -47 17 -6 29 -15 28 -21 -2 -7 4 -9 15 -5 15 6 15 4 -2
-16 -16 -18 -43 -26 -35 -11 4 9 -22 50 -32 50 -6 0 -6 -6 -1 -17 5 -10 12
-35 16 -55 5 -30 3 -40 -14 -56 -22 -21 -93 -35 -98 -20 -7 16 -21 8 -19 -13
1 -14 7 -19 19 -16 22 6 23 -6 3 -23 -13 -11 -20 -3 -46 55 -16 37 -32 65 -35
63 -6 -7 37 -110 53 -126 16 -17 17 -34 1 -50 -9 -9 -7 -16 6 -31 20 -22 16
-36 -14 -44 -12 -3 -24 1 -30 11 -8 14 -9 13 -10 -6 0 -15 -7 -26 -20 -29 -11
-3 -18 -9 -15 -13 9 -14 -68 -70 -87 -64 -30 9 -20 -5 14 -20 18 -8 47 -26 63
-41 28 -24 28 -26 7 -22 -15 4 -22 1 -19 -6 2 -7 14 -12 26 -11 27 1 26 -3 -1
-27 l-23 -18 28 -1 c17 0 27 5 27 15 0 8 5 15 10 15 6 0 10 -6 10 -14 0 -8 7
-16 15 -20 8 -3 15 -1 15 5 0 6 6 7 13 4 6 -4 1 2 -13 14 -22 18 -23 20 -7 26
23 9 22 24 -2 18 -38 -10 -119 52 -108 82 10 25 28 17 21 -9 -5 -21 0 -27 35
-44 23 -11 41 -18 41 -15 0 8 -24 29 -48 42 -24 13 -20 36 5 27 8 -3 12 -2 8
3 -3 5 1 12 7 15 7 3 1 4 -15 1 -29 -6 -35 6 -12 25 8 6 23 9 35 5 18 -6 21
-12 16 -40 -5 -24 -2 -34 8 -38 9 -4 18 -2 21 4 7 11 25 3 25 -12 0 -5 -10
-14 -22 -19 -21 -8 -21 -9 -3 -9 11 -1 33 8 49 18 l28 19 -36 12 c-20 6 -36
18 -36 25 0 7 -3 20 -6 29 -5 13 2 16 35 16 38 0 42 -2 47 -30 4 -16 10 -28
14 -25 7 4 18 -17 34 -67 4 -13 0 -18 -13 -18 -14 0 -17 6 -14 28 4 21 2 24
-6 12 -14 -20 -14 -40 2 -73 14 -31 27 -36 20 -7 -5 20 10 26 60 20 9 -1 16 4
15 11 -5 19 58 32 85 17 20 -12 19 -13 -25 -16 -63 -4 -61 -19 2 -24 36 -2 50
1 50 10 0 15 47 38 57 28 4 -4 2 -16 -5 -26 -16 -26 -15 -30 4 -30 9 0 18 9
21 20 3 11 9 20 14 20 5 0 4 9 -3 20 -7 11 -19 20 -26 20 -7 0 -26 7 -41 15
-25 12 -31 12 -41 0 -7 -9 -23 -12 -44 -8 -22 3 -38 0 -49 -11 -18 -18 -43
-21 -52 -6 -4 6 1 7 12 3 14 -5 13 -1 -6 20 -27 30 -30 22 31 91 16 18 16 20
1 31 -12 9 -14 21 -9 48 7 39 -5 55 -24 32 -9 -10 -9 -15 -1 -15 6 0 11 -4 11
-10 0 -5 -6 -10 -13 -10 -18 0 -38 -91 -23 -110 9 -13 9 -13 -6 -1 -10 7 -25
39 -35 70 -9 31 -26 69 -37 85 -17 26 -18 29 -3 38 10 5 17 16 17 23 0 8 6 14
12 13 7 -2 12 3 10 10 -1 8 1 11 6 8 5 -3 18 4 30 14 12 11 29 20 38 20 12 0
15 6 11 27 -4 21 2 33 25 55 29 27 31 27 58 11 l28 -16 -62 -53 c-33 -30 -68
-54 -77 -54 -9 0 -22 -6 -28 -14 -19 -23 9 -26 32 -3 10 10 22 16 25 12 4 -4
-9 -21 -28 -38 -20 -18 -44 -42 -54 -54 -17 -21 -17 -22 3 -33 27 -14 46 -4
30 17 -10 12 -8 19 14 39 15 14 27 29 27 34 0 16 22 11 37 -7 12 -16 13 -15 8
15 -5 24 -3 32 8 32 9 0 21 2 29 5 15 6 42 -31 29 -40 -5 -3 -17 2 -25 11 -9
8 -16 11 -16 6 0 -15 38 -44 49 -38 6 4 16 -2 23 -14 15 -23 28 -26 28 -6 0 8
-7 16 -15 20 -8 3 -15 10 -15 16 0 16 29 44 37 36 4 -3 17 1 30 9 16 11 23 12
23 3 0 -13 49 -68 62 -68 14 0 8 15 -17 43 -25 26 -16 37 15 17 9 -6 19 -5 28
2 18 16 -4 28 -38 22 -18 -4 -31 1 -44 15 -11 12 -24 21 -30 21 -6 0 -31 16
-55 35 -24 19 -40 35 -34 35 5 0 14 -5 21 -12 9 -9 17 -7 34 12 l22 24 7 -25
c4 -13 7 -18 8 -11 1 18 14 15 28 -6 10 -17 8 -18 -14 -14 -16 3 -24 1 -20 -5
8 -12 48 -9 74 6 17 10 17 10 1 11 -11 0 -18 8 -18 21 0 15 5 20 22 17 33 -4
33 -32 3 -73 -23 -29 -25 -35 -10 -35 9 0 19 9 22 20 7 26 9 25 38 -7 16 -18
22 -35 18 -48 -4 -16 -3 -18 8 -7 7 6 21 12 30 12 10 0 21 5 24 11 4 6 1 10
-6 8 -28 -3 -39 1 -39 16 0 20 -28 74 -48 94 -13 13 -12 17 9 34 17 14 20 21
11 24 -8 3 -10 9 -3 16 5 7 10 17 12 22 4 19 24 45 34 45 6 0 27 15 47 33 19
17 50 44 69 58 19 15 31 29 28 33 -3 3 -10 1 -15 -4z m-265 -144 c-9 -8 -10
-7 -5 7 3 10 7 24 7 30 1 7 3 4 6 -7 3 -10 -1 -23 -8 -30z m-115 -84 c15 -18
15 -19 -9 -30 -14 -6 -31 -9 -40 -6 -12 5 -12 9 2 30 18 29 25 30 47 6z m31
-102 c10 -11 24 -20 32 -20 17 0 17 -8 -1 -26 -11 -10 -21 -12 -39 -5 -22 9
-47 42 -29 40 19 -3 23 2 12 16 -19 23 4 18 25 -5z m-55 -9 c0 -5 2 -16 5 -24
4 -10 -2 -14 -25 -15 -35 -1 -37 4 -12 29 19 20 32 24 32 10z m-220 -183 c0
-4 -7 -5 -15 -2 -8 4 -15 16 -15 28 1 21 1 21 15 2 8 -11 15 -23 15 -28z m19
-65 c1 -9 -6 -10 -24 -3 -14 5 -29 9 -33 9 -25 -4 -22 4 8 19 31 16 36 16 42
2 4 -8 7 -21 7 -27z m91 -39 c-18 -21 -24 -10 -9 18 8 14 14 18 17 10 2 -7 -2
-19 -8 -28z m154 -103 c4 -5 -3 -7 -14 -4 -23 6 -26 13 -6 13 8 0 17 -4 20 -9z"/>
<path d="M3446 2761 c-3 -5 5 -12 18 -15 18 -4 23 -11 19 -26 -7 -27 26 -27
50 0 9 11 15 21 12 21 -3 1 -8 2 -12 3 -5 1 -18 7 -30 14 -17 9 -22 9 -26 -1
-4 -9 -6 -9 -6 1 -1 14 -17 16 -25 3z"/>
<path d="M4440 2765 c0 -10 43 -65 52 -65 18 0 5 26 -23 48 -16 13 -29 21 -29
17z"/>
<path d="M50 2753 c16 -6 30 -23 30 -35 0 -15 -27 -8 -54 13 -39 30 -32 15 14
-31 22 -22 40 -49 40 -59 0 -14 5 -18 20 -14 23 6 27 -12 5 -21 -8 -3 -15 -11
-15 -18 0 -6 -10 -22 -22 -35 -12 -13 -16 -23 -10 -23 7 0 12 5 12 11 0 8 6 7
17 -2 15 -12 16 -12 10 3 -3 9 2 25 11 36 16 18 21 19 49 7 17 -7 34 -18 37
-24 4 -6 12 -11 17 -11 6 0 7 6 3 13 -6 9 -3 8 8 -1 9 -8 15 -19 12 -26 -5
-13 33 -53 42 -43 7 6 -43 94 -58 104 -6 3 -8 2 -5 -4 3 -5 0 -10 -8 -10 -10
0 -13 7 -9 24 6 23 -1 27 -36 24 -12 -1 -11 1 3 12 26 22 21 26 -19 15 -31 -8
-40 -7 -56 9 -16 17 -17 21 -4 38 14 19 15 19 21 -8 4 -15 11 -27 16 -27 12 0
11 17 -1 25 -6 4 -8 10 -5 15 7 12 -5 41 -15 35 -5 -3 -11 -1 -15 5 -3 5 -16
10 -28 9 -15 0 -17 -2 -7 -6z"/>
<path d="M268 2743 c24 -20 29 -40 17 -66 -11 -25 2 -34 22 -14 13 13 14 19 3
31 -11 14 -9 16 8 16 12 0 26 -8 31 -17 6 -10 11 -13 11 -6 0 18 -31 45 -45
39 -7 -2 -21 4 -31 15 -9 10 -21 19 -27 19 -5 0 0 -8 11 -17z"/>
<path d="M3687 2723 c-12 -12 -7 -22 8 -17 8 4 15 10 15 15 0 11 -14 12 -23 2z"/>
<path d="M5 2630 c0 -44 3 -80 8 -80 4 0 7 28 7 61 0 53 2 60 15 49 8 -7 17
-27 21 -46 3 -19 10 -34 15 -34 19 0 -5 67 -35 97 l-31 33 0 -80z"/>
<path d="M221 2698 c0 -7 4 -22 9 -33 8 -18 9 -17 9 7 1 15 -3 30 -9 33 -5 3
-10 0 -9 -7z"/>
<path d="M3577 2673 c-13 -21 -27 -44 -31 -50 -4 -7 6 -5 24 5 18 10 28 23 25
31 -3 7 2 19 11 26 12 8 13 14 6 19 -7 4 -21 -9 -35 -31z"/>
<path d="M437 2668 c-7 -27 2 -45 14 -27 11 18 11 49 0 49 -5 0 -11 -10 -14
-22z"/>
<path d="M3949 2665 c-8 -8 -36 -26 -64 -40 -59 -29 -46 -33 19 -6 24 11 46
16 48 11 2 -5 8 2 15 15 13 29 3 40 -18 20z"/>
<path d="M343 2663 c-21 -8 -15 -20 17 -33 24 -10 28 -15 19 -26 -14 -17 -33
-19 -23 -2 4 6 3 8 -3 5 -13 -8 -24 -47 -13 -47 5 0 11 6 13 13 3 7 6 4 6 -7
1 -15 4 -16 16 -6 8 7 15 21 15 32 0 12 4 17 12 12 7 -4 2 7 -10 24 -27 37
-33 41 -49 35z"/>
<path d="M3501 2649 c-37 -23 -60 -70 -71 -150 -5 -31 -13 -65 -18 -75 -5 -11
-6 -28 -1 -39 7 -19 8 -19 8 3 1 12 9 30 20 40 56 53 146 127 155 128 6 1 15
2 20 3 6 0 2 7 -9 14 -17 13 -17 15 3 35 24 24 27 32 12 32 -5 0 -20 -17 -32
-37 -27 -46 -147 -161 -128 -123 7 14 24 37 37 52 14 14 23 32 21 40 -3 8 -18
-6 -39 -35 -18 -26 -35 -43 -37 -37 -3 7 5 25 17 41 11 15 21 35 21 44 0 8 5
15 11 15 5 0 7 4 4 10 -3 5 0 8 7 5 15 -5 52 41 40 49 -5 3 -23 -4 -41 -15z"/>
<path d="M793 2639 c2 -17 -7 -25 -40 -37 -24 -9 -43 -22 -43 -29 0 -17 1 -17
70 12 33 14 66 25 75 25 8 0 15 5 15 10 0 6 -8 10 -18 10 -10 0 -28 7 -40 16
-21 14 -22 14 -19 -7z"/>
<path d="M255 2640 c-3 -6 6 -15 20 -20 17 -6 25 -16 22 -24 -3 -8 1 -17 9
-20 23 -9 17 33 -8 55 -26 21 -34 23 -43 9z"/>
<path d="M4102 2633 c2 -10 11 -19 21 -21 12 -2 15 1 11 12 -8 22 -36 30 -32
9z"/>
<path d="M218 2633 c7 -3 16 -2 19 1 4 3 -2 6 -13 5 -11 0 -14 -3 -6 -6z"/>
<path d="M3660 2615 c0 -27 1 -28 24 -19 24 9 20 44 -4 44 -15 0 -20 -7 -20
-25z"/>
<path d="M3755 2630 c-3 -5 1 -10 9 -10 8 0 18 5 21 10 3 6 -1 10 -9 10 -8 0
-18 -4 -21 -10z"/>
<path d="M468 2623 c-10 -2 -18 -11 -18 -19 0 -20 13 -17 28 6 7 11 11 19 10
19 -2 -1 -11 -3 -20 -6z"/>
<path d="M4013 2608 c-1 -10 3 -21 9 -24 7 -4 8 -2 4 4 -4 7 -3 12 2 12 6 0
12 6 15 14 4 10 0 14 -12 13 -9 0 -18 -9 -18 -19z"/>
<path d="M3730 2594 c-11 -12 -10 -18 3 -32 16 -15 17 -14 17 16 0 36 -2 38
-20 16z"/>
<path d="M4066 2576 c15 -31 21 -35 43 -29 52 12 54 24 9 39 -18 6 -41 15 -51
19 -17 7 -17 6 -1 -29z m34 -6 c0 -5 -2 -10 -4 -10 -3 0 -8 5 -11 10 -3 6 -1
10 4 10 6 0 11 -4 11 -10z"/>
<path d="M4375 2600 c3 -5 13 -10 21 -10 8 0 12 5 9 10 -3 6 -13 10 -21 10 -8
0 -12 -4 -9 -10z"/>
<path d="M651 2584 c0 -11 3 -14 6 -6 3 7 2 16 -1 19 -3 4 -6 -2 -5 -13z"/>
<path d="M4158 2593 c6 -2 18 -2 25 0 6 3 1 5 -13 5 -14 0 -19 -2 -12 -5z"/>
<path d="M35 2580 c-3 -5 -1 -10 4 -10 6 0 11 5 11 10 0 6 -2 10 -4 10 -3 0
-8 -4 -11 -10z"/>
<path d="M4307 2555 c-23 -47 -21 -55 4 -25 17 20 19 21 14 5 -4 -11 -7 -29
-7 -40 1 -16 -1 -17 -8 -5 -8 13 -10 12 -10 -2 0 -10 -13 -24 -29 -32 -16 -9
-31 -26 -34 -38 l-6 -23 20 24 c10 13 19 19 19 15 0 -5 7 -1 14 9 20 26 28 5
16 -45 -15 -65 -10 -90 6 -33 8 28 13 60 11 72 -4 19 -1 21 14 12 16 -8 19 -6
19 17 0 22 2 25 15 14 20 -17 19 -1 -1 21 -9 10 -21 34 -28 53 l-12 36 -17
-35z"/>
<path d="M3630 2559 c-7 -13 -32 -49 -56 -79 -23 -30 -46 -68 -50 -85 l-7 -30
20 20 c11 11 19 23 17 26 -1 3 8 18 22 33 14 15 36 46 49 68 l24 42 6 -27 c6
-22 -1 -36 -41 -82 -26 -31 -54 -60 -62 -64 -13 -8 -14 -15 -4 -47 13 -43 70
-139 78 -131 3 3 -2 32 -10 65 -29 109 -20 150 37 188 23 15 36 29 29 32 -6 2
-12 8 -12 14 0 5 9 6 20 3 11 -4 20 -2 20 4 0 6 -9 11 -20 11 -14 0 -25 11
-34 32 l-14 31 -12 -24z m-45 -237 c-3 -3 -10 -1 -17 6 -8 8 -7 19 3 44 l14
33 3 -39 c2 -21 1 -41 -3 -44z"/>
<path d="M3790 2570 c0 -5 5 -10 11 -10 5 0 7 5 4 10 -3 6 -8 10 -11 10 -2 0
-4 -4 -4 -10z"/>
<path d="M4420 2571 c0 -6 4 -13 10 -16 6 -3 7 1 4 9 -7 18 -14 21 -14 7z"/>
<path d="M118 2564 c-9 -9 27 -109 40 -109 6 0 20 -10 32 -22 11 -13 24 -23
28 -23 4 0 -10 16 -30 35 -21 20 -38 42 -38 50 0 7 -5 17 -10 20 -6 4 -8 11
-5 16 7 11 -9 42 -17 33z"/>
<path d="M140 2564 c0 -16 41 -66 48 -59 4 3 2 9 -4 13 -6 4 -18 18 -27 32 -9
13 -17 20 -17 14z"/>
<path d="M3996 2562 c-2 -4 2 -12 9 -19 10 -10 14 -9 18 2 6 14 -19 30 -27 17z"/>
<path d="M4485 2560 c-3 -5 -1 -10 4 -10 6 0 11 5 11 10 0 6 -2 10 -4 10 -3 0
-8 -4 -11 -10z"/>
<path d="M3760 2551 c0 -6 8 -14 18 -17 9 -3 24 -9 33 -14 17 -9 109 18 109
32 0 9 -64 -2 -68 -12 -4 -9 -64 0 -79 12 -9 7 -13 7 -13 -1z"/>
<path d="M195 2530 c10 -11 20 -20 23 -20 3 0 -3 9 -13 20 -10 11 -20 20 -23
20 -3 0 3 -9 13 -20z"/>
<path d="M3940 2531 c0 -10 -7 -21 -15 -25 -8 -3 -15 -11 -15 -17 0 -8 4 -9
13 0 8 6 17 8 20 4 4 -3 7 8 7 25 0 18 -2 32 -5 32 -3 0 -5 -9 -5 -19z"/>
<path d="M4042 2525 c-6 -14 -7 -25 -2 -25 9 0 25 39 18 46 -3 2 -10 -7 -16
-21z"/>
<path d="M4215 2540 c-3 -5 -1 -10 4 -10 6 0 11 5 11 10 0 6 -2 10 -4 10 -3 0
-8 -4 -11 -10z"/>
<path d="M775 2530 c-7 -11 42 -37 51 -27 4 3 4 13 1 22 -7 17 -42 21 -52 5z"/>
<path d="M4415 2520 c-3 -5 5 -16 19 -25 14 -10 23 -22 19 -31 -3 -8 0 -14 7
-14 6 0 9 4 6 9 -4 5 0 11 6 14 10 3 10 8 -1 21 -21 25 -49 38 -56 26z"/>
<path d="M4 2501 c3 -4 30 -8 61 -8 30 0 54 2 51 4 -8 8 -117 12 -112 4z"/>
<path d="M938 2505 c-3 -6 0 -21 8 -35 7 -14 14 -23 14 -20 7 30 7 39 0 35 -5
-3 -10 3 -12 12 -2 10 -6 13 -10 8z"/>
<path d="M3993 2488 c-1 -32 12 -37 20 -8 3 11 1 18 -3 15 -5 -3 -10 1 -13 7
-2 7 -4 1 -4 -14z"/>
<path d="M738 2493 c6 -2 12 -18 12 -34 0 -16 5 -29 11 -29 6 0 8 7 5 16 -3 9
-6 24 -6 35 0 12 -7 19 -17 18 -11 0 -13 -3 -5 -6z"/>
<path d="M861 2486 c-9 -10 -9 -16 -1 -21 17 -10 37 12 24 25 -8 8 -15 6 -23
-4z"/>
<path d="M3714 2489 c-8 -13 45 -31 94 -31 23 0 42 -4 42 -9 0 -5 -4 -10 -10
-10 -20 -3 -25 -4 -37 -12 -6 -4 -14 -3 -18 3 -3 5 -14 10 -23 10 -15 -1 -15
-2 2 -15 17 -13 17 -14 -10 -21 -64 -15 -112 -54 -66 -54 13 0 14 2 3 9 -11 7
-8 11 10 17 13 4 27 7 32 6 14 -4 77 27 77 37 0 6 7 8 16 4 13 -5 12 -9 -8
-31 -15 -16 -17 -22 -6 -16 24 13 68 82 62 97 -3 8 -17 12 -37 9 -18 -2 -51 1
-75 6 -24 6 -44 6 -48 1z"/>
<path d="M4228 2483 c6 -2 18 -2 25 0 6 3 1 5 -13 5 -14 0 -19 -2 -12 -5z"/>
<path d="M4030 2470 c-8 -5 -12 -12 -9 -15 4 -3 12 1 19 10 14 17 11 19 -10 5z"/>
<path d="M80 2460 c8 -5 20 -10 25 -10 6 0 3 5 -5 10 -8 5 -19 10 -25 10 -5 0
-3 -5 5 -10z"/>
<path d="M258 2465 c-10 -10 14 -45 31 -45 12 0 12 2 -1 13 -9 6 -17 18 -20
25 -2 7 -6 10 -10 7z"/>
<path d="M4177 2456 c-4 -10 -1 -13 9 -9 15 6 19 23 5 23 -5 0 -11 -7 -14 -14z"/>
<path d="M4386 2454 c-9 -24 -7 -27 9 -14 12 10 19 7 40 -16 14 -15 25 -23 25
-18 0 5 5 2 10 -6 5 -8 10 -10 10 -5 -1 13 -50 60 -72 68 -10 3 -19 0 -22 -9z"/>
<path d="M56 2435 c4 -8 11 -15 16 -15 6 0 5 6 -2 15 -7 8 -14 15 -16 15 -2 0
-1 -7 2 -15z"/>
<path d="M3923 2438 c1 -7 16 -23 32 -35 17 -12 39 -35 50 -52 11 -17 25 -31
32 -31 18 0 53 50 53 76 0 17 7 25 25 30 14 3 25 11 25 16 0 6 -7 7 -17 2 -10
-4 -31 -8 -48 -8 -16 -1 -36 -9 -43 -18 -19 -25 -49 -22 -76 7 -26 27 -37 32
-33 13z m143 -44 c-3 -9 -6 -21 -6 -27 0 -7 -4 -6 -10 3 -8 12 -10 12 -10 1 0
-8 -3 -12 -6 -9 -8 9 15 48 27 48 6 0 8 -7 5 -16z"/>
<path d="M3856 2395 c-10 -31 -12 -53 -6 -68 8 -21 9 -21 11 -2 5 56 7 66 12
71 3 3 8 -8 12 -25 4 -17 11 -31 16 -31 12 0 11 10 -5 39 -7 13 -11 32 -8 43
10 39 -17 16 -32 -27z"/>
<path d="M17 2419 c7 -7 15 -10 18 -7 3 3 -2 9 -12 12 -14 6 -15 5 -6 -5z"/>
<path d="M817 2410 c-21 -25 -22 -32 0 -28 9 2 18 13 19 26 5 27 3 27 -19 2z"/>
<path d="M109 2374 c-1 -27 -1 -53 0 -57 1 -5 -13 -6 -31 -2 -55 11 -68 16
-68 26 0 13 24 11 37 -2 16 -16 33 -2 33 27 0 27 -12 31 -30 9 -7 -8 -21 -15
-31 -15 -22 0 -24 -18 -6 -45 16 -24 28 -55 21 -55 -2 0 -9 10 -14 23 -7 19
-9 16 -10 -18 0 -22 -3 -50 -6 -62 -4 -15 -2 -23 6 -23 7 0 10 6 7 13 -2 6 0
23 4 36 8 21 14 23 47 18 l37 -6 -33 27 c-38 32 -41 45 -7 32 14 -5 32 -7 40
-4 13 5 15 -1 10 -34 -4 -36 -3 -40 13 -35 9 4 23 13 30 20 11 11 11 13 -1 13
-10 0 -14 8 -13 25 2 14 -1 22 -7 18 -6 -3 -7 13 -3 45 4 37 2 53 -9 62 -13
11 -15 6 -16 -36z"/>
<path d="M0 2389 c0 -5 5 -7 10 -4 5 3 10 8 10 11 0 2 -4 4 -10 4 -5 0 -10 -5
-10 -11z"/>
<path d="M958 2389 c-2 -7 -17 -12 -33 -13 -25 -1 -30 -5 -28 -24 3 -27 31
-72 45 -72 6 0 7 11 4 26 -9 33 1 64 20 64 8 0 14 7 14 15 0 18 -17 20 -22 4z"/>
<path d="M3930 2384 c1 -15 50 -66 61 -62 5 2 -6 19 -26 38 -19 18 -35 30 -35
24z"/>
<path d="M4205 2346 c4 -25 4 -46 1 -46 -12 0 -55 54 -56 70 -1 20 -60 -45
-60 -65 0 -18 -14 -19 -41 -5 -20 11 -24 4 -10 -19 5 -7 21 -15 36 -16 15 -2
24 -1 21 2 -10 10 15 32 30 26 18 -6 18 -23 1 -23 -7 0 -13 -10 -14 -22 -3
-45 -14 -88 -22 -88 -13 0 -32 51 -26 70 3 11 0 20 -10 24 -12 4 -15 -2 -15
-31 0 -34 33 -103 49 -103 11 0 39 63 47 105 6 35 47 76 62 61 3 -4 1 -11 -6
-15 -10 -6 -10 -10 2 -20 12 -10 15 -8 18 11 2 18 17 0 72 -85 83 -131 111
-197 93 -221 -15 -20 -51 -10 -80 22 -15 16 -16 24 -7 41 6 12 8 26 5 31 -4 6
4 20 17 31 l23 20 -32 -16 c-18 -8 -33 -21 -33 -28 0 -6 -7 -3 -15 7 -14 19
-15 19 -15 2 0 -14 -3 -16 -13 -8 -7 6 -33 14 -57 18 -25 4 -57 13 -72 20 -39
20 -55 17 -85 -12 -16 -16 -33 -24 -44 -21 -11 3 -21 1 -24 -3 -3 -5 4 -10 16
-12 12 -2 27 -12 33 -23 6 -11 13 -22 17 -25 3 -3 17 -21 32 -41 23 -31 35
-38 77 -43 55 -7 103 8 134 42 19 21 19 21 44 2 13 -11 32 -20 40 -20 10 0 0
-17 -29 -45 -36 -38 -49 -45 -71 -41 -16 3 -28 1 -28 -4 0 -6 -5 -9 -11 -8 -6
2 -14 -3 -16 -9 -6 -16 25 -17 62 -3 l25 10 -15 -30 c-19 -36 -19 -41 0 -34 8
3 17 14 20 25 4 10 14 19 23 20 11 0 12 3 5 6 -7 2 -13 11 -13 19 0 11 5 10
22 -6 24 -22 38 -26 38 -10 0 6 -4 10 -9 10 -13 0 -8 55 8 74 30 36 62 7 115
-104 20 -41 36 -66 36 -57 0 10 -5 28 -11 39 -8 15 -8 22 1 28 9 6 7 11 -9 19
-21 12 -47 53 -62 100 -4 14 -19 56 -32 92 -29 76 -21 100 35 102 32 2 78 31
78 49 0 5 -10 8 -22 6 -14 -2 -22 -9 -21 -18 2 -10 -6 -16 -22 -18 l-26 -2 27
25 c15 14 35 25 45 25 11 0 19 7 19 15 0 12 -4 13 -19 5 -29 -15 -31 -13 -31
28 0 42 15 63 37 55 13 -5 13 -2 5 14 -8 14 -8 23 0 31 9 9 9 12 0 12 -6 0
-14 -11 -18 -25 -3 -14 -18 -31 -32 -37 -29 -15 -45 -45 -18 -35 9 4 16 2 16
-3 0 -6 -4 -10 -10 -10 -5 0 -10 -5 -10 -11 0 -5 4 -8 9 -4 5 3 11 -3 13 -12
3 -11 -10 -32 -30 -52 -36 -36 -36 -36 -52 -1 -8 21 -9 18 -4 -18 4 -33 3 -41
-8 -37 -14 6 -62 81 -73 115 -7 21 -6 21 17 6 22 -14 25 -14 25 -1 0 8 -8 15
-18 15 -33 0 -70 42 -76 88 -3 23 -10 45 -15 48 -6 4 -7 -12 -3 -40z m-42 -30
c13 -10 15 -16 7 -21 -7 -4 -22 2 -33 14 -25 24 -4 30 26 7z m-79 -232 c9 -3
13 -11 9 -18 -16 -25 -11 -35 10 -21 32 21 123 7 119 -19 -3 -14 1 -16 20 -10
13 4 28 14 35 23 7 9 13 11 13 5 0 -6 -6 -17 -14 -24 -8 -6 -12 -18 -9 -26 4
-10 0 -12 -11 -8 -10 4 -16 1 -16 -9 0 -9 -5 -19 -11 -23 -8 -4 -9 1 -5 17 7
23 6 22 -10 -3 -20 -31 -56 -46 -46 -19 4 13 3 14 -9 5 -8 -6 -22 -14 -33 -18
-14 -5 -17 -3 -12 10 5 14 4 15 -9 4 -12 -10 -18 -10 -30 0 -16 13 -20 40 -6
40 4 0 25 14 46 30 46 37 39 39 -17 4 -34 -22 -45 -24 -64 -15 -30 13 -31 31
-1 32 21 1 21 1 -3 8 -17 5 -21 9 -12 15 7 4 22 4 35 0 19 -6 20 -5 8 10 -14
17 -5 21 23 10z m316 -134 c0 -5 -5 -10 -11 -10 -5 0 -7 5 -4 10 3 6 8 10 11
10 2 0 4 -4 4 -10z m-70 -74 c0 -3 -4 -8 -10 -11 -5 -3 -10 -1 -10 4 0 6 5 11
10 11 6 0 10 -2 10 -4z"/>
<path d="M4129 2009 c-23 -19 -23 -20 -2 -10 12 6 25 16 28 21 10 16 -1 12
-26 -11z"/>
<path d="M4180 2020 c-8 -5 -12 -12 -9 -15 4 -3 12 1 19 10 14 17 11 19 -10 5z"/>
<path d="M4141 1983 c-7 -8 -11 -16 -8 -19 2 -2 10 2 17 11 17 20 9 27 -9 8z"/>
<path d="M4190 1985 c-7 -9 -10 -18 -7 -21 3 -3 10 4 17 15 13 25 8 27 -10 6z"/>
<path d="M1044 2365 c-4 -9 -19 -15 -35 -15 -30 0 -36 -14 -19 -40 9 -13 14
-10 36 14 22 25 29 28 45 18 26 -17 29 -15 29 13 0 20 -5 25 -25 25 -14 0 -28
-7 -31 -15z"/>
<path d="M4410 2370 c0 -5 5 -10 10 -10 6 0 10 5 10 10 0 6 -4 10 -10 10 -5 0
-10 -4 -10 -10z"/>
<path d="M4441 2355 c-13 -14 -21 -28 -18 -31 6 -6 47 36 47 48 0 12 -3 10
-29 -17z"/>
<path d="M3623 2325 c0 -27 2 -38 4 -22 2 15 2 37 0 50 -2 12 -4 0 -4 -28z"/>
<path d="M813 2353 c-23 -9 -14 -33 12 -33 18 0 25 5 25 20 0 19 -12 24 -37
13z"/>
<path d="M3775 2329 c-4 -12 -3 -25 2 -30 6 -6 10 1 11 21 1 35 -4 39 -13 9z"/>
<path d="M4328 2324 c-8 -18 -17 -24 -30 -20 -15 3 -17 2 -8 -10 10 -11 15
-11 34 3 12 9 23 25 23 35 2 25 -5 22 -19 -8z"/>
<path d="M3650 2320 c0 -5 4 -10 9 -10 6 0 13 5 16 10 3 6 -1 10 -9 10 -9 0
-16 -4 -16 -10z"/>
<path d="M3694 2315 c-10 -8 -14 -15 -8 -15 6 0 17 7 24 15 16 19 9 19 -16 0z"/>
<path d="M4363 2300 c-9 -16 -23 -30 -30 -30 -16 0 -16 -2 -3 -34 7 -20 6 -26
-4 -26 -9 0 -12 -7 -9 -20 3 -11 8 -20 12 -20 8 0 27 45 41 97 8 34 14 41 28
36 15 -6 15 -5 3 10 -17 22 -17 22 -38 -13z"/>
<path d="M688 2309 c-10 -5 -18 -16 -18 -24 0 -8 -10 -21 -22 -29 -12 -9 -17
-16 -10 -16 20 0 82 50 82 66 0 16 -8 17 -32 3z"/>
<path d="M3895 2300 c3 -5 8 -10 11 -10 2 0 4 5 4 10 0 6 -5 10 -11 10 -5 0
-7 -4 -4 -10z"/>
<path d="M399 2253 c-2 -51 1 -67 12 -71 5 -2 15 -9 22 -16 7 -7 26 -13 42
-12 23 1 30 6 31 23 2 28 -11 49 -20 34 -4 -6 -3 -11 3 -11 14 0 6 -33 -9 -38
-9 -3 -11 1 -7 12 5 11 3 15 -5 10 -8 -5 -9 -2 -4 11 5 15 4 16 -9 5 -11 -9
-15 -9 -15 -1 0 7 -5 9 -10 6 -6 -4 -9 3 -6 17 2 19 9 23 35 22 39 -2 41 12 1
21 -16 4 -32 11 -35 16 -13 20 -25 7 -26 -28z"/>
<path d="M537 2276 c-3 -8 9 -20 29 -30 l35 -16 -18 24 c-22 31 -40 39 -46 22z"/>
<path d="M3998 2261 c3 -19 -6 -48 -27 -87 -35 -67 -37 -74 -17 -74 8 0 18 10
22 23 4 12 16 36 28 52 22 31 26 51 13 73 -5 7 -3 12 4 12 8 0 8 4 -1 15 -19
23 -27 18 -22 -14z"/>
<path d="M3789 2271 c8 -5 10 -14 6 -21 -5 -9 -4 -11 3 -6 18 11 14 36 -5 36
-14 0 -15 -2 -4 -9z"/>
<path d="M4480 2270 c0 -5 5 -10 11 -10 5 0 7 5 4 10 -3 6 -8 10 -11 10 -2 0
-4 -4 -4 -10z"/>
<path d="M500 2251 c0 -6 5 -11 11 -11 5 0 7 -4 4 -10 -3 -5 -1 -10 6 -10 7 0
10 -11 7 -30 -3 -19 0 -30 7 -30 19 0 23 9 16 42 -6 30 -51 73 -51 49z"/>
<path d="M865 2250 c-3 -5 -2 -10 4 -10 5 0 13 5 16 10 3 6 2 10 -4 10 -5 0
-13 -4 -16 -10z"/>
<path d="M800 2225 c0 -15 6 -25 14 -25 19 0 28 14 20 34 -10 25 -34 19 -34
-9z"/>
<path d="M3868 2243 c7 -3 16 -2 19 1 4 3 -2 6 -13 5 -11 0 -14 -3 -6 -6z"/>
<path d="M3935 2239 c7 -11 35 -12 35 -1 0 4 -9 8 -20 9 -11 1 -18 -2 -15 -8z"/>
<path d="M3825 2230 c3 -5 8 -10 11 -10 2 0 4 5 4 10 0 6 -5 10 -11 10 -5 0
-7 -4 -4 -10z"/>
<path d="M58 2219 c-24 -13 -23 -25 3 -32 34 -9 50 2 38 24 -11 22 -17 23 -41
8z m27 -19 c3 -6 -1 -7 -9 -4 -18 7 -21 14 -7 14 6 0 13 -4 16 -10z"/>
<path d="M4080 2220 c0 -5 5 -10 11 -10 5 0 7 5 4 10 -3 6 -8 10 -11 10 -2 0
-4 -4 -4 -10z"/>
<path d="M3910 2200 c-8 -11 -26 -20 -40 -20 -19 0 -22 -3 -11 -9 10 -6 22 -5
34 2 11 7 28 17 38 23 10 6 16 14 12 17 -10 11 -18 8 -33 -13z"/>
<path d="M595 2201 c-3 -5 -1 -12 4 -16 14 -8 62 5 55 16 -7 12 -51 12 -59 0z"/>
<path d="M4212 2198 c5 -14 -9 -31 -32 -41 -8 -3 -4 -5 10 -3 70 10 87 30 41
48 -16 6 -22 5 -19 -4z"/>
<path d="M716 2168 c-11 -6 -32 -11 -48 -10 -31 1 -36 -9 -14 -27 11 -10 20
-10 36 -1 12 7 33 10 46 7 13 -2 25 1 27 7 3 7 13 3 26 -9 19 -16 24 -17 31
-5 14 23 -17 52 -40 38 -14 -9 -22 -9 -32 -1 -9 8 -19 8 -32 1z"/>
<path d="M3750 2156 c0 -2 7 -6 15 -10 8 -3 15 -1 15 4 0 6 -7 10 -15 10 -8 0
-15 -2 -15 -4z"/>
<path d="M3810 2151 c0 -5 9 -7 20 -4 11 3 20 7 20 9 0 2 -9 4 -20 4 -11 0
-20 -4 -20 -9z"/>
<path d="M18 2143 c7 -3 16 -2 19 1 4 3 -2 6 -13 5 -11 0 -14 -3 -6 -6z"/>
<path d="M390 2126 c0 -9 8 -12 26 -8 19 3 22 7 12 13 -20 13 -38 11 -38 -5z"/>
<path d="M4207 2133 c-10 -9 -9 -23 1 -23 5 0 9 7 9 15 0 17 -1 18 -10 8z"/>
<path d="M4278 2134 c-5 -4 -8 -16 -8 -28 0 -14 3 -17 11 -9 6 6 9 19 7 28 -1
9 -6 13 -10 9z"/>
<path d="M360 2100 c0 -5 5 -10 10 -10 6 0 10 5 10 10 0 6 -4 10 -10 10 -5 0
-10 -4 -10 -10z"/>
<path d="M545 2090 c-3 -5 1 -10 9 -10 9 0 16 5 16 10 0 6 -4 10 -9 10 -6 0
-13 -4 -16 -10z"/>
<path d="M625 2065 c-15 -20 -25 -38 -22 -41 9 -9 76 41 74 55 -4 27 -24 22
-52 -14z"/>
<path d="M3 2055 c-8 -21 -2 -24 25 -14 13 5 20 13 17 19 -9 15 -35 12 -42 -5z"/>
<path d="M4453 2017 c-18 -12 -33 -26 -33 -30 0 -10 57 23 72 41 16 18 -3 13
-39 -11z"/>
<path d="M61 2013 c-1 -7 -9 -10 -18 -7 -16 5 -16 4 0 -6 21 -13 32 -8 24 12
-4 9 -6 9 -6 1z"/>
<path d="M225 2001 c-3 -5 8 -24 24 -41 23 -25 29 -28 34 -16 4 10 1 16 -8 16
-8 0 -17 11 -21 25 -6 26 -18 32 -29 16z"/>
<path d="M370 1952 c-16 -11 -26 -28 -28 -47 -2 -23 -1 -27 8 -15 9 13 13 12
26 -5 16 -20 16 -20 11 0 -2 11 -8 27 -11 36 -10 24 25 35 41 13 16 -21 17
-10 3 17 -13 23 -17 23 -50 1z"/>
<path d="M132 1920 c-7 -11 -19 -20 -28 -20 -10 0 -12 -5 -7 -12 4 -7 7 -22 5
-33 -2 -20 -2 -20 7 0 5 11 6 24 3 29 -3 5 2 6 12 3 9 -4 15 -3 11 2 -3 5 0
11 6 13 6 2 10 12 8 21 -4 16 -5 16 -17 -3z"/>
<path d="M4430 1937 c0 -3 16 -24 35 -47 19 -23 35 -38 35 -33 -1 22 -14 53
-23 53 -6 0 -19 7 -29 17 -10 9 -18 14 -18 10z"/>
<path d="M450 1920 c0 -6 7 -10 15 -10 8 0 15 2 15 4 0 2 -7 6 -15 10 -8 3
-15 1 -15 -4z"/>
<path d="M498 1923 c7 -3 16 -2 19 1 4 3 -2 6 -13 5 -11 0 -14 -3 -6 -6z"/>
<path d="M7 1910 c8 -9 9 -19 2 -31 -8 -15 -6 -17 6 -13 20 8 16 46 -5 52 -12
4 -12 2 -3 -8z"/>
<path d="M287 1906 c-4 -10 -1 -13 9 -9 7 3 14 9 14 14 0 14 -17 10 -23 -5z"/>
<path d="M4388 1890 c16 -28 42 -48 42 -32 -1 8 -47 62 -54 62 -3 0 3 -13 12
-30z"/>
<path d="M207 1883 c-6 -32 -3 -38 12 -28 13 8 15 55 2 55 -5 0 -11 -12 -14
-27z"/>
<path d="M254 1896 c-8 -22 0 -69 12 -73 16 -5 26 25 12 33 -7 5 -8 2 -3 -6 5
-8 4 -11 -2 -7 -5 3 -8 20 -5 37 4 31 -4 41 -14 16z"/>
<path d="M410 1892 c6 -13 14 -21 18 -18 3 4 -2 14 -12 24 -18 16 -18 16 -6
-6z"/>
<path d="M60 1871 c-14 -27 -13 -41 5 -41 10 0 15 10 15 30 0 35 -5 38 -20 11z"/>
<path d="M300 1863 c0 -5 4 -14 9 -21 6 -10 10 -9 14 7 3 14 0 21 -9 21 -8 0
-14 -3 -14 -7z"/>
<path d="M350 1861 c0 -5 7 -12 16 -15 24 -9 28 -7 14 9 -14 17 -30 20 -30 6z"/>
<path d="M142 1845 c-10 -12 -10 -15 2 -15 7 0 16 7 20 15 7 19 -5 19 -22 0z"/>
<path d="M380 1798 c-18 -29 -48 -76 -66 -104 -19 -28 -34 -55 -34 -62 0 -6
-17 -25 -37 -42 -21 -17 -29 -28 -18 -24 20 7 20 7 0 -15 l-20 -23 -3 51 c-2
28 -6 51 -10 51 -20 -1 -30 -20 -37 -69 -6 -41 -12 -55 -27 -59 -13 -3 -18
-11 -15 -23 6 -24 -16 -25 -66 -4 -43 18 -47 18 -47 6 0 -5 10 -13 22 -17 l23
-7 -25 -9 c-17 -6 -21 -11 -12 -17 7 -4 14 -22 15 -39 1 -21 10 -35 25 -43 33
-18 29 -67 -13 -145 -49 -90 -43 -103 9 -21 25 37 47 63 51 57 3 -5 3 -15 -1
-21 -4 -7 -1 -10 7 -7 8 3 13 15 12 27 -3 25 -1 25 36 6 21 -11 30 -24 35 -54
3 -22 16 -52 29 -67 l23 -27 22 28 c14 18 22 42 22 67 0 39 2 41 53 52 15 4
27 13 27 21 0 8 5 15 12 15 6 0 9 3 6 6 -4 3 -33 -9 -67 -26 -49 -26 -59 -35
-52 -48 10 -19 -1 -56 -19 -67 -15 -9 -30 12 -30 42 0 12 -6 24 -12 26 -10 4
-9 8 2 16 13 9 13 10 0 15 -8 2 -22 7 -30 9 -8 3 -1 6 17 6 17 1 33 -4 35 -11
7 -20 52 0 71 32 13 21 24 29 35 26 9 -3 23 -2 31 3 11 7 9 11 -9 21 -12 7
-25 8 -29 4 -9 -13 -41 -16 -41 -4 0 5 -7 10 -15 10 -8 0 -16 7 -16 15 -1 8
-2 21 -3 28 -1 6 5 13 12 13 6 1 19 2 28 3 9 0 12 6 8 13 -5 7 -2 9 9 5 9 -3
17 -1 19 5 4 10 72 38 95 38 6 0 24 -5 40 -11 l28 -11 -35 -14 -35 -14 33 3
c34 4 40 -4 19 -22 -10 -8 -17 -7 -25 1 -9 9 -15 9 -24 0 -9 -9 -7 -12 10 -12
15 0 20 -5 16 -15 -7 -17 -40 -20 -49 -5 -3 6 -12 10 -18 10 -7 0 -3 -8 8 -16
11 -8 19 -20 17 -25 -4 -15 13 -10 34 10 78 78 104 109 86 104 -13 -3 -29 4
-43 18 -34 34 -82 29 -173 -16 -73 -37 -77 -38 -118 -25 -24 8 -46 13 -50 12
-5 -1 -8 5 -8 14 0 11 6 13 20 9 10 -3 30 0 42 6 29 17 41 19 109 28 31 3 64
12 72 20 21 17 70 101 64 108 -3 3 -2 16 3 29 7 17 5 36 -4 62 -20 53 -27 100
-16 107 12 8 13 35 2 35 -5 0 -23 -24 -42 -52z m19 -65 c-5 -14 -5 -22 0 -19
11 7 23 -36 13 -46 -4 -4 -32 -21 -62 -37 -30 -17 -51 -31 -46 -31 5 0 33 14
63 30 29 17 56 30 59 30 14 0 -33 -43 -66 -61 -19 -10 -28 -18 -20 -19 8 0 29
9 47 20 23 13 30 15 27 5 -7 -17 -48 -45 -68 -45 -8 0 -17 -4 -20 -8 -3 -5 9
-7 27 -5 l32 4 -25 -19 c-28 -23 -116 -33 -131 -16 -11 13 13 38 26 26 4 -4 2
4 -5 18 -12 23 -12 24 4 11 9 -8 19 -11 23 -7 3 3 1 6 -5 6 -7 0 -12 5 -12 10
0 6 8 10 17 10 9 0 14 3 10 6 -8 8 18 59 54 105 16 20 29 41 29 46 0 5 5 14
12 21 17 17 29 -5 17 -35z m-213 -171 c3 -44 5 -50 24 -55 11 -3 20 -10 20
-17 0 -6 -5 -8 -10 -5 -6 4 -22 0 -35 -9 -34 -22 -45 -19 -16 5 13 11 21 22
18 26 -4 3 -13 0 -22 -7 -9 -7 -15 -8 -15 -2 0 6 5 12 10 14 6 2 11 20 12 41
1 36 12 43 14 9z m-87 -144 c-1 -18 -4 -44 -9 -58 -7 -24 -8 -24 -15 -5 -5 11
-17 27 -27 36 -34 31 -20 54 35 58 13 1 17 -6 16 -31z m80 -13 c31 -6 41 -14
41 -34 0 -24 37 -71 56 -71 20 0 18 -16 -3 -24 -10 -3 -23 -9 -30 -12 -7 -3
-18 9 -27 30 -15 36 -56 68 -56 44 0 -13 -53 -68 -65 -68 -8 0 -1 56 16 113 8
30 14 37 29 32 10 -3 28 -8 39 -10z m-4 -122 c-30 -21 -51 -16 -24 6 13 11 28
17 33 14 5 -4 1 -12 -9 -20z"/>
<path d="M298 1573 c7 -3 16 -2 19 1 4 3 -2 6 -13 5 -11 0 -14 -3 -6 -6z"/>
<path d="M4401 1808 c-17 -18 -34 -43 -37 -55 -4 -16 -14 -23 -31 -23 -21 0
-23 -3 -18 -22 4 -13 14 -30 22 -38 14 -13 15 -12 11 12 -6 33 18 46 38 21 11
-15 13 -15 14 -2 0 8 -6 21 -12 27 -9 9 -9 15 -3 20 6 4 19 20 29 36 l19 29
13 -24 c17 -31 18 -20 1 20 l-14 32 -32 -33z"/>
<path d="M0 1800 c0 -16 2 -30 4 -30 2 0 6 14 8 30 3 17 1 30 -4 30 -4 0 -8
-13 -8 -30z"/>
<path d="M176 1815 c-11 -8 -17 -18 -13 -21 4 -4 13 -2 20 5 12 9 13 7 9 -14
-2 -14 -11 -25 -21 -26 -11 0 -12 -2 -3 -6 7 -3 24 7 38 22 39 42 15 74 -30
40z"/>
<path d="M4010 1810 c0 -5 -8 -7 -17 -4 -14 5 -15 4 -4 -4 8 -6 15 -26 16 -45
1 -19 5 -39 9 -46 9 -14 36 -15 36 -1 0 6 -7 10 -16 10 -13 0 -14 3 -5 13 7 9
8 24 2 45 -7 24 -6 30 4 26 7 -3 16 -1 20 5 4 7 -4 11 -19 11 -14 0 -26 -4
-26 -10z"/>
<path d="M4347 1813 c-4 -3 -7 -15 -7 -27 0 -20 0 -20 15 0 8 10 15 22 15 27
0 9 -14 9 -23 0z"/>
<path d="M45 1801 c-3 -5 -1 -12 5 -16 5 -3 10 1 10 9 0 18 -6 21 -15 7z"/>
<path d="M104 1795 c-4 -8 -1 -22 6 -30 10 -12 10 -22 2 -39 -9 -20 -8 -25 4
-30 35 -13 44 21 22 81 -13 36 -25 42 -34 18z"/>
<path d="M3930 1781 c-8 -6 -17 -8 -22 -5 -4 2 -12 -5 -18 -17 -7 -12 -8 -19
-2 -15 5 3 13 -1 16 -10 5 -13 2 -15 -14 -11 -17 4 -20 0 -20 -24 0 -16 5 -29
10 -29 6 0 10 8 10 18 0 9 9 23 20 30 12 7 18 18 14 24 -4 7 -3 8 4 4 16 -10
15 -33 0 -39 -10 -4 -10 -6 0 -6 6 -1 15 -1 18 0 4 0 10 -5 15 -12 4 -8 12
-10 16 -5 4 4 -1 14 -11 22 -12 8 -15 14 -7 14 10 0 9 7 -4 26 -14 22 -15 28
-4 35 8 5 10 9 4 9 -5 0 -17 -4 -25 -9z"/>
<path d="M4048 1778 c5 -7 12 -23 14 -35 2 -17 7 -20 17 -14 12 8 12 13 -3 35
-9 14 -21 26 -27 26 -8 0 -8 -4 -1 -12z"/>
<path d="M4153 1780 c-13 -5 -23 -12 -23 -16 0 -3 7 -4 15 0 22 8 19 -20 -5
-37 -18 -13 -45 -66 -37 -74 2 -2 15 6 28 18 17 15 19 19 6 15 -16 -5 -16 -3
-2 17 8 13 26 33 40 45 l25 22 10 -26 c14 -35 14 -34 -20 -34 -16 0 -30 -5
-30 -10 0 -6 11 -8 25 -4 14 4 32 1 40 -6 22 -18 32 15 10 36 -9 9 -13 24 -10
32 10 28 -28 40 -72 22z"/>
<path d="M30 1763 c8 -3 18 -11 22 -17 4 -6 10 -7 15 -3 9 10 -16 27 -37 26
-13 -1 -13 -1 0 -6z"/>
<path d="M4300 1755 c-7 -9 -10 -18 -7 -21 3 -3 10 4 17 15 13 25 8 27 -10 6z"/>
<path d="M203 1710 c-6 -28 -7 -53 -2 -55 4 -3 11 9 14 27 4 18 9 36 12 41 5
9 33 -18 33 -32 0 -6 7 -11 15 -11 11 0 13 4 6 18 -5 9 -12 25 -15 36 -4 11
-12 16 -21 12 -8 -3 -15 -1 -15 4 0 6 -4 10 -9 10 -4 0 -13 -23 -18 -50z"/>
<path d="M4115 1740 c-3 -6 1 -7 9 -4 18 7 21 14 7 14 -6 0 -13 -4 -16 -10z"/>
<path d="M4449 1748 c-5 -18 -2 -68 5 -68 5 0 5 -17 2 -37 -4 -21 -8 -44 -8
-50 -2 -18 -33 -26 -68 -18 -43 9 -47 25 -6 25 19 0 38 5 41 10 4 6 11 8 16 5
5 -4 9 3 9 14 0 13 -7 21 -16 21 -10 0 -14 6 -10 15 8 21 -11 19 -23 -2 -7
-13 -10 -14 -11 -4 0 11 -4 10 -19 -3 -11 -10 -24 -15 -30 -12 -5 3 -11 0 -14
-6 -3 -10 -8 -9 -18 3 -16 20 -65 38 -55 20 4 -6 14 -11 22 -11 8 0 14 -6 14
-14 0 -8 6 -16 13 -19 8 -3 7 -9 -6 -18 -16 -13 -16 -16 1 -62 20 -52 42 -82
42 -56 0 8 -8 31 -19 52 -16 32 -17 38 -4 49 10 8 17 8 21 1 7 -10 60 -28 75
-24 5 1 6 -3 2 -9 -9 -15 1 -12 18 4 8 8 24 12 35 9 17 -4 20 -9 12 -23 -14
-26 -13 -30 11 -30 19 0 21 4 15 38 -15 80 -29 168 -29 185 -1 13 -15 25 -18
15z m-74 -108 c-3 -5 -11 -10 -16 -10 -6 0 -7 5 -4 10 3 6 11 10 16 10 6 0 7
-4 4 -10z m40 0 c3 -6 -6 -15 -20 -20 -37 -14 -40 -13 -20 10 20 22 31 25 40
10z m-75 -20 c0 -5 -4 -10 -10 -10 -5 0 -10 5 -10 10 0 6 5 10 10 10 6 0 10
-4 10 -10z m134 -40 c-6 -6 -10 -3 -10 10 0 13 4 16 10 10 7 -7 7 -13 0 -20z"/>
<path d="M0 1705 c0 -10 7 -15 18 -13 21 4 19 22 -2 26 -10 2 -16 -3 -16 -13z"/>
<path d="M55 1710 c3 -5 10 -10 16 -10 5 0 9 5 9 10 0 6 -7 10 -16 10 -8 0
-12 -4 -9 -10z"/>
<path d="M161 1694 c0 -11 3 -14 6 -6 3 7 2 16 -1 19 -3 4 -6 -2 -5 -13z"/>
<path d="M4084 1696 c-3 -9 -12 -16 -20 -16 -8 0 -13 -3 -12 -7 1 -5 -6 -23
-15 -40 -10 -18 -13 -33 -7 -33 5 0 10 7 10 16 0 13 3 14 15 4 8 -6 19 -9 24
-6 6 4 9 -27 7 -84 -2 -70 0 -90 10 -90 18 0 29 47 15 64 -17 21 -3 48 23 42
14 -4 13 -2 -5 6 -20 8 -27 21 -36 67 -7 38 -7 60 0 69 5 7 7 15 4 19 -4 3 -9
-2 -13 -11z m-14 -51 c-7 -9 -15 -13 -17 -11 -7 7 7 26 19 26 6 0 6 -6 -2 -15z
m35 -155 c3 -5 1 -10 -4 -10 -6 0 -11 5 -11 10 0 6 2 10 4 10 3 0 8 -4 11 -10z"/>
<path d="M4276 1701 c-4 -7 -5 -15 -2 -18 9 -9 19 4 14 18 -4 11 -6 11 -12 0z"/>
<path d="M3900 1663 c0 -19 5 -24 22 -21 11 2 23 -3 25 -10 3 -7 -1 -10 -10
-6 -9 3 -16 -3 -20 -17 -8 -30 -3 -34 16 -14 21 21 26 19 21 -7 -2 -13 -2 -17
2 -10 3 6 9 10 13 8 4 -3 12 4 18 14 10 15 9 17 -7 13 -15 -4 -20 2 -25 30 -5
27 -13 36 -31 40 -20 3 -24 0 -24 -20z"/>
<path d="M62 1650 c-24 -32 -27 -57 -11 -80 8 -12 9 -10 4 7 -3 12 -1 25 6 29
8 4 9 3 5 -4 -4 -7 -1 -12 8 -12 22 0 29 17 10 28 -13 8 -14 13 -4 31 18 34 6
35 -18 1z"/>
<path d="M3991 1658 c-15 -25 -9 -33 16 -19 14 8 14 10 3 11 -12 0 -13 2 -1 9
7 5 9 11 4 14 -5 3 -15 -3 -22 -15z"/>
<path d="M4207 1652 c10 -11 26 -22 37 -26 15 -5 14 -2 -5 19 -13 13 -30 25
-37 25 -9 0 -7 -6 5 -18z"/>
<path d="M0 1648 c0 -9 5 -20 10 -23 13 -8 13 5 0 25 -8 13 -10 13 -10 -2z"/>
<path d="M4167 1639 c-10 -6 -25 -8 -33 -5 -10 4 -14 1 -11 -6 2 -7 10 -12 16
-10 6 1 11 -2 11 -7 0 -5 8 -8 18 -7 9 0 16 -5 14 -12 -1 -8 2 -11 8 -7 5 3
10 -1 10 -9 0 -9 5 -16 10 -16 6 0 9 6 8 13 -2 6 5 12 14 12 10 0 23 6 30 13
11 11 10 12 -3 7 -10 -4 -25 4 -40 19 -27 29 -28 29 -52 15z m49 -46 c-4 -4
-12 0 -17 10 -6 9 -18 17 -27 17 -15 0 -15 2 -2 10 17 11 60 -24 46 -37z"/>
<path d="M120 1615 c-9 -11 -10 -19 -3 -26 8 -8 13 -5 18 11 9 28 2 35 -15 15z"/>
<path d="M12 1593 c-18 -32 -15 -51 4 -25 8 12 14 28 11 35 -2 7 -8 3 -15 -10z"/>
<path d="M4114 1595 c3 -9 6 -19 6 -21 0 -2 5 -4 11 -4 7 0 35 -20 63 -44 28
-24 60 -45 71 -47 12 -3 21 -14 23 -27 2 -12 8 -20 13 -17 5 4 9 2 9 -4 0 -5
-8 -12 -18 -15 -17 -6 -25 -56 -9 -56 4 0 12 0 17 0 6 0 10 9 10 20 0 11 5 20
11 20 5 0 7 -4 4 -10 -3 -5 -1 -10 6 -10 7 0 20 -7 30 -16 12 -11 23 -13 35
-6 11 6 13 11 5 16 -8 5 -8 13 -1 26 7 14 6 23 -6 34 -8 9 -18 16 -21 16 -4 0
-3 -3 0 -6 3 -4 1 -16 -5 -27 -9 -17 -8 -19 8 -13 15 6 16 5 7 -5 -20 -20 -66
5 -58 31 4 12 2 20 -5 20 -6 0 -16 11 -22 25 -6 14 -18 25 -26 25 -7 0 -26 9
-40 20 -92 70 -124 91 -118 75z"/>
<path d="M4046 1593 c-9 -9 -7 -33 3 -33 12 0 22 28 12 34 -5 3 -11 3 -15 -1z"/>
<path d="M3997 1575 c-8 -7 -26 -17 -41 -21 -14 -3 -23 -10 -20 -15 3 -5 10
-7 15 -3 14 8 41 -17 35 -33 -10 -26 14 -12 29 17 14 27 14 30 0 30 -8 0 -15
-5 -15 -12 0 -6 -3 -9 -6 -6 -3 4 2 18 11 32 19 29 15 34 -8 11z"/>
<path d="M4240 1551 c0 -6 5 -13 10 -16 6 -3 10 1 10 9 0 9 -4 16 -10 16 -5 0
-10 -4 -10 -9z"/>
<path d="M4432 1538 c-12 -29 -42 -30 -42 -2 0 8 -7 14 -15 14 -12 0 -13 -4
-5 -19 5 -11 15 -21 22 -24 7 -2 10 -8 6 -12 -5 -5 -17 0 -28 10 -29 27 -24 4
8 -33 l27 -32 24 20 c18 15 19 20 7 20 -20 0 -20 5 0 35 9 13 14 30 11 37 -3
8 -9 2 -15 -14z"/>
<path d="M4320 1540 c0 -5 5 -10 10 -10 6 0 10 5 10 10 0 6 -4 10 -10 10 -5 0
-10 -4 -10 -10z"/>
<path d="M4140 1520 c0 -5 5 -10 10 -10 6 0 10 5 10 10 0 6 -4 10 -10 10 -5 0
-10 -4 -10 -10z"/>
<path d="M3910 1510 c0 -5 5 -10 10 -10 6 0 10 5 10 10 0 6 -4 10 -10 10 -5 0
-10 -4 -10 -10z"/>
<path d="M4026 1504 c-4 -10 -1 -22 5 -28 9 -8 10 -7 6 7 -4 11 -1 17 9 17 10
0 14 -6 10 -15 -3 -8 -1 -15 5 -15 6 0 9 10 7 22 -4 28 -33 36 -42 12z"/>
<path d="M3940 1500 c0 -5 5 -10 10 -10 6 0 10 5 10 10 0 6 -4 10 -10 10 -5 0
-10 -4 -10 -10z"/>
<path d="M4130 1490 c0 -5 5 -10 10 -10 6 0 10 5 10 10 0 6 -4 10 -10 10 -5 0
-10 -4 -10 -10z"/>
<path d="M4460 1480 c0 -5 9 -10 20 -10 11 0 20 5 20 10 0 6 -9 10 -20 10 -11
0 -20 -4 -20 -10z"/>
<path d="M4145 1450 c-15 -16 -33 -27 -38 -23 -6 3 -7 1 -3 -6 6 -9 11 -9 22
0 11 9 14 9 14 -1 0 -10 3 -10 14 -1 11 9 16 9 22 0 4 -7 3 -14 -3 -16 -5 -2
-8 -16 -5 -31 l6 -27 7 25 7 25 1 -26 c1 -28 24 -54 39 -45 6 3 17 -5 26 -19
13 -20 22 -23 51 -20 21 3 35 1 35 -6 0 -5 5 -7 11 -3 18 11 -20 27 -58 26
-19 -1 -31 3 -28 7 3 5 -1 12 -7 14 -8 4 -7 6 4 6 9 1 19 -4 21 -9 3 -6 4 -5
3 2 -1 7 -18 16 -37 21 -19 5 -37 14 -41 20 -14 23 -8 79 10 93 16 13 16 13 0
14 -10 0 -18 -5 -18 -11 0 -5 -5 -7 -10 -4 -6 4 -8 11 -5 16 13 20 -13 7 -40
-21z"/>
<path d="M4040 1445 c-8 -9 -8 -15 -2 -15 12 0 26 19 19 26 -2 2 -10 -2 -17
-11z"/>
<path d="M4486 1444 c-3 -8 -10 -12 -16 -9 -5 3 -10 4 -10 1 0 -3 8 -10 19
-15 16 -9 19 -7 19 14 0 29 -3 31 -12 9z"/>
<path d="M540 1415 c-19 -14 -28 -25 -20 -26 10 0 8 -3 -5 -9 -17 -7 -17 -9
-2 -9 30 -2 19 -21 -12 -21 -17 0 -33 -5 -37 -11 -5 -9 3 -10 29 -5 32 6 35 5
30 -14 -9 -35 -48 -53 -96 -47 l-42 6 33 -12 34 -13 -26 -14 c-14 -7 -26 -19
-26 -26 0 -11 -18 -12 -74 -2 -12 2 -20 -4 -21 -14 -6 -36 105 -17 132 22 8
11 29 27 48 35 36 18 65 66 65 109 0 16 11 37 26 51 35 32 10 32 -36 0z"/>
<path d="M4251 1423 c0 -11 3 -13 6 -5 2 6 9 10 14 6 5 -3 9 0 9 5 0 6 -7 11
-15 11 -8 0 -15 -8 -14 -17z"/>
<path d="M2 1400 c0 -14 2 -19 5 -12 2 6 2 18 0 25 -3 6 -5 1 -5 -13z"/>
<path d="M4475 1390 c-3 -5 -2 -10 4 -10 5 0 13 5 16 10 3 6 2 10 -4 10 -5 0
-13 -4 -16 -10z"/>
<path d="M4122 1378 c3 -7 12 -14 21 -16 12 -2 15 1 11 12 -7 19 -38 22 -32 4z"/>
<path d="M4418 1383 c6 -2 18 -2 25 0 6 3 1 5 -13 5 -14 0 -19 -2 -12 -5z"/>
<path d="M4340 1361 c0 -5 -10 -12 -22 -15 l-23 -7 25 -11 c14 -6 27 -12 30
-12 3 -1 19 -13 35 -28 16 -16 39 -28 50 -28 16 0 13 4 -12 20 -18 11 -33 24
-33 28 0 5 -11 14 -24 22 -14 7 -22 18 -19 26 3 8 2 14 -1 14 -3 0 -6 -4 -6
-9z"/>
<path d="M4420 1365 c0 -4 7 -19 15 -35 9 -17 12 -30 8 -30 -4 0 6 -13 21 -29
15 -16 27 -32 26 -36 -1 -4 1 -9 4 -12 3 -4 6 5 6 20 0 14 -8 32 -18 39 -19
13 -38 63 -21 52 5 -3 9 -12 9 -20 0 -8 5 -12 10 -9 17 10 11 44 -9 55 -21 11
-51 14 -51 5z"/>
<path d="M330 1356 c0 -2 7 -6 15 -10 8 -3 15 -1 15 4 0 6 -7 10 -15 10 -8 0
-15 -2 -15 -4z"/>
<path d="M4047 1338 c-6 -18 25 -77 41 -78 6 0 13 6 14 13 5 39 4 67 -1 61 -3
-3 -6 -11 -6 -17 0 -7 -8 -13 -19 -15 -16 -3 -18 0 -12 22 6 26 -8 38 -17 14z"/>
<path d="M25 1329 c-4 -6 -5 -12 -2 -15 2 -3 7 2 10 11 7 17 1 20 -8 4z"/>
<path d="M4141 1309 c-16 -47 13 -84 57 -72 29 7 35 31 17 59 -18 28 -35 31
-35 8 0 -9 6 -14 13 -11 7 3 13 -5 13 -18 1 -15 -5 -25 -18 -28 -24 -7 -32 13
-24 58 8 43 -8 46 -23 4z"/>
<path d="M448 1313 c7 -3 16 -2 19 1 4 3 -2 6 -13 5 -11 0 -14 -3 -6 -6z"/>
<path d="M391 1299 c13 -8 88 -14 78 -5 -2 2 -24 6 -48 9 -29 4 -40 2 -30 -4z"/>
<path d="M378 1253 c7 -3 16 -2 19 1 4 3 -2 6 -13 5 -11 0 -14 -3 -6 -6z"/>
<path d="M4239 1244 c-7 -9 -22 -20 -34 -24 -17 -7 -18 -9 -4 -15 19 -7 81 25
87 45 4 12 2 13 -9 3 -16 -15 -33 -17 -24 -3 10 16 -1 12 -16 -6z"/>
<path d="M4337 1252 c-22 -5 -12 -22 14 -22 10 0 19 -4 19 -10 0 -5 -4 -10
-10 -10 -5 0 -6 -8 -3 -17 4 -11 8 -12 11 -5 4 14 32 16 32 3 0 -6 -5 -13 -10
-16 -6 -4 -8 -11 -5 -16 3 -5 -1 -6 -9 -3 -9 3 -25 21 -37 40 -24 39 -29 42
-22 14 3 -11 10 -20 15 -20 6 0 8 -9 5 -20 -3 -11 -1 -23 4 -26 5 -3 7 -9 4
-14 -3 -5 8 -2 25 6 16 9 32 19 35 25 4 5 16 2 30 -7 15 -10 25 -11 29 -5 4 6
-4 13 -18 17 -19 5 -24 12 -24 35 1 24 5 29 25 29 12 0 23 4 23 9 0 6 -12 6
-32 0 -40 -11 -40 -11 -34 0 6 10 -39 19 -67 13z"/>
<path d="M4051 1211 c-27 -5 -31 -8 -20 -17 8 -6 30 -14 51 -17 29 -4 37 -2
41 13 4 17 -13 32 -31 29 -4 -1 -22 -4 -41 -8z"/>
<path d="M140 1194 c0 -8 5 -12 10 -9 6 3 10 10 10 16 0 5 -4 9 -10 9 -5 0
-10 -7 -10 -16z"/>
<path d="M3940 1185 c14 -8 33 -14 42 -15 9 0 18 -5 20 -12 2 -6 10 -8 16 -4
17 10 15 26 -3 26 -8 0 -15 5 -15 10 0 6 -19 10 -42 10 -42 -1 -43 -1 -18 -15z"/>
<path d="M78 1171 c12 -11 22 -29 22 -41 0 -29 34 -23 38 8 3 18 -4 26 -32 37
-47 20 -56 18 -28 -4z"/>
<path d="M4202 1168 c-7 -7 -12 -8 -12 -4 0 5 -7 3 -15 -4 -8 -7 -22 -10 -30
-6 -10 4 -15 -1 -15 -15 0 -17 -5 -20 -21 -16 -17 5 -20 2 -16 -14 3 -11 -1
-23 -11 -28 -14 -8 -14 -12 -3 -25 12 -15 16 -12 32 25 11 23 28 43 39 46 11
3 20 9 20 14 0 5 11 9 24 9 26 0 43 15 28 24 -5 3 -14 0 -20 -6z"/>
<path d="M4492 1135 c0 -16 2 -22 5 -12 2 9 2 23 0 30 -3 6 -5 -1 -5 -18z"/>
<path d="M4013 1124 c-12 -32 63 -134 87 -119 5 3 17 -6 28 -20 14 -17 22 -21
25 -13 7 18 47 -31 40 -49 -3 -7 0 -13 6 -13 6 0 11 4 11 9 0 5 3 16 6 25 4
11 0 16 -12 16 -9 0 -15 3 -11 6 7 7 -81 54 -100 54 -16 0 -44 41 -36 53 3 6
1 7 -5 3 -7 -4 -12 -1 -12 8 0 11 6 13 18 9 16 -7 16 -6 -1 11 -9 10 -15 22
-12 27 4 5 -1 9 -10 9 -8 0 -18 -7 -22 -16z"/>
<path d="M4230 1125 c7 -8 17 -15 22 -15 6 0 5 7 -2 15 -7 8 -17 15 -22 15 -6
0 -5 -7 2 -15z"/>
<path d="M4380 1115 c0 -8 -4 -15 -8 -15 -5 0 -15 -11 -22 -25 -7 -14 -19 -25
-27 -25 -20 0 -16 20 6 28 16 6 17 9 5 20 -11 10 -14 10 -14 1 0 -7 -10 -23
-22 -36 -18 -19 -19 -23 -5 -17 13 5 16 2 11 -11 -5 -13 -3 -16 7 -13 8 3 24
1 37 -3 18 -7 22 -5 22 10 0 19 38 44 61 40 8 -1 21 0 29 4 8 3 22 8 30 11 8
4 -6 4 -32 1 -33 -3 -50 0 -58 10 -10 12 -9 15 3 15 9 0 19 5 22 10 4 6 -5 10
-19 10 -16 0 -26 -6 -26 -15z"/>
<path d="M390 1108 c-19 -4 -51 -6 -70 -3 -23 3 -49 -2 -75 -15 -39 -19 -23
-22 30 -5 13 4 28 -1 43 -16 26 -23 40 -20 91 22 30 24 26 28 -19 17z"/>
<path d="M4180 1108 c0 -9 5 -20 11 -23 6 -4 8 -13 5 -21 -3 -7 -1 -16 4 -19
15 -9 11 27 -5 55 -10 18 -14 20 -15 8z"/>
<path d="M0 1095 c0 -3 11 -17 24 -31 16 -18 26 -22 31 -15 3 6 -4 20 -17 31
-23 19 -38 25 -38 15z"/>
<path d="M74 1073 c3 -30 20 -38 53 -26 33 13 13 53 -26 53 -26 0 -29 -3 -27
-27z"/>
<path d="M3826 1075 c4 -8 11 -15 16 -15 6 0 5 6 -2 15 -7 8 -14 15 -16 15 -2
0 -1 -7 2 -15z"/>
<path d="M3697 1063 c-10 -9 -9 -23 2 -23 5 0 11 7 15 15 5 15 -5 20 -17 8z"/>
<path d="M3767 1063 c-10 -10 -8 -35 2 -29 5 4 12 0 14 -6 4 -10 6 -10 6 0 1
6 5 12 10 12 5 0 7 -10 4 -22 -3 -13 -1 -19 4 -13 4 6 15 10 23 10 20 0 25 31
5 33 -8 1 -23 3 -32 4 -10 0 -21 5 -24 10 -3 4 -8 5 -12 1z"/>
<path d="M4154 1055 c-3 -8 -4 -20 -1 -27 4 -8 6 -6 6 5 1 9 6 17 11 17 6 0
10 5 10 10 0 15 -20 12 -26 -5z"/>
<path d="M272 1051 c-7 -4 -35 -6 -63 -3 -37 3 -49 1 -49 -9 0 -15 16 -27 81
-60 32 -18 37 -24 29 -39 -21 -40 -86 -35 -133 8 -15 14 -27 21 -27 15 0 -7
14 -21 31 -33 34 -25 33 -38 -3 -19 -12 7 -28 12 -35 11 -6 -1 -18 7 -26 18
-15 21 -29 17 -20 -6 7 -19 55 -44 85 -45 70 -3 123 9 141 32 10 13 32 39 48
57 16 19 29 38 29 43 0 5 9 9 21 9 11 0 18 4 14 10 -4 6 -15 6 -32 -1 -15 -5
-32 -8 -38 -5 -7 2 -18 0 -26 -5 -11 -7 -9 -9 9 -9 26 0 28 -7 6 -31 -14 -16
-17 -16 -41 7 -14 13 -31 24 -37 24 -6 0 3 -9 19 -20 17 -11 26 -20 21 -20 -9
0 -96 48 -96 53 0 1 22 2 50 2 27 1 55 6 62 13 14 14 0 16 -20 3z"/>
<path d="M3725 1050 c-4 -6 -3 -16 3 -22 6 -6 12 -6 17 2 4 6 3 16 -3 22 -6 6
-12 6 -17 -2z"/>
<path d="M3955 1050 c3 -5 12 -7 20 -3 11 4 13 1 9 -11 -3 -9 -2 -16 4 -16 14
0 33 26 25 33 -10 11 -65 8 -58 -3z"/>
<path d="M4116 1051 c-4 -7 -5 -15 -2 -18 9 -9 19 4 14 18 -4 11 -6 11 -12 0z"/>
<path d="M4484 1048 c-11 -17 -13 -48 -4 -53 8 -5 23 55 16 62 -2 2 -8 -2 -12
-9z"/>
<path d="M19 1027 c24 -27 24 -27 5 -41 -10 -8 -16 -18 -11 -22 4 -4 7 -2 7 5
0 7 5 9 11 6 7 -5 2 -16 -12 -31 -12 -13 -20 -26 -17 -30 9 -8 50 55 43 66 -4
6 6 7 26 3 24 -4 30 -3 25 6 -4 6 -2 19 6 28 11 14 10 15 -10 9 -15 -5 -22 -3
-22 6 0 10 -2 10 -9 -1 -7 -11 -14 -10 -37 5 l-29 18 24 -27z"/>
<path d="M3663 1025 c-7 -20 -5 -21 35 -30 38 -8 43 6 10 29 -28 20 -37 20
-45 1z"/>
<path d="M4446 1027 c3 -10 9 -15 12 -12 3 3 0 11 -7 18 -10 9 -11 8 -5 -6z"/>
<path d="M3856 1014 c-8 -22 1 -31 16 -16 9 9 9 15 1 23 -7 7 -12 5 -17 -7z"/>
<path d="M4255 1008 c-21 -12 -36 -30 -31 -36 2 -2 18 6 36 16 33 21 29 38 -5
20z"/>
<path d="M4410 1005 c7 -8 17 -15 22 -15 5 0 3 7 -6 15 -8 8 -18 15 -22 15 -3
0 -1 -7 6 -15z"/>
<path d="M182 985 c20 -14 40 -25 45 -25 4 0 -9 11 -29 25 -20 14 -40 25 -45
25 -4 0 9 -11 29 -25z"/>
<path d="M3757 1003 c-4 -3 -7 -11 -7 -17 0 -6 5 -5 12 2 6 6 9 14 7 17 -3 3
-9 2 -12 -2z"/>
<path d="M145 975 c17 -14 34 -25 39 -25 6 0 -5 11 -24 25 -43 32 -54 32 -15
0z"/>
<path d="M3858 982 c-16 -10 -28 -21 -28 -25 0 -5 4 -5 10 -2 5 3 20 8 32 10
12 3 29 11 37 20 14 13 13 15 -4 14 -11 0 -32 -8 -47 -17z"/>
<path d="M3946 975 c4 -15 2 -25 -5 -25 -6 0 -11 8 -11 17 0 14 -3 13 -16 -5
-9 -13 -13 -30 -9 -40 3 -9 9 -12 13 -7 4 6 18 16 31 24 22 12 26 11 43 -9 19
-24 24 -11 8 21 -7 13 -7 19 0 19 5 0 10 -5 10 -11 0 -6 7 -9 15 -5 23 8 45
-4 38 -21 -4 -11 -2 -14 5 -9 17 10 15 46 -3 52 -8 4 -12 10 -9 15 3 5 0 9 -5
9 -6 0 -11 -7 -11 -15 0 -8 -4 -15 -9 -15 -5 0 -16 7 -25 15 -19 20 -22 19
-31 -7 l-8 -23 -4 23 c-2 12 -9 22 -14 22 -5 0 -7 -11 -3 -25z"/>
<path d="M3810 979 c0 -5 5 -7 10 -4 6 3 10 8 10 11 0 2 -4 4 -10 4 -5 0 -10
-5 -10 -11z"/>
<path d="M4310 971 c0 -11 -3 -26 -6 -34 -3 -8 1 -17 8 -19 10 -4 12 4 10 33
-4 40 -12 54 -12 20z"/>
<path d="M3762 968 c-7 -7 -12 -21 -12 -32 0 -17 2 -18 10 -6 5 8 10 10 10 3
0 -6 -14 -23 -32 -38 -27 -23 -30 -30 -22 -53 10 -28 39 -39 63 -23 7 5 10 14
6 21 -6 9 -9 9 -15 0 -4 -7 -15 -10 -23 -7 -20 7 -11 44 14 60 11 7 19 19 19
27 0 9 5 21 11 27 11 11 5 33 -10 33 -4 0 -12 -5 -19 -12z"/>
<path d="M4291 968 c-1 -11 -8 -15 -23 -12 l-23 5 23 -12 c26 -14 36 -8 29 18
-4 15 -5 15 -6 1z"/>
<path d="M4363 966 c4 -10 2 -27 -4 -38 -7 -13 -7 -18 -1 -14 6 3 13 2 17 -4
3 -6 0 -13 -8 -16 -15 -5 -31 -44 -18 -44 3 0 12 9 19 20 6 11 17 17 24 15 7
-3 18 6 24 19 10 21 7 27 -24 52 -26 20 -34 23 -29 10z m32 -36 c3 -5 -1 -10
-9 -10 -9 0 -16 5 -16 10 0 6 4 10 9 10 6 0 13 -4 16 -10z"/>
<path d="M3706 963 c-4 -4 -15 -8 -24 -8 -10 0 -18 -9 -20 -22 -2 -13 1 -23 7
-23 6 0 11 6 11 14 0 8 14 17 30 21 17 4 28 11 24 16 -6 11 -18 12 -28 2z"/>
<path d="M80 956 c0 -2 7 -9 15 -16 13 -11 14 -10 9 4 -5 14 -24 23 -24 12z"/>
<path d="M3807 933 c-3 -5 -3 -23 -1 -41 3 -23 0 -31 -8 -26 -7 4 -8 3 -4 -4
11 -18 26 -14 26 5 0 15 2 14 15 -3 8 -10 14 -14 14 -9 1 6 -8 21 -19 35 -11
14 -20 29 -20 33 0 9 91 -41 101 -55 3 -4 20 -9 37 -11 35 -4 69 -27 41 -27
-8 0 -25 -9 -37 -20 -11 -11 -28 -17 -36 -14 -10 4 -16 1 -16 -9 0 -25 37 -30
64 -10 14 10 26 23 26 29 0 7 10 15 23 18 21 6 21 7 5 20 -10 7 -18 23 -18 34
0 17 -5 21 -26 20 -15 -2 -28 -8 -31 -15 -3 -8 -16 -5 -44 12 -21 14 -43 25
-49 25 -5 0 -10 5 -10 10 0 12 -27 14 -33 3z"/>
<path d="M3231 912 c11 -8 29 -12 39 -9 16 4 30 -10 30 -29 0 -9 -39 -4 -45 6
-12 19 -23 10 -29 -26 -8 -39 9 -74 51 -107 17 -14 23 -29 23 -57 0 -33 -3
-37 -20 -33 -11 3 -20 10 -20 15 0 5 5 6 10 3 6 -3 10 -1 10 5 0 6 -8 9 -18 6
-16 -5 -18 -2 -14 22 2 18 -4 37 -18 55 -18 23 -29 27 -69 27 -39 0 -56 -6
-86 -30 -21 -16 -46 -30 -56 -30 -11 0 -19 -4 -19 -10 0 -5 15 -10 33 -10 17
0 48 -4 67 -9 19 -5 55 -12 80 -14 31 -3 51 -12 65 -29 12 -13 26 -23 33 -20
8 2 12 -12 12 -45 1 -26 7 -59 15 -73 14 -25 14 -25 21 18 3 23 10 42 15 42 5
0 9 -4 9 -10 0 -19 67 -10 101 13 24 17 34 31 34 49 -1 24 2 26 30 21 16 -3
31 -7 33 -8 7 -6 -31 -85 -42 -85 -8 0 -8 -2 1 -8 8 -5 8 -13 -2 -32 -11 -20
-15 -21 -16 -7 -1 9 -3 22 -4 27 -1 6 -3 13 -4 17 0 4 -5 3 -11 -3 -6 -6 -6
-21 -1 -40 5 -18 5 -37 -1 -47 -17 -32 6 -17 50 30 38 43 42 52 37 84 -7 49 7
58 101 66 67 5 82 3 93 -11 13 -15 12 -16 -13 -6 -47 17 -53 11 -11 -13 35
-20 41 -21 46 -8 4 9 3 21 -2 27 -6 7 10 11 51 13 64 2 72 -5 40 -34 -17 -16
-24 -16 -48 -6 -20 9 -24 9 -15 1 8 -9 3 -19 -23 -42 -43 -38 -44 -52 0 -30
22 11 30 20 22 25 -7 6 -6 7 4 4 8 -2 14 -11 14 -20 -1 -9 2 -14 7 -12 4 3 15
-8 24 -25 8 -16 20 -30 25 -30 15 0 12 30 -4 36 -8 3 -17 16 -20 30 -5 19 2
35 31 69 38 46 53 55 53 32 0 -8 11 -19 25 -25 25 -11 25 -11 10 12 -10 15
-13 33 -8 56 5 29 4 32 -11 27 -14 -6 -16 -3 -11 14 5 15 4 19 -4 15 -6 -4
-11 -22 -11 -40 0 -32 -2 -34 -46 -40 -70 -9 -144 -7 -144 4 0 6 -7 10 -16 10
-8 0 -12 -4 -9 -10 13 -21 -6 -9 -45 29 -38 36 -39 39 -27 70 17 46 -14 102
-63 113 -19 5 -44 13 -54 19 -16 9 -18 8 -13 -5 4 -9 2 -25 -5 -35 -9 -15 -5
-28 23 -71 19 -29 33 -57 32 -62 -2 -4 1 -8 6 -8 4 0 7 -12 5 -27 -2 -16 -1
-21 2 -12 3 9 16 22 29 29 22 12 28 11 45 -5 11 -10 20 -25 20 -33 0 -13 -14
-14 -92 -9 -110 8 -146 16 -126 28 9 6 7 9 -9 9 -33 0 -28 14 17 56 46 43 48
50 17 56 -32 6 -100 -25 -86 -39 8 -8 5 -18 -10 -34 -28 -30 -27 -36 10 -44
39 -9 27 -22 -28 -31 l-43 -7 4 30 c1 17 13 40 25 52 26 26 22 64 -9 93 -16
15 -20 15 -31 2 -19 -23 -22 -9 -5 19 9 13 14 32 10 41 -6 17 3 20 30 10 10
-4 16 -18 16 -39 0 -19 8 -39 20 -50 17 -15 20 -16 20 -3 0 9 -7 21 -15 28 -8
7 -15 19 -15 27 0 12 3 13 13 4 8 -6 16 -8 19 -5 3 2 8 -2 12 -11 4 -10 2 -14
-5 -9 -7 4 -10 1 -7 -6 2 -8 10 -16 17 -18 22 -7 8 51 -15 63 -12 6 -30 17
-39 25 -12 10 -42 15 -81 16 -58 1 -62 -1 -43 -14z m321 -90 c-3 -17 -7 -21
-10 -12 -3 8 -9 18 -15 21 -5 4 -6 17 -2 30 7 21 9 21 20 6 7 -9 10 -29 7 -45z
m-287 28 c-10 -17 14 -50 32 -43 11 4 14 3 9 -5 -4 -7 -1 -12 9 -12 9 0 13 -4
10 -10 -3 -5 0 -10 7 -10 8 0 5 -5 -5 -11 -16 -9 -25 -5 -51 20 -33 32 -42 60
-22 73 15 10 18 10 11 -2z m333 -2 c15 -20 24 -75 13 -82 -6 -4 -8 -13 -4 -21
3 -8 0 -15 -6 -15 -6 0 -11 5 -11 10 0 6 -6 10 -14 10 -19 0 -24 27 -12 73 11
39 18 44 34 25z m-151 -63 c0 -8 -2 -13 -5 -10 -3 2 -13 0 -23 -6 -23 -12 -24
-6 -3 15 19 20 31 20 31 1z m-254 -19 c5 5 37 -47 37 -61 0 -3 -12 -5 -26 -5
-17 0 -23 4 -18 13 5 9 4 9 -5 1 -13 -12 -71 -6 -71 7 0 5 -7 6 -15 2 -10 -3
-15 0 -13 8 5 24 22 29 48 12 15 -9 20 -10 13 -2 -22 23 -14 30 15 12 l27 -17
-20 23 -20 24 21 -11 c12 -6 24 -9 27 -6z m207 -57 c0 -6 -4 -7 -10 -4 -5 3
-10 11 -10 16 0 6 5 7 10 4 6 -3 10 -11 10 -16z m69 -68 c9 -16 4 -20 -50 -33
-33 -8 -62 -11 -65 -6 -3 4 -1 8 4 8 5 0 14 11 20 25 9 20 19 25 46 25 24 0
38 -6 45 -19z m-122 -16 c-10 -20 -37 -36 -37 -21 0 2 -3 11 -6 19 -3 10 2 17
13 20 39 10 42 8 30 -18z m83 -29 c0 -2 -7 -6 -15 -10 -8 -3 -15 -1 -15 4 0 6
7 10 15 10 8 0 15 -2 15 -4z"/>
<path d="M3690 918 c0 -4 9 -8 20 -8 11 0 20 4 20 9 0 6 -9 9 -20 8 -11 -1
-20 -5 -20 -9z"/>
<path d="M4030 916 c0 -8 5 -18 10 -21 6 -3 10 3 10 14 0 12 -4 21 -10 21 -5
0 -10 -6 -10 -14z"/>
<path d="M4131 921 c-9 -6 -10 -11 -2 -15 13 -8 5 -26 -10 -26 -6 0 -7 5 -3
12 5 7 2 9 -9 5 -9 -3 -18 -1 -20 6 -2 7 -7 9 -11 5 -7 -6 30 -88 40 -88 2 0
0 10 -7 21 -8 16 -8 20 1 14 6 -4 18 1 26 11 14 18 15 17 9 -8 -3 -16 -1 -28
5 -28 5 0 10 4 10 10 0 5 6 7 14 4 8 -3 19 3 25 14 13 25 3 35 -16 16 -18 -18
-22 -15 -29 22 -6 35 -6 35 -23 25z"/>
<path d="M4448 923 c7 -3 16 -2 19 1 4 3 -2 6 -13 5 -11 0 -14 -3 -6 -6z"/>
<path d="M4472 907 c-32 -34 -28 -58 4 -25 15 14 25 31 22 38 -2 7 -12 2 -26
-13z"/>
<path d="M4290 899 c0 -5 5 -7 10 -4 6 3 10 8 10 11 0 2 -4 4 -10 4 -5 0 -10
-5 -10 -11z"/>
<path d="M4010 888 c0 -17 57 -54 67 -44 3 3 -3 9 -13 13 -10 4 -27 16 -36 28
-15 17 -17 18 -18 3z"/>
<path d="M4225 890 c26 -11 45 -12 45 -2 0 4 -15 8 -32 9 -27 2 -29 0 -13 -7z"/>
<path d="M4302 881 c-10 -6 -10 -10 3 -21 13 -11 15 -9 15 9 0 24 0 24 -18 12z"/>
<path d="M4481 866 c-9 -10 -8 -15 4 -20 10 -4 15 1 15 14 0 24 -4 25 -19 6z"/>
<path d="M71 839 c-6 -18 -11 -41 -11 -51 0 -11 -4 -17 -9 -14 -5 3 -9 -10 -9
-30 0 -35 0 -35 16 -13 8 12 16 42 18 66 1 24 7 50 14 58 7 9 8 15 2 15 -5 0
-15 -14 -21 -31z"/>
<path d="M37 843 c-4 -3 -7 -13 -7 -22 1 -13 3 -13 11 2 11 19 8 33 -4 20z"/>
<path d="M3853 834 c-3 -8 -12 -13 -19 -10 -7 3 -16 1 -19 -4 -4 -6 3 -10 14
-10 11 0 23 -5 27 -12 5 -8 2 -9 -9 -5 -10 3 -17 2 -17 -3 0 -6 -11 -10 -25
-10 -27 0 -32 -9 -13 -28 17 -17 38 -15 38 3 0 21 13 19 28 -5 14 -24 32 -26
32 -5 0 8 -4 15 -9 15 -5 0 -9 16 -8 35 1 35 11 46 20 23 4 -10 6 -10 6 0 1 6
10 12 21 12 11 0 20 5 20 10 0 17 -80 12 -87 -6z"/>
<path d="M4330 831 c0 -21 13 -41 27 -41 10 0 13 6 9 16 -3 9 -6 20 -6 25 0 5
-7 9 -15 9 -8 0 -15 -4 -15 -9z"/>
<path d="M137 801 c-4 -17 -3 -21 5 -13 5 5 8 16 6 23 -3 8 -7 3 -11 -10z"/>
<path d="M4027 812 c-14 -3 -9 -10 23 -33 38 -28 88 -40 75 -19 -4 6 -10 8
-15 5 -5 -3 -11 -1 -15 5 -4 6 -11 8 -16 5 -5 -4 -9 -2 -9 3 0 16 13 22 25 12
14 -11 45 -3 45 11 0 5 -10 9 -22 10 -13 0 -34 1 -48 2 -14 2 -33 1 -43 -1z"/>
<path d="M176 797 c3 -10 9 -15 12 -12 3 3 0 11 -7 18 -10 9 -11 8 -5 -6z"/>
<path d="M232 775 c0 -16 2 -22 5 -12 2 9 2 23 0 30 -3 6 -5 -1 -5 -18z"/>
<path d="M290 789 c0 -6 9 -9 19 -6 17 4 18 2 9 -24 -7 -22 -7 -33 2 -44 10
-12 9 -15 -8 -15 -25 0 -41 38 -21 51 7 4 10 12 5 16 -4 4 -16 -3 -27 -16 -22
-27 -24 -41 -7 -41 6 0 19 -7 29 -16 30 -27 54 -10 54 36 0 25 6 45 15 51 12
9 12 10 -2 5 -10 -3 -18 -1 -18 4 0 6 -11 10 -25 10 -14 0 -25 -5 -25 -11z"/>
<path d="M406 737 c-11 -17 -20 -34 -20 -37 -1 -3 -5 -11 -10 -18 -9 -16 2
-31 12 -17 4 6 19 16 35 22 15 7 27 20 27 29 0 11 6 15 20 11 11 -3 20 -2 20
3 0 13 -29 32 -40 25 -5 -3 -10 -1 -10 4 0 20 -15 11 -34 -22z m32 -19 c-3
-14 -18 -28 -31 -28 -4 0 -2 9 5 20 14 22 29 27 26 8z"/>
<path d="M93 741 c-10 -11 -24 -27 -32 -36 -7 -9 -20 -14 -30 -10 -13 5 -14 4
-3 -6 6 -7 12 -21 12 -31 0 -11 5 -15 15 -12 8 4 15 10 15 16 0 5 -4 6 -10 3
-6 -3 -10 -1 -10 4 0 15 10 14 29 -3 13 -11 21 -11 46 0 30 13 30 13 4 14 -32
0 -38 6 -32 30 11 41 62 27 110 -29 11 -15 24 -23 28 -19 4 3 -10 21 -29 39
-34 31 -44 56 -11 29 20 -16 19 -6 -1 14 -22 22 -80 20 -101 -3z"/>
<path d="M0 691 c0 -35 2 -62 5 -59 10 9 12 96 4 110 -5 8 -9 -12 -9 -51z"/>
<path d="M4193 705 c-7 -8 -13 -21 -13 -29 0 -28 15 -23 31 10 17 35 6 47 -18
19z"/>
<path d="M4295 700 c-4 -12 -5 -24 -2 -27 3 -2 8 5 12 17 4 12 5 24 2 27 -3 2
-8 -5 -12 -17z"/>
<path d="M4430 706 c0 -8 3 -22 6 -31 6 -14 8 -13 18 7 9 16 9 25 2 30 -17 12
-26 9 -26 -6z"/>
<path d="M475 699 c-11 -4 -14 -8 -7 -8 6 -1 12 -9 12 -18 0 -12 3 -14 11 -6
18 18 7 41 -16 32z"/>
<path d="M4113 688 c-2 -16 1 -17 13 -8 17 15 17 17 1 23 -8 3 -14 -3 -14 -15z"/>
<path d="M823 686 c3 -8 0 -36 -7 -61 -8 -25 -12 -62 -9 -83 2 -20 0 -57 -6
-82 -8 -36 -7 -48 5 -61 20 -22 18 -29 -17 -72 -17 -20 -27 -37 -23 -37 15 0
74 45 74 56 0 6 7 17 15 24 9 7 13 15 11 18 -3 2 8 24 24 47 47 69 72 163 44
172 -5 1 -10 -20 -11 -48 -2 -69 -9 -85 -28 -69 -8 7 -15 21 -15 31 0 11 -4
19 -10 19 -8 0 -6 -42 6 -78 2 -7 -1 -10 -6 -7 -6 4 -10 -7 -10 -24 0 -24 -4
-31 -20 -31 -18 0 -20 7 -20 69 0 44 4 71 12 73 8 3 11 25 9 66 -1 34 2 62 7
62 19 0 53 -99 47 -138 -5 -36 -5 -36 6 -8 19 48 -16 142 -63 167 -18 10 -20
9 -15 -5z"/>
<path d="M160 669 c0 -5 5 -7 10 -4 6 3 10 8 10 11 0 2 -4 4 -10 4 -5 0 -10
-5 -10 -11z"/>
<path d="M250 664 c0 -8 5 -12 10 -9 6 3 10 10 10 16 0 5 -4 9 -10 9 -5 0 -10
-7 -10 -16z"/>
<path d="M3103 652 l-22 -30 42 5 c90 9 107 14 107 30 0 11 -5 13 -17 8 -10
-5 -32 -10 -50 -13 -23 -3 -32 0 -35 13 -2 13 -8 11 -25 -13z"/>
<path d="M406 639 c-4 -24 -2 -35 11 -46 16 -13 16 -14 -9 -8 -21 4 -28 2 -28
-10 0 -9 4 -14 9 -11 5 4 12 0 15 -6 3 -10 8 -8 16 4 6 11 17 15 28 11 14 -6
15 -4 5 9 -7 8 -10 18 -6 21 3 4 -3 7 -15 7 -12 0 -22 5 -22 10 0 6 14 10 30
10 32 0 42 23 14 34 -23 9 -26 8 -18 -6 6 -10 4 -10 -8 0 -13 11 -16 8 -22
-19z"/>
<path d="M214 645 c11 -8 25 -15 30 -15 6 0 2 7 -8 15 -11 8 -25 15 -30 15 -6
0 -2 -7 8 -15z"/>
<path d="M270 650 c0 -5 4 -10 9 -10 6 0 13 5 16 10 3 6 -1 10 -9 10 -9 0 -16
-4 -16 -10z"/>
<path d="M335 650 c-3 -5 -1 -10 4 -10 6 0 11 5 11 10 0 6 -2 10 -4 10 -3 0
-8 -4 -11 -10z"/>
<path d="M303 643 c-10 -3 -9 -12 4 -36 9 -19 18 -27 21 -19 2 7 -1 19 -8 27
-6 8 -9 19 -5 25 7 11 6 11 -12 3z"/>
<path d="M350 635 l-25 -14 26 -1 c16 0 26 5 26 15 0 8 -1 15 -1 15 -1 -1 -12
-7 -26 -15z"/>
<path d="M773 633 c-3 -10 -7 -21 -9 -24 -2 -3 2 -6 9 -6 7 0 13 11 13 24 2
27 -4 30 -13 6z"/>
<path d="M50 620 c-14 -10 -22 -22 -18 -25 3 -4 16 3 28 15 28 28 22 34 -10
10z"/>
<path d="M107 619 c-3 -12 -10 -18 -16 -14 -6 3 -11 2 -11 -3 0 -5 15 -8 33
-6 17 1 37 3 43 3 5 1 19 8 30 16 18 14 17 14 -9 5 -16 -5 -36 -10 -45 -10
-15 1 -15 3 2 15 19 15 19 15 -1 15 -13 0 -23 -8 -26 -21z"/>
<path d="M4481 623 c-1 -16 -7 -23 -21 -23 -11 0 -20 -5 -20 -11 0 -7 10 -9
27 -4 36 9 35 8 24 36 -10 24 -10 24 -10 2z"/>
<path d="M254 606 c-11 -25 -2 -57 13 -43 4 5 1 12 -7 17 -16 10 -8 14 23 11
20 -3 22 10 5 27 -17 17 -21 15 -34 -12z"/>
<path d="M730 614 c0 -8 5 -12 10 -9 6 3 10 10 10 16 0 5 -4 9 -10 9 -5 0 -10
-7 -10 -16z"/>
<path d="M602 608 c-12 -15 -33 -90 -27 -96 2 -3 9 8 16 24 28 72 34 74 72 29
l28 -34 -43 -11 c-24 -6 -51 -15 -60 -20 -10 -6 -29 -10 -43 -10 -22 0 -24 -3
-15 -19 6 -13 7 -22 0 -26 -14 -9 -42 54 -36 81 6 22 26 35 26 16 0 -4 10 -8
23 -9 l22 -2 -24 20 c-33 27 -51 21 -65 -21 -7 -19 -17 -34 -24 -32 -16 3 -15
-10 4 -58 9 -22 22 -40 30 -40 19 0 18 6 -7 39 -20 27 -19 51 1 51 4 0 16 -21
26 -46 14 -38 19 -43 25 -28 21 51 85 93 142 94 9 0 17 4 17 10 0 5 12 21 26
35 14 14 23 29 19 33 -3 4 -14 -4 -24 -16 l-17 -24 -28 36 c-28 38 -47 44 -64
24z"/>
<path d="M3 580 c0 -17 3 -30 6 -30 24 -1 31 -18 17 -46 -8 -16 -17 -40 -21
-53 -11 -36 12 -17 31 27 8 20 19 44 23 52 9 20 2 52 -10 44 -6 -3 -18 3 -28
15 -18 20 -18 20 -18 -9z"/>
<path d="M210 599 c0 -5 5 -7 10 -4 6 3 10 8 10 11 0 2 -4 4 -10 4 -5 0 -10
-5 -10 -11z"/>
<path d="M4030 600 c-36 -3 -58 -9 -50 -13 47 -21 72 -26 92 -17 13 5 19 9 14
9 -5 1 -3 8 4 16 7 8 11 14 9 13 -2 -1 -33 -4 -69 -8z"/>
<path d="M4180 601 c0 -6 5 -13 10 -16 6 -3 10 1 10 9 0 9 -4 16 -10 16 -5 0
-10 -4 -10 -9z"/>
<path d="M154 585 c-24 -18 -7 -19 26 0 16 9 19 14 9 15 -8 0 -24 -7 -35 -15z"/>
<path d="M3895 591 c3 -5 -4 -12 -15 -16 -26 -8 -26 -29 0 -22 10 3 21 0 23
-7 3 -8 8 -8 17 1 10 9 10 15 2 26 -7 8 -9 17 -5 20 3 4 -1 7 -11 7 -9 0 -15
-4 -11 -9z"/>
<path d="M4120 585 c0 -13 4 -14 20 -5 11 6 20 13 20 15 0 3 -9 5 -20 5 -11 0
-20 -7 -20 -15z"/>
<path d="M100 581 c-8 -6 -18 -7 -23 -4 -5 3 -7 0 -5 -8 3 -8 16 -14 29 -14
14 0 23 -5 22 -12 -2 -7 2 -13 7 -13 6 0 10 7 10 15 0 8 -5 15 -11 15 -6 0 -9
7 -5 15 6 17 -2 19 -24 6z"/>
<path d="M209 563 c-8 -11 -17 -21 -21 -22 -21 -4 -80 -46 -89 -62 -5 -11 -16
-18 -23 -17 -19 4 -75 -59 -64 -70 6 -6 6 -12 -1 -16 -20 -13 -11 -34 19 -44
31 -11 55 3 30 18 -10 6 -9 9 1 13 10 4 7 8 -9 12 -26 9 -26 6 -7 41 8 15 21
29 29 30 8 1 38 21 66 45 39 33 53 40 59 30 6 -9 11 -10 15 -2 4 6 1 11 -6 11
-8 1 -6 6 6 15 10 7 16 19 14 26 -3 9 -9 6 -19 -8z m-174 -203 c-3 -5 -10 -10
-16 -10 -5 0 -9 5 -9 10 0 6 7 10 16 10 8 0 12 -4 9 -10z"/>
<path d="M290 566 c0 -8 5 -18 10 -21 6 -3 10 1 10 9 0 8 -4 18 -10 21 -5 3
-10 -1 -10 -9z"/>
<path d="M3950 565 c0 -8 4 -15 10 -15 5 0 7 7 4 15 -4 8 -8 15 -10 15 -2 0
-4 -7 -4 -15z"/>
<path d="M4160 570 c0 -5 5 -10 10 -10 6 0 10 5 10 10 0 6 -4 10 -10 10 -5 0
-10 -4 -10 -10z"/>
<path d="M340 562 c0 -6 6 -13 13 -15 9 -4 9 -7 0 -14 -11 -8 -7 -53 4 -53 3
0 14 11 24 25 12 14 26 22 34 18 8 -3 15 0 15 7 0 6 -10 10 -24 8 -13 -1 -33
6 -45 16 -12 11 -21 14 -21 8z m40 -42 c0 -5 -4 -10 -10 -10 -5 0 -10 5 -10
10 0 6 5 10 10 10 6 0 10 -4 10 -10z"/>
<path d="M4190 545 c-8 -9 -21 -13 -36 -9 -18 5 -24 2 -24 -11 0 -14 6 -16 43
-10 50 8 63 18 44 34 -11 9 -17 8 -27 -4z"/>
<path d="M248 544 c-3 -5 -4 -17 -2 -28 1 -10 -2 -30 -7 -43 -6 -18 -6 -30 2
-40 8 -9 9 -17 2 -24 -6 -6 -19 -1 -36 15 -21 20 -34 24 -57 19 -16 -3 -27 -9
-24 -14 3 -5 15 -4 27 3 20 10 21 10 8 -6 -8 -10 -14 -33 -13 -51 3 -37 -25
-65 -65 -65 -13 0 -23 -4 -23 -9 0 -11 49 -11 56 0 2 4 10 6 17 3 7 -2 22 5
33 17 10 13 13 19 7 15 -9 -5 -13 0 -12 16 0 13 3 18 5 11 3 -7 12 -9 20 -6
12 4 12 7 -2 18 -13 9 -14 14 -4 20 7 4 16 2 21 -6 7 -11 9 -11 9 -1 0 8 7 11
19 7 10 -3 24 1 31 10 7 8 9 15 5 15 -4 0 -2 7 5 15 7 9 9 22 5 32 -5 10 -7
26 -6 35 3 21 -14 54 -21 42z m12 -90 c0 -8 -5 -12 -10 -9 -6 4 -8 11 -5 16 9
14 15 11 15 -7z"/>
<path d="M4247 544 c-4 -4 7 -24 23 -44 26 -33 28 -39 15 -50 -18 -15 -20 -30
-4 -30 15 0 38 31 39 50 0 8 -12 26 -25 39 -14 13 -25 27 -25 32 0 10 -14 12
-23 3z"/>
<path d="M4015 530 c-3 -5 -1 -10 4 -10 6 0 11 5 11 10 0 6 -2 10 -4 10 -3 0
-8 -4 -11 -10z"/>
<path d="M80 514 c0 -8 5 -12 10 -9 6 3 10 10 10 16 0 5 -4 9 -10 9 -5 0 -10
-7 -10 -16z"/>
<path d="M280 520 c0 -5 5 -10 10 -10 6 0 10 5 10 10 0 6 -4 10 -10 10 -5 0
-10 -4 -10 -10z"/>
<path d="M4031 513 c-16 -17 -11 -25 8 -14 7 5 12 13 10 19 -2 6 -10 4 -18 -5z"/>
<path d="M4086 511 c-4 -5 -2 -12 3 -15 5 -4 12 -2 15 3 4 5 2 12 -3 15 -5 4
-12 2 -15 -3z"/>
<path d="M4413 487 c-34 -18 -62 -35 -62 -38 -2 -15 33 -19 48 -6 39 33 85 21
94 -26 2 -12 5 6 6 41 1 44 -3 62 -11 62 -7 -1 -41 -15 -75 -33z"/>
<path d="M3780 500 c0 -5 5 -10 10 -10 6 0 10 5 10 10 0 6 -4 10 -10 10 -5 0
-10 -4 -10 -10z"/>
<path d="M4340 500 c0 -5 7 -10 15 -10 8 0 15 5 15 10 0 6 -7 10 -15 10 -8 0
-15 -4 -15 -10z"/>
<path d="M190 489 c0 -5 5 -7 10 -4 6 3 10 8 10 11 0 2 -4 4 -10 4 -5 0 -10
-5 -10 -11z"/>
<path d="M297 493 c-11 -10 -8 -45 3 -38 6 4 7 11 4 17 -4 6 -1 8 7 6 8 -3 13
-12 11 -19 -3 -10 0 -11 8 -3 6 6 8 18 4 27 -6 17 -25 22 -37 10z"/>
<path d="M407 485 c-4 -8 -12 -15 -20 -15 -7 0 -14 -10 -14 -22 -1 -13 -7 -24
-13 -26 -14 -5 -13 -22 3 -22 11 0 61 90 53 97 -2 2 -6 -3 -9 -12z"/>
<path d="M841 484 c0 -11 3 -14 6 -6 3 7 2 16 -1 19 -3 4 -6 -2 -5 -13z"/>
<path d="M155 481 c-3 -5 -1 -12 5 -16 5 -3 10 1 10 9 0 18 -6 21 -15 7z"/>
<path d="M635 480 c-3 -5 -1 -10 4 -10 6 0 11 5 11 10 0 6 -2 10 -4 10 -3 0
-8 -4 -11 -10z"/>
<path d="M3767 427 c-9 -30 -17 -66 -17 -81 0 -20 -4 -27 -14 -23 -7 3 -20 -3
-29 -14 -17 -20 -19 -20 -175 -3 l-63 6 28 -28 c17 -18 29 -24 31 -16 3 11 34
17 72 14 15 -1 83 -10 88 -11 8 -2 -40 -81 -49 -81 -7 0 -6 6 2 17 13 15 12
15 -8 5 -35 -19 -38 -14 -12 16 l24 27 -26 -22 c-14 -13 -32 -23 -40 -23 -9 1
-7 7 9 19 12 11 22 23 22 27 0 4 -10 -1 -21 -12 -16 -14 -23 -15 -26 -6 -6 15
-23 16 -23 2 0 -17 51 -60 71 -60 9 0 19 -4 21 -10 8 -22 51 30 63 76 9 38 17
50 34 52 17 3 21 -2 22 -25 2 -23 2 -24 6 -5 5 27 9 27 51 2 39 -24 41 -40 6
-40 -24 0 -26 -3 -20 -27 12 -48 11 -66 -1 -70 -8 -3 -13 4 -13 17 0 12 -8 38
-17 57 -15 33 -17 34 -24 14 -5 -11 -12 -21 -17 -21 -19 0 -72 -64 -72 -87 0
-18 -6 -23 -25 -23 -16 0 -25 -6 -25 -16 0 -11 6 -14 23 -8 32 9 47 24 47 45
0 10 17 34 37 54 33 32 38 34 44 18 11 -28 11 -30 -16 -57 -21 -21 -24 -30
-16 -45 9 -16 7 -19 -14 -17 -24 1 -37 16 -14 16 5 0 7 5 3 11 -4 7 -12 6 -23
-5 -14 -15 -14 -18 -1 -26 10 -7 11 -10 3 -10 -7 0 -13 -5 -13 -11 0 -8 6 -7
17 2 9 8 24 13 33 11 9 -1 23 4 30 13 9 11 16 12 25 5 7 -6 19 -9 26 -8 7 2
16 -8 20 -22 7 -23 7 -22 6 7 -1 17 -5 29 -9 27 -4 -3 -8 -1 -8 5 0 16 18 22
37 12 10 -5 26 -12 35 -15 16 -5 15 -8 -7 -30 -30 -30 -31 -41 -5 -43 11 -1
20 4 20 11 0 7 9 25 21 40 18 22 24 25 36 14 9 -7 39 -15 67 -18 43 -4 51 -8
54 -27 4 -27 17 -30 26 -6 4 10 -1 23 -14 35 -26 24 -25 35 3 59 l22 18 -32 1
c-17 0 -38 3 -47 6 -11 4 -16 1 -16 -11 0 -9 5 -13 10 -10 6 3 10 -3 10 -14 0
-31 -50 -28 -78 4 -21 25 -42 33 -42 17 0 -4 5 -13 12 -20 9 -9 9 -15 0 -24
-6 -6 -13 -10 -14 -7 -2 2 -15 29 -30 59 -32 63 -36 92 -13 84 10 -4 13 -2 10
8 -4 11 2 13 30 10 l35 -4 -21 -29 c-19 -28 -20 -67 -1 -55 5 3 19 -4 30 -15
l22 -20 0 21 c0 11 -4 20 -10 20 -13 0 -13 37 0 45 6 3 13 -1 16 -9 8 -20 50
-21 58 -1 6 17 -5 20 -19 6 -6 -6 -19 -3 -34 8 l-24 19 26 26 c15 15 27 29 27
31 0 3 0 8 0 11 0 3 6 -1 14 -8 39 -37 59 -48 75 -43 24 7 33 -25 15 -50 -9
-12 -20 -16 -36 -12 -23 6 -23 6 2 -13 14 -11 31 -20 38 -20 7 0 26 -7 43 -15
l29 -16 -19 36 c-23 43 -18 69 15 84 38 17 89 13 145 -11 43 -19 50 -26 46
-45 -3 -16 1 -23 11 -23 9 0 13 7 9 20 -3 11 -1 23 5 26 13 8 45 -23 52 -52 4
-16 14 -24 27 -24 l21 0 -21 34 c-16 25 -19 40 -13 57 16 42 3 54 -27 25 -24
-23 -30 -25 -66 -15 -47 13 -99 62 -91 86 9 28 -12 134 -30 154 -20 23 -34 24
-34 5 0 -8 -5 -16 -12 -18 -15 -5 -1 -28 18 -28 8 0 12 5 9 10 -3 6 -2 10 4
10 5 0 11 -27 13 -60 2 -48 0 -62 -14 -72 -10 -7 -18 -19 -18 -26 0 -10 -8
-13 -24 -10 -19 4 -26 0 -28 -15 -2 -11 -9 -22 -16 -25 -7 -2 -10 2 -6 12 4
11 -1 15 -23 14 -46 -1 -50 1 -67 27 -15 23 -14 27 9 71 35 66 26 76 -15 20
-34 -46 -36 -47 -78 -42 -32 4 -43 3 -40 -7 3 -6 17 -13 31 -15 29 -4 36 -19
13 -28 -8 -3 -16 -14 -19 -25 -3 -10 -13 -19 -22 -19 -10 0 -15 5 -12 13 3 6
8 19 11 27 9 21 -28 77 -66 100 -29 18 -34 18 -49 4 -17 -15 -17 -13 -12 40 7
72 -8 73 -30 3z m95 -71 c3 2 8 -2 11 -11 4 -8 1 -15 -6 -15 -7 0 2 -10 20
-21 28 -18 31 -23 20 -40 -6 -10 -16 -19 -22 -19 -19 0 -56 32 -52 44 6 15 0
25 -27 46 -18 14 -18 13 -11 -10 4 -14 10 -31 13 -39 4 -10 -2 -9 -21 4 -29
19 -36 52 -12 61 8 3 29 -2 47 -11 18 -9 27 -10 20 -3 -16 16 -15 33 1 19 8
-6 16 -8 19 -5z m403 -76 c-3 -5 -13 -10 -21 -10 -8 0 -12 5 -9 10 3 6 13 10
21 10 8 0 12 -4 9 -10z m-435 -70 c0 -5 -5 -10 -11 -10 -5 0 -7 5 -4 10 3 6 8
10 11 10 2 0 4 -4 4 -10z m30 -102 c0 -10 -4 -18 -10 -18 -14 0 -28 31 -22 52
4 18 5 18 18 1 7 -10 14 -26 14 -35z m-67 -10 c-24 -23 -40 -20 -30 7 4 8 17
15 29 15 l22 0 -21 -22z m-56 -20 c-3 -8 -6 -5 -6 6 -1 11 2 17 5 13 3 -3 4
-12 1 -19z"/>
<path d="M943 459 c-30 -39 -43 -78 -33 -105 7 -18 7 -31 1 -37 -7 -7 -14 -1
-21 18 -6 15 -13 25 -16 22 -11 -10 -12 -62 -2 -74 11 -14 32 -7 23 8 -4 5 -1
9 4 9 6 0 11 -4 11 -10 0 -18 19 -11 31 11 6 12 7 19 1 15 -5 -3 -12 10 -15
30 -6 37 6 84 25 95 6 4 9 12 6 19 -3 9 -6 9 -15 -1z"/>
<path d="M3840 468 c0 -2 9 -22 19 -44 17 -34 27 -42 63 -51 24 -6 52 -14 62
-18 16 -7 18 -5 13 8 -3 9 -2 19 3 22 13 8 13 65 1 65 -5 0 -11 -10 -13 -22
-2 -17 -9 -22 -23 -20 -20 3 -29 12 -51 49 -7 10 -15 15 -20 10 -4 -4 3 -17
16 -29 17 -16 20 -23 10 -26 -7 -3 -19 3 -25 12 -7 9 -17 16 -24 16 -6 0 -10
5 -8 11 1 6 -4 14 -10 16 -7 3 -13 3 -13 1z"/>
<path d="M4100 430 c0 -5 5 -10 10 -10 6 0 10 5 10 10 0 6 -4 10 -10 10 -5 0
-10 -4 -10 -10z"/>
<path d="M293 415 c0 -8 4 -12 9 -9 5 3 6 10 3 15 -9 13 -12 11 -12 -6z"/>
<path d="M552 410 c-14 -23 -15 -30 -3 -30 8 0 24 41 18 47 -2 1 -8 -7 -15
-17z"/>
<path d="M1049 413 c-13 -15 -12 -15 6 -6 11 6 27 13 35 16 10 4 8 6 -6 6 -12
1 -28 -6 -35 -16z"/>
<path d="M3595 420 c3 -5 10 -10 16 -10 5 0 9 5 9 10 0 6 -7 10 -16 10 -8 0
-12 -4 -9 -10z"/>
<path d="M599 418 c0 -2 -2 -11 -4 -21 -3 -15 -1 -16 11 -6 7 6 11 15 8 20 -5
9 -13 12 -15 7z"/>
<path d="M645 407 c-4 -10 -5 -21 -1 -24 10 -10 18 4 13 24 -4 17 -4 17 -12 0z"/>
<path d="M749 410 c-1 -8 -3 -20 -3 -27 -2 -16 -37 -53 -51 -53 -7 0 -19 -8
-26 -17 -13 -15 -12 -16 9 -11 21 6 26 -1 23 -29 -1 -7 2 -13 8 -13 5 0 8 11
7 24 -2 16 1 23 9 20 8 -4 11 4 10 20 -2 14 0 26 4 26 14 0 29 46 20 61 -7 12
-9 12 -10 -1z"/>
<path d="M3525 410 c-4 -6 -12 -7 -18 -3 -7 3 -3 -4 8 -18 11 -13 20 -25 21
-27 0 -1 1 11 2 28 1 32 -3 37 -13 20z"/>
<path d="M4327 413 c-4 -3 -7 -13 -7 -22 1 -13 3 -13 11 2 11 19 8 33 -4 20z"/>
<path d="M983 395 c-9 -24 1 -27 15 -5 8 13 8 20 2 20 -6 0 -13 -7 -17 -15z"/>
<path d="M1012 375 c-14 -31 -15 -35 -3 -35 8 0 23 51 17 58 -2 1 -8 -9 -14
-23z"/>
<path d="M3562 393 c3 -4 11 -23 18 -40 8 -18 21 -33 30 -32 10 0 11 2 3 6 -7
2 -13 11 -13 19 0 17 27 8 58 -19 18 -17 24 -18 35 -7 9 10 9 11 0 6 -8 -4
-13 -1 -13 8 0 16 -38 42 -47 32 -3 -3 -13 2 -22 12 -16 17 -57 30 -49 15z"/>
<path d="M3695 389 c-4 -6 -4 -13 -1 -16 8 -8 36 5 36 17 0 13 -27 13 -35 -1z"/>
<path d="M480 386 c0 -5 50 -31 105 -54 6 -3 1 4 -10 15 -11 11 -29 22 -40 25
-11 3 -28 9 -37 13 -10 4 -18 4 -18 1z"/>
<path d="M206 355 c-4 -10 1 -15 14 -15 11 0 20 7 20 15 0 8 -6 15 -14 15 -8
0 -16 -7 -20 -15z"/>
<path d="M1096 353 c-6 -14 -5 -15 5 -6 7 7 10 15 7 18 -3 3 -9 -2 -12 -12z"/>
<path d="M423 337 c-7 -12 25 -37 46 -37 11 1 7 6 -9 16 l-25 15 33 -5 c17 -3
32 -2 32 3 0 12 -70 19 -77 8z"/>
<path d="M971 333 c-1 -12 -4 -30 -8 -40 -6 -16 -5 -16 10 -4 20 16 32 9 24
-14 -4 -8 -17 -15 -29 -16 -22 -1 -22 -1 2 -9 44 -14 50 -11 50 20 0 19 5 30
14 30 8 0 17 7 20 16 3 8 10 12 16 9 5 -3 10 -1 10 4 0 16 -9 14 -38 -10 -23
-18 -27 -19 -30 -5 -2 9 -10 16 -17 16 -7 0 -16 6 -18 13 -3 6 -6 2 -6 -10z"/>
<path d="M539 319 c27 -22 49 -26 32 -5 -6 8 -22 16 -34 19 -22 6 -22 6 2 -14z"/>
<path d="M3091 324 c-25 -18 -31 -46 -15 -75 13 -23 14 -23 12 14 -3 49 18 64
45 34 l19 -22 -7 24 c-5 16 -4 21 4 17 6 -4 11 -3 11 2 0 16 -48 20 -69 6z"/>
<path d="M4470 325 c0 -8 4 -15 8 -15 5 0 9 7 9 15 0 8 -4 15 -9 15 -4 0 -8
-7 -8 -15z"/>
<path d="M3334 315 c3 -9 0 -15 -10 -15 -9 0 -12 5 -8 13 6 9 5 9 -8 0 -8 -7
-18 -10 -21 -6 -4 3 -7 1 -7 -5 0 -17 39 -25 55 -12 18 15 20 40 4 40 -6 0 -9
-7 -5 -15z"/>
<path d="M4076 315 c-3 -9 0 -15 9 -15 9 0 12 6 9 15 -4 8 -7 15 -9 15 -2 0
-5 -7 -9 -15z"/>
<path d="M4145 310 c10 -11 22 -20 27 -20 5 0 4 9 -2 20 -6 11 -18 20 -27 20
-14 0 -14 -2 2 -20z"/>
<path d="M161 292 c-17 -16 -31 -35 -31 -41 0 -7 -4 -9 -10 -6 -6 3 -7 -1 -4
-10 9 -22 28 -13 32 14 3 16 8 21 19 17 11 -4 13 -2 9 9 -4 12 0 14 19 9 28
-7 33 7 11 25 -12 10 -21 7 -45 -17z"/>
<path d="M306 305 c4 -8 10 -13 14 -10 10 6 20 -30 20 -72 0 -32 -21 -46 -35
-23 -3 6 -11 10 -18 10 -6 0 -2 -6 8 -14 16 -12 17 -16 6 -30 -7 -9 -18 -13
-23 -10 -6 4 -5 10 3 15 8 5 9 9 3 9 -15 0 -39 -29 -30 -37 3 -3 6 -1 6 6 0 7
4 10 9 6 14 -8 4 -48 -15 -62 -9 -6 -13 -17 -9 -23 5 -7 11 -8 19 -1 7 6 22 8
34 4 13 -3 33 2 47 11 14 9 30 14 34 11 5 -3 23 6 39 20 16 14 37 25 47 25 20
0 57 -19 67 -34 4 -6 11 1 17 16 13 34 26 41 50 26 15 -9 17 -15 9 -25 -12
-15 3 -18 18 -3 12 12 44 3 44 -11 0 -5 -11 -9 -25 -9 l-25 0 21 -21 c17 -17
23 -19 30 -8 5 8 9 20 9 28 0 9 7 11 23 8 12 -4 29 -1 37 4 13 9 12 10 -2 5
-10 -3 -18 -1 -18 5 0 6 -7 9 -15 5 -9 -3 -23 3 -32 14 -12 13 -21 16 -33 10
-12 -7 -23 -4 -38 10 -25 24 -42 26 -42 6 0 -8 -4 -18 -10 -21 -10 -6 -90 12
-90 21 0 3 10 14 23 24 12 10 20 21 17 24 -6 5 -42 -26 -72 -63 -10 -11 -23
-18 -30 -16 -7 3 -26 -6 -42 -20 -36 -31 -77 -34 -69 -6 3 11 16 29 29 42 20
18 26 20 39 9 13 -11 14 -10 9 4 -4 12 0 16 15 16 12 0 21 4 21 9 0 15 -18 23
-25 11 -14 -23 -26 -8 -19 25 5 26 1 41 -16 65 -22 31 -44 41 -34 15z m86
-197 c-7 -7 -12 -8 -12 -2 0 14 12 26 19 19 2 -3 -1 -11 -7 -17z"/>
<path d="M595 310 c3 -5 13 -10 21 -10 8 0 14 5 14 10 0 6 -9 10 -21 10 -11 0
-17 -4 -14 -10z"/>
<path d="M0 293 c0 -14 2 -15 9 -4 5 7 14 10 20 7 6 -4 11 -2 11 3 0 6 -9 11
-20 11 -12 0 -20 -7 -20 -17z"/>
<path d="M258 303 c7 -3 16 -2 19 1 4 3 -2 6 -13 5 -11 0 -14 -3 -6 -6z"/>
<path d="M500 301 c0 -10 35 -21 70 -20 23 0 23 1 5 8 -39 15 -75 21 -75 12z"/>
<path d="M2879 281 c-35 -35 -37 -60 -6 -89 31 -29 111 -23 92 8 -5 8 -11 5
-20 -7 -13 -17 -15 -17 -42 3 -15 12 -29 32 -31 45 -2 22 -1 23 11 7 8 -10 20
-18 27 -18 9 0 7 7 -6 21 -19 21 -18 21 5 40 13 10 18 19 11 19 -6 0 -25 -13
-41 -29z"/>
<path d="M3212 256 c-1 -53 11 -59 33 -16 21 41 19 51 -5 15 -11 -16 -20 -24
-20 -17 0 7 7 24 16 37 10 15 12 25 5 25 -6 0 -11 -6 -11 -12 0 -10 -3 -9 -9
1 -5 8 -9 -3 -9 -33z"/>
<path d="M250 283 c0 -5 7 -18 15 -29 13 -16 16 -17 25 -4 12 19 13 30 1 30
-5 0 -16 3 -25 6 -9 3 -16 2 -16 -3z"/>
<path d="M614 255 c0 -19 2 -35 5 -35 11 0 36 20 26 20 -5 0 1 10 15 21 16 14
19 19 8 15 -10 -3 -18 -1 -18 4 0 6 -8 10 -17 10 -14 0 -18 -9 -19 -35z"/>
<path d="M3110 259 c0 -16 4 -28 9 -25 8 5 3 56 -5 56 -2 0 -4 -14 -4 -31z"/>
<path d="M52 270 c-47 -11 -49 -17 -7 -22 28 -3 39 0 46 14 11 20 10 20 -39 8z"/>
<path d="M420 272 c0 -4 16 -6 35 -4 19 2 35 6 35 8 0 2 -16 4 -35 4 -19 0
-35 -4 -35 -8z"/>
<path d="M3710 269 c0 -5 5 -7 10 -4 6 3 10 8 10 11 0 2 -4 4 -10 4 -5 0 -10
-5 -10 -11z"/>
<path d="M203 256 c11 -29 -3 -46 -32 -40 -21 5 -23 3 -11 -6 11 -9 12 -13 3
-17 -7 -2 -13 -11 -13 -18 0 -10 8 -9 37 5 20 9 45 15 56 12 14 -3 18 -1 13 6
-4 7 -16 12 -26 12 -14 0 -18 5 -13 17 4 11 8 12 11 5 2 -7 11 -12 19 -12 13
0 13 3 3 16 -8 8 -22 20 -33 26 -17 9 -19 8 -14 -6z"/>
<path d="M401 263 c0 -6 -4 -20 -7 -30 -5 -14 -4 -15 5 -7 7 7 11 20 8 30 -3
11 -5 14 -6 7z"/>
<path d="M500 260 c0 -5 5 -10 11 -10 5 0 7 -4 4 -10 -3 -5 1 -10 11 -10 11 0
15 -6 11 -20 -3 -11 -2 -22 2 -24 15 -9 10 53 -5 68 -18 18 -34 21 -34 6z"/>
<path d="M826 263 c-8 -8 13 -43 26 -43 7 0 7 5 -2 14 -9 12 -8 15 8 13 40 -3
7 -97 -35 -97 -30 0 -29 -14 1 -33 33 -22 76 -32 76 -18 0 6 -11 11 -25 11
-18 0 -25 5 -25 18 0 22 43 62 68 62 13 1 11 6 -11 23 -15 13 -25 26 -22 29
11 10 44 -4 48 -21 4 -13 5 -13 6 2 1 25 -22 47 -39 37 -7 -4 -25 -4 -41 0
-15 5 -30 6 -33 3z"/>
<path d="M2431 239 c-21 -34 -18 -61 6 -52 8 3 10 9 5 12 -12 8 1 46 17 46 14
0 16 18 2 23 -6 2 -19 -11 -30 -29z"/>
<path d="M663 231 c-24 -20 -29 -31 -15 -31 11 0 52 35 52 44 0 11 -14 6 -37
-13z"/>
<path d="M710 234 c0 -8 5 -12 10 -9 6 4 8 11 5 16 -9 14 -15 11 -15 -7z"/>
<path d="M2986 232 c-2 -4 -1 -14 5 -22 7 -12 9 -10 9 8 0 23 -5 28 -14 14z"/>
<path d="M3050 230 c0 -5 5 -10 11 -10 5 0 7 5 4 10 -3 6 -8 10 -11 10 -2 0
-4 -4 -4 -10z"/>
<path d="M50 222 c0 -5 12 -15 26 -23 14 -7 37 -26 50 -42 16 -19 24 -23 24
-13 0 8 -5 18 -10 21 -6 4 -8 11 -4 16 8 13 -27 40 -43 34 -7 -2 -15 0 -18 5
-8 12 -25 13 -25 2z"/>
<path d="M957 215 c-4 -8 -2 -17 3 -20 6 -4 10 3 10 14 0 25 -6 27 -13 6z"/>
<path d="M1025 220 c-20 -9 -20 -9 0 -9 11 0 27 4 35 9 13 9 13 10 0 9 -8 0
-24 -4 -35 -9z"/>
<path d="M1116 220 c-41 -111 -46 -150 -21 -150 8 0 15 -7 15 -15 0 -24 17
-17 24 10 4 14 13 25 21 25 30 0 29 48 -3 97 -21 32 -33 43 -36 33z m25 -75
c18 12 9 -31 -10 -47 -18 -15 -20 -15 -25 -1 -4 9 -1 32 6 52 11 31 13 33 16
13 2 -12 8 -20 13 -17z"/>
<path d="M1117 119 c7 -7 15 -10 18 -7 3 3 -2 9 -12 12 -14 6 -15 5 -6 -5z"/>
<path d="M7 213 c-4 -3 -7 -11 -7 -17 0 -6 5 -5 12 2 6 6 9 14 7 17 -3 3 -9 2
-12 -2z"/>
<path d="M570 209 c0 -5 5 -7 10 -4 6 3 10 1 10 -4 0 -6 5 -11 11 -11 8 0 8 5
-1 15 -14 17 -30 20 -30 4z"/>
<path d="M743 210 c-16 -6 -21 -14 -16 -26 5 -15 7 -15 15 0 5 9 16 16 23 16
8 0 15 5 15 10 0 12 -7 12 -37 0z"/>
<path d="M2481 194 c-11 -14 -24 -23 -29 -20 -9 5 -8 -37 3 -102 4 -18 13 -36
20 -39 8 -3 12 -9 9 -14 -3 -5 2 -6 10 -3 17 6 11 33 -11 51 -8 6 -12 16 -9
22 4 6 2 20 -4 31 -8 16 -7 27 7 50 18 31 33 39 33 19 0 -8 5 -8 15 1 12 10
16 9 21 -6 4 -11 15 -27 26 -37 17 -17 17 -19 -1 -55 -10 -20 -16 -43 -14 -50
3 -7 0 -19 -6 -26 -8 -9 -7 -13 4 -13 8 0 13 2 10 5 -2 2 3 11 11 20 13 12 13
16 2 23 -10 7 -10 11 0 21 6 6 12 20 12 31 0 25 24 16 28 -11 2 -11 -4 -32
-14 -47 l-17 -26 31 18 c16 9 28 23 25 30 -8 20 12 15 32 -7 10 -11 20 -18 23
-15 8 7 -29 45 -44 45 -15 0 -74 69 -74 86 0 16 -20 30 -52 38 -21 5 -31 1
-47 -20z"/>
<path d="M3045 200 c11 -14 20 -26 21 -28 1 -1 8 0 17 4 16 6 12 34 -5 34 -5
0 -6 -4 -3 -10 10 -16 -6 -12 -29 8 l-21 17 20 -25z"/>
<path d="M3102 208 c8 -23 54 -33 72 -16 13 13 13 17 2 21 -7 3 -19 0 -25 -6
-8 -8 -14 -8 -23 1 -16 16 -31 15 -26 0z"/>
<path d="M996 188 c3 -4 0 -16 -6 -25 -11 -17 -11 -17 -6 0 3 11 0 17 -10 17
-10 0 -14 -8 -12 -22 4 -33 29 -28 44 8 11 26 10 31 -1 31 -8 0 -12 -4 -9 -9z"/>
<path d="M1250 190 c-12 -8 -12 -10 -1 -10 11 0 10 -5 -4 -20 -11 -12 -13 -20
-6 -20 6 0 14 7 18 16 5 13 7 13 14 2 6 -9 9 -9 9 -1 0 6 -5 15 -10 18 -6 4
-8 11 -5 16 8 11 4 11 -15 -1z"/>
<path d="M1420 187 c0 -9 -5 -16 -11 -14 -6 1 -13 -4 -14 -11 -2 -7 -1 -8 2
-2 2 5 9 8 14 4 11 -6 25 24 15 33 -3 4 -6 -1 -6 -10z"/>
<path d="M3010 189 c0 -5 5 -7 10 -4 9 6 11 1 10 -22 -1 -5 -13 -7 -28 -6 -15
1 -19 -1 -10 -3 10 -3 21 -16 24 -30 8 -32 28 -31 22 1 -3 14 -1 28 3 31 11 6
-8 44 -21 44 -6 0 -10 -5 -10 -11z"/>
<path d="M3433 193 c9 -2 23 -2 30 0 6 3 -1 5 -18 5 -16 0 -22 -2 -12 -5z"/>
<path d="M1438 138 c-15 -27 -31 -44 -46 -46 -12 -2 -22 2 -22 8 0 8 -10 10
-25 8 -14 -3 -25 -1 -25 3 0 5 -5 9 -11 9 -5 0 -8 -4 -5 -9 3 -4 0 -31 -7 -58
l-13 -49 33 11 c18 5 33 13 33 17 0 5 4 8 9 8 5 0 7 -9 4 -20 -3 -13 0 -20 9
-20 7 0 15 11 16 26 4 50 25 60 38 17 4 -16 7 -31 6 -35 -1 -5 3 -8 9 -8 7 0
9 11 6 28 -3 15 1 54 8 87 8 32 13 61 11 63 -2 2 -15 -16 -28 -40z m-72 -60
c7 -10 -20 -38 -38 -38 -13 0 -9 38 5 43 20 9 25 8 33 -5z"/>
<path d="M3228 173 c7 -3 16 -2 19 1 4 3 -2 6 -13 5 -11 0 -14 -3 -6 -6z"/>
<path d="M5 160 c-3 -5 -2 -10 4 -10 5 0 13 5 16 10 3 6 2 10 -4 10 -5 0 -13
-4 -16 -10z"/>
<path d="M178 163 c-22 -6 -22 -9 0 -31 18 -18 19 -18 18 9 -1 16 -1 28 -1 28
0 -1 -8 -3 -17 -6z"/>
<path d="M756 153 c-6 -14 -5 -15 5 -6 7 7 10 15 7 18 -3 3 -9 -2 -12 -12z"/>
<path d="M2751 151 l-24 -19 21 -6 c12 -4 22 -12 22 -18 0 -7 4 -7 13 -1 6 6
24 10 40 9 34 -2 34 0 -2 19 -19 9 -32 11 -36 5 -3 -6 -12 -10 -18 -10 -7 1
-1 10 12 20 30 26 5 26 -28 1z"/>
<path d="M3120 161 c0 -22 13 -41 30 -41 25 0 52 -34 44 -55 -5 -12 -4 -16 3
-12 6 4 14 1 16 -5 4 -10 6 -10 6 0 2 26 -29 70 -58 83 -17 8 -27 18 -24 26 3
7 0 13 -6 13 -6 0 -11 -4 -11 -9z"/>
<path d="M1206 143 c-6 -14 -5 -15 5 -6 7 7 10 15 7 18 -3 3 -9 -2 -12 -12z"/>
<path d="M3590 150 c0 -5 5 -10 11 -10 5 0 7 5 4 10 -3 6 -8 10 -11 10 -2 0
-4 -4 -4 -10z"/>
<path d="M3050 134 c0 -7 8 -10 20 -7 11 3 20 8 20 12 0 4 -9 7 -20 7 -11 0
-20 -6 -20 -12z"/>
<path d="M3188 143 c6 -2 18 -2 25 0 6 3 1 5 -13 5 -14 0 -19 -2 -12 -5z"/>
<path d="M3486 134 c-4 -9 -4 -19 -1 -22 3 -3 5 0 5 6 0 7 5 12 10 12 6 0 10
-7 10 -16 0 -11 6 -14 21 -9 15 5 19 4 15 -4 -4 -6 0 -11 8 -11 27 0 18 20
-14 31 -16 6 -30 15 -30 20 0 15 -18 10 -24 -7z"/>
<path d="M2 115 c0 -16 2 -22 5 -12 2 9 2 23 0 30 -3 6 -5 -1 -5 -18z"/>
<path d="M573 128 c4 -12 -3 -21 -24 -30 -28 -12 -43 -33 -16 -22 8 3 18 -9
26 -31 13 -38 31 -47 31 -15 0 11 5 20 10 20 6 0 10 -9 10 -19 0 -11 5 -23 12
-27 8 -5 9 0 4 17 -4 13 -8 29 -10 36 -4 21 -15 26 -29 14 -11 -9 -17 -7 -28
6 -12 15 -12 16 3 11 20 -8 33 31 16 47 -8 7 -9 5 -5 -7z"/>
<path d="M1800 127 c0 -8 -9 -17 -20 -20 -14 -4 -20 -13 -20 -34 0 -19 3 -24
9 -15 6 10 13 4 25 -22 9 -20 19 -36 21 -36 12 0 -2 57 -18 73 -10 10 -16 22
-12 25 4 4 22 -10 41 -30 19 -21 34 -33 34 -28 0 6 -9 19 -21 31 -11 11 -19
30 -17 41 2 12 -3 23 -9 25 -7 3 -13 -2 -13 -10z"/>
<path d="M2680 130 c-8 -5 -18 -6 -22 -4 -4 3 -8 1 -8 -5 0 -5 16 -9 35 -8 19
1 35 5 35 8 0 12 -26 17 -40 9z"/>
<path d="M3092 118 c-6 -13 -11 -17 -11 -10 -1 7 -5 11 -11 7 -12 -8 -1 -35
15 -35 7 0 16 12 19 26 9 34 2 40 -12 12z"/>
<path d="M155 120 c-9 -14 4 -70 16 -70 6 0 7 5 3 11 -4 7 -7 25 -6 40 1 31
-3 36 -13 19z"/>
<path d="M120 110 c-13 -8 -12 -10 3 -10 9 0 17 5 17 10 0 12 -1 12 -20 0z"/>
<path d="M3282 108 c3 -7 13 -15 23 -17 17 -3 17 -2 3 13 -20 19 -31 21 -26 4z"/>
<path d="M3585 110 c3 -5 8 -10 11 -10 2 0 4 5 4 10 0 6 -5 10 -11 10 -5 0 -7
-4 -4 -10z"/>
<path d="M1190 97 c0 -20 21 -35 48 -32 16 1 19 -2 12 -9 -13 -13 -13 -59 0
-51 6 3 10 13 10 22 0 9 8 25 18 36 9 11 12 17 5 14 -15 -9 -45 2 -37 14 3 5
1 9 -5 9 -5 0 -11 -5 -13 -11 -3 -8 -10 -6 -21 5 -14 14 -17 15 -17 3z"/>
<path d="M1654 100 c-24 -9 -36 -32 -29 -55 17 -53 15 -52 27 -32 7 14 6 21
-7 31 -16 12 -16 13 0 29 22 23 38 21 32 -3 -3 -11 -1 -17 4 -14 5 3 12 -2 16
-11 3 -10 0 -21 -8 -26 -8 -5 -9 -9 -4 -10 6 0 21 -2 35 -4 14 -1 36 4 48 12
28 17 22 29 -7 14 -17 -10 -24 -6 -45 22 -27 35 -33 53 -16 42 6 -3 10 -1 10
4 0 13 -26 13 -56 1z"/>
<path d="M2536 98 c3 -5 10 -6 15 -3 13 9 11 12 -6 12 -8 0 -12 -4 -9 -9z"/>
<path d="M2923 102 c-18 -11 -32 -57 -26 -81 3 -13 13 -21 27 -21 19 1 19 2 4
11 -25 14 -22 54 4 79 21 19 15 28 -9 12z"/>
<path d="M2754 75 c9 -13 16 -31 16 -39 0 -20 26 -32 74 -35 35 -2 37 0 22 14
-9 9 -16 24 -17 33 0 12 -3 11 -9 -5 -10 -25 -30 -31 -30 -10 0 8 -3 7 -10 -3
-7 -12 -10 -11 -15 5 -15 47 -25 65 -36 65 -7 0 -5 -9 5 -25z"/>
<path d="M3126 87 c3 -10 9 -15 12 -12 3 3 0 11 -7 18 -10 9 -11 8 -5 -6z"/>
<path d="M3400 78 c0 -14 7 -28 15 -31 24 -10 27 11 6 35 l-21 22 0 -26z"/>
<path d="M4216 93 c-13 -14 -5 -33 14 -33 26 0 28 -47 3 -53 -10 -2 3 -4 29
-3 31 1 48 5 48 14 0 6 -7 12 -15 12 -14 0 -19 11 -16 36 2 13 -54 36 -63 27z"/>
<path d="M211 73 c-1 -12 -7 -24 -13 -26 -10 -4 -10 -6 0 -6 15 -1 26 23 19
41 -3 7 -6 3 -6 -9z"/>
<path d="M366 82 c-3 -5 -18 -13 -33 -17 -16 -3 -41 -17 -58 -29 -16 -13 -37
-25 -45 -29 -8 -3 23 -5 70 -5 80 1 82 2 25 7 -59 6 -59 6 -35 22 41 25 57 28
77 14 10 -8 25 -14 33 -14 8 0 2 7 -13 15 -16 9 -26 18 -23 22 4 3 12 0 18 -6
15 -15 58 -16 58 -2 0 6 -10 10 -23 10 -13 0 -28 5 -34 11 -7 7 -13 7 -17 1z"/>
<path d="M70 70 c0 -5 5 -10 10 -10 6 0 10 5 10 10 0 6 -4 10 -10 10 -5 0 -10
-4 -10 -10z"/>
<path d="M118 73 c7 -3 16 -2 19 1 4 3 -2 6 -13 5 -11 0 -14 -3 -6 -6z"/>
<path d="M468 57 c-3 -19 -2 -25 4 -19 6 6 8 18 6 28 -3 14 -5 12 -10 -9z"/>
<path d="M695 60 c10 -11 23 -20 28 -20 6 0 2 9 -8 20 -10 11 -23 20 -28 20
-6 0 -2 -9 8 -20z"/>
<path d="M1020 71 c0 -6 4 -12 10 -16 5 -3 7 -13 4 -23 -5 -15 -4 -15 6 1 6
10 16 14 23 10 14 -8 37 -13 37 -8 0 3 -10 13 -22 25 -22 21 -58 27 -58 11z"/>
<path d="M1180 64 c0 -17 17 -36 24 -26 3 5 -1 15 -9 22 -8 7 -15 9 -15 4z"/>
<path d="M1533 63 c-21 -8 -15 -22 7 -16 14 4 20 0 20 -11 0 -9 4 -16 10 -16
6 0 5 10 -2 25 -12 26 -14 27 -35 18z"/>
<path d="M4432 55 c-35 -19 -46 -32 -34 -39 6 -3 18 1 27 10 15 15 17 15 22
-5 7 -26 23 -28 23 -2 0 11 3 26 6 35 7 19 -11 20 -44 1z"/>
<path d="M0 50 c0 -6 7 -10 15 -10 8 0 15 2 15 4 0 2 -7 6 -15 10 -8 3 -15 1
-15 -4z"/>
<path d="M1483 48 c-19 -24 -23 -48 -9 -48 8 0 16 12 19 27 6 33 4 38 -10 21z"/>
<path d="M2728 52 c-16 -7 -16 -8 0 -30 l18 -23 2 31 c1 16 1 30 0 29 -2 0
-11 -3 -20 -7z"/>
<path d="M3563 46 c9 -7 17 -18 17 -25 0 -8 5 -8 19 1 22 13 18 30 -4 21 -8
-3 -15 0 -15 6 0 6 -8 11 -17 11 -17 -1 -17 -1 0 -14z"/>
<path d="M133 30 c-1 -11 2 -22 8 -25 5 -4 9 3 9 14 0 26 -15 35 -17 11z"/>
<path d="M793 36 c-18 -6 -36 -15 -40 -20 -12 -12 50 5 72 20 23 16 13 16 -32
0z"/>
<path d="M1950 39 c0 -5 5 -7 10 -4 6 3 10 8 10 11 0 2 -4 4 -10 4 -5 0 -10
-5 -10 -11z"/>
<path d="M3071 24 c-21 -24 -15 -34 7 -12 7 7 12 8 12 2 0 -5 14 -10 32 -10
29 -1 30 0 12 12 -10 7 -24 18 -30 23 -8 6 -18 2 -33 -15z"/>
<path d="M3447 36 c-6 -16 19 -30 28 -16 7 11 -2 30 -15 30 -4 0 -10 -6 -13
-14z"/>
<path d="M502 33 c-10 -4 -7 -9 8 -20 24 -17 33 -13 24 11 -6 17 -10 18 -32 9z"/>
<path d="M680 30 c0 -6 7 -10 15 -10 8 0 15 2 15 4 0 2 -7 6 -15 10 -8 3 -15
1 -15 -4z"/>
<path d="M3510 32 c0 -11 37 -32 44 -25 8 9 -14 33 -30 33 -8 0 -14 -3 -14 -8z"/>
<path d="M3630 31 c0 -13 29 -35 37 -27 3 3 1 6 -5 6 -7 0 -12 7 -12 15 0 8
-4 15 -10 15 -5 0 -10 -4 -10 -9z"/>
<path d="M3700 18 c-12 -22 -12 -22 6 -6 10 10 15 20 12 24 -4 3 -12 -5 -18
-18z"/>
<path d="M20 15 c0 -8 9 -15 20 -15 24 0 27 15 4 24 -22 9 -24 8 -24 -9z"/>
<path d="M1506 21 c-4 -7 -5 -15 -2 -18 9 -9 19 4 14 18 -4 11 -6 11 -12 0z"/>
<path d="M1886 13 c-6 -14 -5 -15 5 -6 7 7 10 15 7 18 -3 3 -9 -2 -12 -12z"/>
<path d="M2378 22 c-36 -7 -16 -17 38 -19 31 -1 54 0 51 3 -9 9 -71 20 -89 16z"/>
<path d="M3000 20 c0 -12 28 -25 36 -17 3 3 -4 10 -15 17 -15 7 -21 7 -21 0z"/>
<path d="M3951 14 c0 -11 3 -14 6 -6 3 7 2 16 -1 19 -3 4 -6 -2 -5 -13z"/>
<path d="M4005 21 c-3 -5 -1 -12 5 -16 5 -3 10 1 10 9 0 18 -6 21 -15 7z"/>
<path d="M4330 20 c0 -5 5 -10 10 -10 6 0 10 5 10 10 0 6 -4 10 -10 10 -5 0
-10 -4 -10 -10z"/>
<path d="M1085 10 c-3 -5 -1 -10 4 -10 6 0 11 5 11 10 0 6 -2 10 -4 10 -3 0
-8 -4 -11 -10z"/>
<path d="M3780 10 c0 -5 5 -10 11 -10 5 0 7 5 4 10 -3 6 -8 10 -11 10 -2 0 -4
-4 -4 -10z"/>
<path d="M1008 3 c6 -2 18 -2 25 0 6 3 1 5 -13 5 -14 0 -19 -2 -12 -5z"/>
<path d="M1128 3 c7 -3 16 -2 19 1 4 3 -2 6 -13 5 -11 0 -14 -3 -6 -6z"/>
<path d="M2613 3 c15 -2 37 -2 50 0 12 2 0 4 -28 4 -27 0 -38 -2 -22 -4z"/>
<path d="M3223 3 c9 -2 25 -2 35 0 9 3 1 5 -18 5 -19 0 -27 -2 -17 -5z"/>
</g>
</svg>
