<?xml version="1.0" standalone="no"?>
<!DOCTYPE svg PUBLIC "-//W3C//DTD SVG 20010904//EN"
 "http://www.w3.org/TR/2001/REC-SVG-20010904/DTD/svg10.dtd">
<svg version="1.0" xmlns="http://www.w3.org/2000/svg"
 width="259.000000pt" height="194.000000pt" viewBox="0 0 259.000000 194.000000"
 preserveAspectRatio="xMidYMid meet">
<metadata>
Created by potrace 1.10, written by Peter Selinger 2001-2011
</metadata>
<g transform="translate(0.000000,194.000000) scale(0.100000,-0.100000)"
fill="#000000" stroke="none">
<path d="M60 1931 c0 -18 18 -21 30 -6 10 13 9 15 -9 15 -11 0 -21 -4 -21 -9z"/>
<path d="M116 1908 c-3 -17 -9 -28 -13 -25 -3 4 -12 2 -18 -3 -9 -7 -21 -7
-39 0 -15 5 -32 10 -37 10 -16 0 -10 -39 9 -49 16 -9 16 -10 0 -16 -12 -5 -18
-18 -18 -37 0 -27 1 -28 16 -14 21 22 67 20 87 -2 23 -25 21 -45 -4 -68 -16
-14 -24 -16 -37 -7 -18 12 -18 16 -7 46 5 13 2 17 -14 17 -29 0 -36 -37 -20
-114 9 -49 10 -72 1 -98 l-12 -33 5 40 c2 22 1 54 -4 70 -6 20 -9 -24 -8 -130
l2 -160 27 -3 c33 -4 68 13 68 33 0 8 -4 15 -10 15 -5 0 -10 -4 -10 -10 0 -16
-30 -11 -37 6 -8 22 20 47 45 40 26 -9 36 -39 22 -66 -14 -26 -1 -26 50 0 22
11 45 30 51 42 13 25 20 109 8 102 -4 -2 -11 2 -16 9 -4 8 -21 21 -38 30 -18
10 -23 16 -14 17 9 0 28 -9 43 -21 14 -11 26 -16 26 -11 0 22 -42 59 -80 72
-71 23 -87 80 -31 109 23 13 61 -12 61 -39 0 -27 -18 -35 -39 -16 -23 21 -31
20 -31 -2 0 -12 16 -26 47 -40 26 -12 47 -20 47 -19 1 1 8 16 16 32 14 27 21
30 73 33 31 2 57 7 57 12 0 5 -7 7 -16 3 -18 -7 -35 13 -27 33 13 34 63 21 63
-17 0 -22 -37 -50 -57 -42 -13 5 -13 3 -2 -16 17 -26 3 -54 -28 -59 -22 -3
-39 23 -22 33 5 4 7 11 3 16 -8 14 -34 -9 -34 -30 0 -9 5 -33 11 -54 l10 -38
30 26 c21 17 42 25 68 25 39 0 61 14 61 39 0 11 -3 10 -14 -4 -8 -11 -19 -16
-30 -12 -25 10 -30 36 -11 57 33 36 75 19 75 -30 0 -33 -28 -60 -63 -60 l-26
0 24 -25 c19 -18 25 -35 25 -68 0 -32 5 -47 16 -51 14 -6 15 -4 4 9 -11 13
-11 19 2 31 17 17 44 10 53 -14 4 -11 -2 -23 -16 -35 -19 -15 -25 -16 -43 -4
-12 8 -24 27 -27 43 -4 16 -7 23 -8 17 0 -7 -12 -20 -25 -28 -19 -13 -29 -14
-45 -5 -25 13 -29 61 -6 80 16 14 35 6 35 -16 0 -19 19 -18 26 1 8 21 -14 45
-41 45 -29 0 -51 -26 -64 -77 -15 -55 -61 -100 -118 -115 -44 -11 -45 -11 -22
-24 15 -8 42 -10 70 -7 41 5 48 3 67 -22 27 -35 28 -55 1 -89 -34 -43 -85 -26
-77 26 2 18 10 24 36 26 33 3 37 9 24 28 -17 26 -51 26 -77 0 -30 -31 -32 -64
-4 -100 40 -51 102 -28 143 52 34 65 76 102 123 109 49 6 81 -9 152 -73 42
-38 54 -44 64 -34 9 10 9 11 0 6 -8 -4 -15 2 -19 18 -7 28 22 90 37 80 6 -3 5
4 -2 17 l-14 24 -3 -23 c-5 -32 -37 -25 -37 8 0 20 6 26 28 28 22 3 30 -1 34
-18 l6 -22 13 23 c7 13 13 47 14 75 0 91 -69 157 -126 120 -28 -19 -23 -42 6
-24 22 14 54 -6 46 -29 -3 -7 1 -13 8 -13 21 0 28 -31 11 -50 -8 -9 -15 -24
-15 -33 0 -19 -42 -35 -48 -18 -3 8 -8 6 -16 -5 -11 -14 -16 -15 -35 -4 -12 6
-20 17 -18 24 3 7 -4 18 -14 24 -23 15 -25 40 -3 49 8 3 13 11 10 19 -7 17 68
84 95 84 11 0 33 -7 49 -15 29 -15 30 -15 30 8 0 29 39 67 68 67 21 0 62 -32
62 -48 0 -18 -33 -52 -51 -52 -25 0 -35 25 -19 45 10 12 9 16 -5 22 -12 4 -23
0 -31 -12 -18 -24 -18 -41 2 -99 13 -37 14 -55 6 -89 -12 -47 -8 -63 7 -24 12
30 27 41 36 27 5 -8 11 -8 20 0 14 12 45 3 45 -13 0 -6 8 -19 17 -30 16 -17
16 -20 2 -30 -9 -7 -14 -17 -12 -23 6 -19 -25 -38 -41 -25 -11 9 -15 9 -19 -1
-3 -10 -9 -10 -23 -1 -11 6 -19 15 -18 20 1 4 -7 15 -16 24 -17 16 -19 15 -35
-21 -17 -37 -27 -112 -14 -104 4 2 12 -3 19 -11 16 -20 74 -19 94 1 18 18 21
34 6 34 -5 0 -10 -4 -10 -10 0 -17 -30 -11 -37 6 -9 24 24 46 48 33 25 -13 25
-64 2 -79 -15 -9 -14 -10 7 -4 49 13 65 22 93 50 25 24 28 34 26 83 -4 77 -20
105 -71 126 -76 30 -97 65 -60 98 37 34 93 6 76 -37 -8 -20 -33 -21 -40 -1 -9
21 -36 19 -32 -2 2 -10 27 -30 56 -44 45 -23 52 -25 52 -10 0 9 7 27 16 39 13
19 24 22 60 21 24 -2 49 2 54 7 7 7 3 10 -12 10 -29 -1 -36 29 -9 43 15 8 23
7 35 -5 24 -23 19 -43 -14 -62 -21 -12 -28 -22 -24 -37 6 -26 -26 -58 -50 -49
-19 7 -21 25 -4 42 9 9 7 12 -11 12 -23 0 -24 -2 -17 -57 8 -66 12 -73 29 -50
15 20 59 37 96 37 30 0 60 25 46 38 -4 4 -10 1 -12 -5 -6 -16 -39 -17 -48 -2
-21 32 29 84 58 61 7 -5 28 -12 48 -16 22 -4 55 -24 91 -56 31 -28 58 -50 60
-50 3 0 3 13 0 29 -4 30 14 75 27 67 4 -3 6 5 5 17 -4 33 -5 34 -15 9 -10 -27
-32 -25 -38 3 -4 22 25 46 46 38 8 -3 18 -15 23 -27 7 -18 9 -16 19 19 15 55
14 101 -4 135 -28 55 -81 75 -121 46 -15 -12 -17 -17 -6 -27 10 -11 12 -11 12
0 0 23 45 8 48 -16 2 -13 9 -23 17 -23 22 0 23 -23 2 -63 -22 -42 -45 -57 -57
-37 -5 8 -9 9 -14 1 -12 -19 -46 -12 -56 12 -6 12 -16 30 -22 40 -11 15 -10
20 6 32 10 7 15 19 11 25 -4 6 10 26 32 45 39 35 78 44 113 25 15 -8 20 -6 26
13 11 37 35 57 70 57 39 0 59 -28 49 -67 -4 -16 -2 -22 4 -18 18 11 51 -15 51
-40 0 -31 -20 -43 -35 -22 -16 22 -37 22 -33 0 2 -9 27 -29 56 -43 l52 -28 0
23 c0 37 26 55 80 55 27 0 52 4 55 10 4 6 -4 9 -17 7 -29 -3 -32 30 -5 47 15
9 21 7 33 -8 8 -11 14 -23 14 -26 0 -16 -28 -41 -47 -43 -17 -1 -20 -5 -12
-19 14 -27 -6 -58 -38 -58 -23 0 -25 3 -20 30 5 22 3 28 -8 24 -21 -8 -23 -25
-12 -79 l10 -50 28 27 c21 21 37 28 68 28 42 0 76 23 64 43 -5 8 -9 6 -11 -6
-3 -12 -11 -17 -25 -15 -42 6 -30 78 13 78 21 0 50 -31 50 -53 0 -28 -37 -57
-72 -57 -30 -1 -31 -2 -13 -12 29 -16 35 -28 35 -74 0 -25 6 -47 16 -55 13
-11 14 -9 9 13 -8 31 7 43 35 28 34 -18 23 -54 -18 -58 -28 -3 -34 1 -45 26
l-12 30 -24 -19 c-28 -23 -35 -23 -55 -3 -20 20 -20 48 0 68 21 22 33 20 43
-6 8 -20 10 -21 16 -5 12 28 -2 47 -33 47 -36 0 -48 -14 -67 -78 -26 -85 -107
-132 -204 -117 -59 9 -84 23 -158 84 -33 28 -72 55 -87 60 -23 10 -26 8 -26
-13 0 -26 -23 -50 -59 -61 -13 -4 -19 -10 -14 -14 19 -12 34 -52 28 -71 -7
-23 10 -60 28 -59 9 0 9 2 0 6 -16 6 -17 25 -1 41 15 15 48 -3 48 -27 0 -46
-62 -50 -82 -6 -10 22 -13 23 -32 10 -30 -22 -55 -18 -68 10 -9 19 -8 29 6 50
20 30 36 32 43 5 7 -28 23 -25 23 4 0 23 -16 36 -45 36 -23 0 -45 -29 -56 -76
-7 -28 -26 -59 -50 -84 -32 -33 -39 -47 -39 -81 0 -24 4 -38 10 -34 5 3 10 14
10 24 0 38 55 65 99 50 55 -19 65 -93 16 -125 -33 -22 -67 -3 -63 34 2 22 9
28 36 30 36 4 40 13 16 36 -34 35 -94 2 -94 -53 0 -40 35 -81 69 -81 40 0 68
25 101 90 47 93 124 125 196 81 l32 -19 6 28 c12 61 94 78 118 25 9 -21 8 -29
-7 -45 -11 -12 -28 -20 -39 -18 -20 3 -23 14 -15 48 6 24 -24 17 -37 -9 -10
-19 -9 -33 2 -70 20 -68 17 -99 -16 -169 -52 -111 -37 -155 56 -165 91 -10
168 44 166 115 -1 39 -30 80 -63 89 l-24 7 23 1 c13 1 33 -10 47 -25 21 -22
23 -23 18 -5 -8 30 -50 69 -82 76 -16 3 -39 17 -51 30 -20 21 -22 28 -12 50
15 33 60 44 79 20 18 -25 16 -44 -3 -52 -10 -4 -22 1 -30 11 -7 10 -17 15 -23
12 -19 -12 1 -36 50 -60 46 -22 49 -22 49 -5 0 11 10 29 21 40 16 16 29 20 56
16 36 -6 63 0 63 13 0 5 -8 6 -19 3 -24 -6 -36 13 -21 32 20 24 49 18 56 -12
7 -27 -14 -53 -43 -53 -9 0 -11 -8 -7 -24 10 -40 -46 -77 -60 -40 -4 9 -1 23
6 31 10 13 9 15 -7 11 -17 -3 -20 -11 -18 -47 3 -69 9 -78 36 -54 12 11 40 24
62 27 63 11 75 16 75 34 0 12 -3 13 -12 4 -17 -17 -45 -15 -52 4 -10 26 -7 33
19 50 24 16 27 16 45 -1 11 -10 20 -28 20 -41 0 -24 -42 -64 -67 -64 -12 0
-12 -3 1 -16 17 -16 24 -38 28 -88 2 -16 10 -32 18 -34 13 -5 13 -3 1 12 -10
12 -11 20 -4 27 19 19 48 6 51 -23 3 -22 -2 -29 -22 -34 -33 -8 -56 10 -56 44
l0 25 -24 -22 c-44 -42 -96 -9 -75 47 10 26 49 31 49 6 0 -17 21 -15 27 3 5
14 -24 43 -43 43 -23 0 -52 -36 -63 -77 -6 -21 -18 -48 -26 -61 -22 -30 -87
-62 -127 -62 l-33 0 42 -19 c44 -21 63 -45 63 -84 0 -46 -68 -85 -97 -56 -22
22 -81 0 -140 -52 -61 -54 -103 -78 -168 -99 -68 -22 -97 -47 -93 -84 4 -42
33 -43 33 -1 0 33 25 45 50 25 38 -32 -3 -106 -54 -98 -25 4 -27 2 -23 -25 8
-51 -59 -68 -80 -21 -11 23 -10 28 7 40 26 19 40 12 38 -20 -1 -14 2 -26 7
-26 19 0 21 24 5 66 -9 25 -14 55 -11 68 6 25 -14 49 -74 85 -74 44 -138 18
-188 -77 -38 -71 -63 -92 -110 -92 -49 0 -82 37 -82 94 0 36 5 48 26 65 15 12
39 21 54 21 34 0 70 -38 70 -73 0 -55 -67 -87 -94 -44 -15 24 3 51 38 55 14 2
26 7 26 11 0 17 -30 32 -57 29 -62 -7 -65 -112 -4 -138 44 -18 81 6 120 79 66
125 141 141 247 55 38 -32 46 -35 60 -23 10 8 29 19 43 26 l26 11 -33 1 c-77
2 -134 49 -154 128 -13 54 -46 80 -77 63 -22 -11 -28 -44 -11 -55 6 -3 10 3
10 15 0 32 42 23 54 -12 12 -33 -6 -58 -40 -58 -57 0 -87 83 -42 114 l22 16
-27 0 c-57 0 -93 85 -46 110 43 24 91 -39 54 -70 -13 -10 -19 -9 -37 6 -15 14
-20 15 -16 4 6 -20 46 -40 79 -40 15 0 38 -10 53 -21 15 -12 30 -19 33 -16 11
12 8 110 -4 114 -8 3 -11 -6 -10 -24 2 -22 -3 -29 -20 -31 -28 -4 -54 41 -35
60 9 9 4 15 -21 23 -28 9 -32 15 -30 44 1 33 1 33 -35 26 -80 -15 -122 -55
-122 -116 0 -45 31 -87 68 -91 15 -2 22 -6 16 -10 -6 -4 -27 1 -48 11 -20 10
-36 16 -36 12 1 -18 41 -52 83 -70 59 -25 79 -61 52 -91 -31 -35 -85 -21 -85
22 0 26 30 35 46 14 7 -10 17 -15 23 -12 19 12 -1 36 -50 60 -46 22 -49 22
-49 5 0 -33 -38 -61 -78 -58 -50 3 -62 1 -62 -10 0 -5 8 -7 19 -4 22 6 34 -9
25 -32 -4 -10 -16 -15 -33 -13 -20 2 -27 9 -29 31 -3 23 2 30 27 40 17 7 28
16 25 20 -11 11 5 55 23 61 9 4 23 0 31 -8 13 -13 13 -17 1 -32 -12 -14 -11
-16 6 -12 17 3 20 12 20 59 0 60 -8 67 -44 35 -11 -10 -39 -20 -63 -23 -45 -6
-68 -18 -68 -36 0 -7 4 -7 12 1 19 19 46 14 53 -9 10 -29 -25 -64 -54 -54 -24
7 -38 51 -24 74 5 9 23 23 40 32 25 12 28 17 16 25 -8 5 -18 33 -21 63 -5 35
-12 56 -22 59 -13 4 -13 3 -2 -11 18 -22 5 -40 -25 -34 -20 4 -28 -3 -48 -43
-28 -55 -69 -79 -105 -60 -52 28 -43 112 13 118 37 4 57 -13 57 -49 0 -36 -35
-59 -57 -37 -18 19 -7 48 19 48 24 0 19 24 -6 28 -38 8 -64 -56 -34 -86 18
-18 56 -15 74 6 29 33 64 93 64 111 0 12 13 24 38 34 20 9 31 16 25 16 -7 1
-13 10 -13 21 0 15 7 20 24 20 33 0 46 -38 20 -59 -13 -11 -18 -26 -16 -45 l4
-28 23 22 c43 40 94 8 74 -46 -11 -31 -40 -39 -46 -14 -6 21 -18 26 -27 11
-11 -16 6 -41 31 -47 32 -8 58 16 73 69 6 23 14 48 17 56 4 11 -1 13 -25 8
-25 -5 -33 -2 -47 19 -24 37 -8 78 32 81 24 2 35 -3 48 -23 12 -19 14 -29 6
-37 -6 -6 -11 -17 -11 -25 0 -10 7 -8 26 7 14 11 41 25 60 31 l35 12 -24 22
c-13 12 -30 40 -37 62 -20 63 -37 84 -70 84 -29 0 -49 -28 -35 -50 10 -17 25
-11 25 10 0 11 6 20 14 20 22 0 38 -26 34 -57 -2 -23 -8 -29 -35 -31 -23 -2
-35 3 -47 20 l-16 22 0 -25 c0 -14 -5 -30 -12 -37 -17 -17 -53 -15 -68 3 -25
30 15 70 45 45 12 -10 13 -16 3 -28 -11 -13 -10 -14 2 -10 10 3 16 21 18 51 2
36 9 51 29 67 l26 20 -31 0 c-55 0 -86 67 -46 101 36 29 90 -24 57 -56 -19
-20 -30 -19 -42 3 -10 16 -10 16 -11 0 0 -21 29 -38 65 -38 30 0 65 -16 81
-38 9 -12 14 -5 24 37 9 41 10 55 0 66 -20 24 -30 17 -24 -15 6 -25 3 -30 -14
-30 -27 0 -45 25 -40 55 4 19 1 25 -12 25 -24 0 -42 24 -38 52 4 29 51 33 56
4 5 -26 -16 -45 -29 -26 -9 13 -10 13 -6 0 2 -10 18 -15 51 -16 27 -1 54 -8
61 -15 16 -18 27 -87 14 -94 -5 -4 -9 -11 -9 -16 0 -6 10 -3 22 5 12 9 33 16
45 16 13 0 23 4 23 10 0 11 68 9 87 -3 7 -4 10 -14 6 -22 -3 -8 0 -15 6 -15
19 0 12 -33 -12 -64 -17 -21 -28 -27 -38 -20 -8 5 -22 7 -31 6 -11 -2 -23 10
-34 34 -17 35 -17 37 1 50 18 13 18 14 -4 14 -27 0 -68 -39 -77 -75 -10 -40
18 -91 63 -114 55 -28 148 -24 174 8 24 29 24 55 -1 109 -10 23 -17 50 -14 60
5 13 4 14 -4 4 -12 -17 -22 15 -22 71 0 36 -1 37 -27 31 -16 -4 -30 -10 -33
-14 -8 -11 -103 -51 -108 -45 -3 3 17 15 44 27 l49 22 -38 8 c-42 9 -112 42
-122 58 -4 6 -29 29 -57 50 -87 69 -161 52 -213 -50 -29 -56 -77 -100 -111
-100 -59 0 -105 69 -84 124 5 15 10 30 10 32 0 5 -105 54 -115 54 -3 0 -5 -20
-5 -45 0 -41 2 -45 23 -45 46 0 75 -62 42 -90 -26 -22 -50 -8 -47 28 1 18 -2
32 -8 32 -6 0 -10 -39 -9 -103 1 -99 2 -103 23 -102 12 1 28 5 35 9 7 5 20 1
30 -8 10 -9 26 -16 36 -16 10 0 29 -10 41 -21 l23 -21 -6 21 c-7 26 -24 40
-87 71 -57 28 -70 58 -40 91 31 34 74 18 74 -28 0 -16 -6 -23 -20 -23 -11 0
-20 7 -20 15 0 8 -7 15 -15 15 -16 0 -20 -18 -7 -35 4 -5 28 -20 54 -32 l48
-23 0 25 c0 35 40 59 84 51 22 -4 37 -2 45 7 9 12 6 13 -15 9 -22 -4 -25 -2
-22 19 4 29 45 34 61 7 13 -20 -15 -58 -43 -58 -12 0 -16 -7 -12 -28 4 -32
-19 -58 -44 -48 -11 4 -14 13 -10 31 5 18 2 25 -8 25 -21 0 -25 -20 -13 -76
l10 -50 23 23 c14 14 40 24 73 29 35 5 55 13 62 25 6 13 6 19 -1 19 -5 0 -10
-5 -10 -11 0 -6 -10 -9 -22 -7 -16 2 -24 11 -26 30 -6 53 67 59 83 8 9 -29
-20 -69 -55 -77 -28 -5 -29 -6 -11 -22 19 -16 37 -126 19 -115 -4 3 -8 14 -8
25 0 19 0 19 -20 -1 -23 -23 -50 -26 -68 -8 -17 17 -15 53 3 68 17 14 50 6 40
-10 -3 -5 1 -10 9 -10 20 0 21 34 1 50 -30 25 -62 4 -85 -58 -33 -87 -85 -131
-157 -132 l-28 -1 30 -13 c33 -15 62 -43 66 -66 6 -28 -12 -89 -24 -86 -7 1
-9 1 -4 -1 4 -3 7 -16 7 -29 0 -15 6 -24 15 -24 17 0 20 11 5 26 -5 5 -5 15
-1 23 11 17 51 5 51 -16 0 -14 4 -13 23 5 50 47 127 9 127 -63 0 -49 -15 -74
-55 -91 -43 -17 -74 -7 -106 36 -13 17 -34 43 -47 57 -13 14 -27 36 -32 49 -5
13 -16 24 -25 24 -8 0 -24 9 -35 20 -20 20 -20 20 -20 -10 0 -23 6 -33 25 -40
14 -5 25 -14 25 -20 0 -5 -11 -17 -25 -26 -22 -14 -25 -23 -24 -68 1 -48 1
-49 9 -16 15 62 84 83 116 35 15 -23 15 -27 0 -51 -12 -17 -25 -24 -39 -22
-18 2 -22 9 -19 36 3 40 -23 44 -40 7 -9 -20 -7 -37 7 -85 15 -50 16 -67 7
-97 -13 -42 -7 -58 7 -20 12 30 27 41 36 27 5 -8 11 -8 20 0 14 12 45 3 45
-13 0 -6 8 -19 17 -30 16 -17 16 -20 2 -30 -9 -7 -14 -17 -12 -23 2 -6 -3 -17
-12 -24 -12 -10 -18 -10 -30 0 -10 9 -15 9 -15 1 0 -17 -30 -13 -37 6 -4 9
-14 24 -24 34 -16 16 -17 15 -28 -8 -14 -31 -14 -44 1 -41 19 5 20 -28 2 -47
-25 -24 -6 -49 38 -53 37 -3 74 21 62 40 -4 7 -9 6 -14 -2 -10 -16 -40 -5 -40
14 0 22 32 36 53 25 23 -13 22 -65 -1 -79 -14 -9 -13 -10 8 -4 49 13 65 22 93
50 26 26 28 33 24 88 -6 82 -11 91 -65 116 -82 38 -101 69 -64 103 25 23 59
21 72 -2 20 -39 -17 -72 -39 -33 -7 13 -13 14 -22 5 -16 -16 -5 -30 51 -56 43
-21 50 -22 50 -8 0 9 7 27 16 39 13 19 24 22 60 21 24 -2 49 2 54 7 7 7 3 10
-12 10 -29 -1 -36 29 -9 43 15 8 23 7 35 -5 24 -23 19 -43 -14 -62 -21 -12
-28 -22 -24 -37 6 -26 -26 -58 -50 -49 -19 7 -21 25 -4 42 9 9 7 12 -11 12
-23 0 -24 -2 -17 -57 8 -66 12 -73 29 -50 15 20 59 37 96 37 30 0 60 25 46 38
-4 4 -10 1 -12 -5 -6 -16 -39 -17 -48 -2 -12 18 4 57 26 64 26 8 59 -20 59
-50 0 -25 -24 -49 -58 -60 -22 -6 -23 -8 -6 -26 9 -10 17 -33 16 -51 -1 -37
13 -68 31 -67 9 0 9 2 0 6 -16 6 -17 25 -1 41 15 15 48 -3 48 -27 0 -10 -7
-24 -15 -31 -20 -17 -61 0 -70 29 -6 20 -8 20 -28 6 -31 -22 -56 -18 -69 10
-9 19 -8 29 6 50 20 30 36 32 43 5 7 -28 23 -25 23 4 0 23 -16 36 -45 36 -23
0 -45 -29 -56 -76 -13 -52 -56 -100 -102 -113 -32 -9 -32 -9 12 -10 37 -1 48
4 71 30 26 30 28 31 63 18 30 -11 34 -15 26 -31 -12 -22 -6 -22 48 -2 43 17
64 15 132 -13 10 -4 12 -1 8 11 -8 21 16 21 33 1 8 -10 27 -15 49 -13 31 1 37
5 36 24 0 28 -15 45 -15 17 0 -25 -8 -33 -26 -26 -8 3 -14 16 -14 28 0 45 69
41 71 -4 0 -9 6 -3 14 14 30 65 11 170 -34 195 -28 14 -76 12 -90 -3 -14 -17
-2 -30 14 -17 7 6 20 8 29 4 14 -5 17 -11 16 -30 -1 -3 9 -13 20 -22 22 -18
19 -52 -4 -52 -7 0 -12 -10 -12 -22 1 -18 -5 -23 -24 -24 -14 -1 -33 -5 -43
-9 -21 -9 -50 12 -43 32 3 7 -1 13 -9 13 -22 0 -30 41 -11 55 8 7 13 15 9 19
-10 10 63 75 93 82 18 5 34 0 55 -15 l29 -22 0 30 c0 20 8 36 26 50 36 28 58
26 83 -6 19 -23 20 -29 7 -47 -7 -12 -24 -21 -37 -21 -23 0 -27 9 -18 44 7 25
-19 23 -36 -3 -16 -24 -16 -30 0 -89 13 -49 15 -72 7 -100 -12 -42 -6 -50 8
-13 8 22 15 25 52 23 31 -1 43 -6 43 -17 0 -11 -9 -14 -30 -12 -21 2 -34 -3
-43 -18 -7 -11 -8 -20 -3 -20 5 0 11 7 15 15 7 19 32 20 39 1 8 -21 -4 -28
-22 -13 -14 10 -14 10 -4 -4 7 -9 11 -18 8 -21 -3 -2 2 -5 10 -5 8 0 12 4 9 9
-3 4 0 8 6 8 7 0 10 6 7 14 -6 16 22 46 43 46 8 0 24 -10 37 -22 13 -12 23
-17 23 -12 0 24 -37 58 -86 80 -65 29 -82 65 -44 96 12 10 28 18 36 18 17 0
48 -46 39 -60 -10 -16 -33 -12 -44 8 -8 14 -12 15 -22 4 -17 -16 3 -37 60 -63
39 -17 41 -17 41 0 0 38 26 56 81 56 38 0 54 4 57 15 4 12 2 13 -9 3 -21 -17
-43 -1 -34 26 7 24 37 28 55 6 19 -23 7 -49 -28 -61 -23 -7 -29 -13 -21 -21
15 -15 2 -51 -21 -58 -29 -9 -43 4 -35 32 4 18 2 24 -7 21 -9 -3 -13 -25 -13
-65 0 -63 3 -65 40 -33 11 10 40 20 64 23 44 6 81 30 67 44 -4 4 -12 0 -17
-10 -8 -13 -14 -15 -30 -7 -35 20 -17 70 26 70 11 0 55 -30 97 -65 76 -64 78
-65 83 -40 3 14 8 37 11 52 3 16 2 25 -2 21 -4 -4 -10 -25 -14 -45 l-8 -38 -1
36 c-1 33 18 66 31 54 3 -3 3 6 1 20 -3 14 -9 25 -14 25 -5 0 -6 -7 -3 -15 8
-20 -25 -32 -37 -14 -12 19 -11 25 7 43 20 21 29 20 53 -5 l20 -21 11 42 c16
58 4 118 -30 152 -32 31 -65 36 -98 12 -12 -8 -22 -11 -22 -5 0 30 73 40 108
15 20 -14 22 -14 22 4 0 11 10 31 21 46 17 22 28 26 57 24 30 -2 38 -8 46 -31
8 -23 6 -31 -11 -49 -30 -30 -57 -18 -49 22 4 22 2 30 -8 30 -27 0 -39 -28
-31 -73 5 -23 9 -70 9 -105 0 -34 4 -62 8 -62 4 0 8 9 8 19 0 25 17 36 34 21
11 -8 15 -8 19 2 3 10 8 11 26 1 11 -7 27 -13 35 -13 8 0 28 -12 45 -26 25
-21 30 -22 25 -7 -12 32 -38 55 -91 79 -47 20 -53 26 -53 53 0 22 7 35 25 47
24 16 27 16 45 -1 22 -20 26 -50 8 -61 -6 -4 -16 0 -23 9 -16 22 -37 22 -33 0
2 -9 27 -29 56 -43 l52 -28 0 27 c0 39 18 51 77 51 29 0 53 4 53 9 0 5 -8 8
-17 7 -24 -1 -30 39 -7 48 22 8 44 -11 44 -40 0 -21 -30 -42 -52 -36 -4 1 -5
-12 -1 -29 6 -33 -6 -49 -41 -49 -14 0 -17 6 -14 25 6 30 -5 40 -22 20 -9 -11
-9 -26 0 -68 l12 -53 28 28 c21 21 38 28 67 28 41 0 63 14 63 39 -1 13 -2 13
-11 -1 -13 -23 -36 -23 -48 0 -7 14 -6 25 5 40 28 40 74 22 74 -28 0 -34 -28
-60 -65 -60 l-28 0 27 -21 c21 -16 26 -29 26 -64 0 -26 6 -47 15 -55 9 -8 15
-8 15 -2 0 6 -6 12 -12 15 -16 5 7 37 27 37 38 0 42 -63 5 -73 -25 -6 -60 19
-60 44 0 19 -1 19 -29 -2 -23 -17 -32 -19 -50 -10 -36 20 -23 91 16 91 7 0 13
-9 13 -20 0 -23 18 -27 26 -5 9 21 -14 45 -42 45 -26 0 -49 -28 -60 -75 -14
-59 -57 -101 -119 -116 -23 -5 -16 -7 32 -8 56 -1 64 2 78 23 12 18 24 24 48
23 18 -1 31 -6 29 -10 -1 -4 5 -15 14 -24 15 -15 20 -15 69 2 53 18 61 17 128
-10 12 -5 17 -2 17 9 0 20 14 21 30 1 15 -18 61 -20 78 -3 15 15 16 52 2 43
-6 -4 -8 -10 -5 -15 3 -4 -1 -13 -9 -19 -20 -16 -44 14 -29 37 22 37 63 24 68
-20 1 -13 3 -26 4 -30 2 -12 49 -10 56 2 3 6 17 7 31 4 29 -7 56 20 46 46 -5
11 -8 8 -12 -10 -7 -32 -40 -40 -40 -11 0 12 -5 21 -10 21 -6 0 -10 -8 -8 -17
2 -10 -4 -19 -14 -21 -20 -4 -26 32 -8 43 6 4 8 10 5 15 -7 12 23 33 39 27 7
-3 18 -1 23 4 7 7 16 5 26 -5 9 -9 24 -16 34 -16 10 0 29 -7 41 -16 12 -8 22
-11 22 -7 0 21 -33 53 -68 63 -70 23 -93 68 -54 103 34 31 72 14 72 -30 0 -27
-34 -33 -44 -8 -8 22 -26 18 -26 -6 0 -14 11 -25 38 -36 20 -8 44 -21 53 -29
15 -13 16 -12 16 11 1 40 27 60 80 60 33 0 47 4 50 15 4 13 3 13 -6 0 -13 -19
-34 0 -29 26 5 29 52 26 56 -3 2 -13 10 -23 17 -23 8 0 43 -25 79 -55 l65 -55
-6 33 c-3 23 2 43 17 69 13 23 17 39 10 43 -6 3 -10 -3 -10 -14 0 -14 -6 -21
-19 -21 -23 0 -32 19 -19 43 13 25 55 22 64 -5 7 -22 8 -22 20 7 31 72 7 164
-49 191 -31 15 -36 15 -68 0 l-34 -17 24 21 c28 24 58 26 88 5 20 -14 22 -13
28 16 5 20 18 37 36 48 23 12 29 23 29 49 0 20 -5 32 -13 32 -18 0 -98 -52
-122 -80 -23 -25 -70 -51 -148 -80 -68 -26 -102 -60 -93 -94 10 -40 36 -33 36
9 0 31 3 35 25 35 38 0 53 -45 27 -79 -15 -21 -28 -26 -61 -26 -40 -1 -42 1
-47 35 -5 29 -10 35 -30 35 -13 0 -24 -3 -24 -7 0 -17 -36 -6 -59 17 -16 17
-21 31 -16 43 4 9 8 26 9 37 1 13 8 20 21 21 11 1 28 5 37 9 12 5 26 0 43 -16
25 -24 34 -59 14 -59 -5 0 -7 -5 -4 -11 5 -7 12 -3 21 9 7 11 28 25 46 33 l33
14 -50 7 c-41 6 -57 14 -88 48 -34 36 -38 46 -35 80 3 35 2 38 -13 24 -21 -19
-32 -18 -53 5 -32 36 -14 62 34 50 25 -7 17 25 -11 38 -20 10 -34 9 -75 -3
-59 -18 -108 -12 -174 21 -66 33 -112 33 -139 -1 -15 -18 -19 -34 -15 -53 8
-33 29 -55 44 -46 8 5 6 11 -7 20 -14 10 -15 17 -7 25 20 20 49 7 52 -23 4
-36 -32 -52 -66 -30 -23 14 -24 14 -17 -9 23 -74 59 -108 115 -108 40 0 75 24
89 60 8 20 10 21 10 6 1 -11 -9 -30 -21 -43 -12 -13 -17 -23 -11 -23 23 0 62
43 79 86 19 49 44 69 74 59 43 -14 50 -77 10 -90 -38 -12 -57 25 -22 44 13 7
14 13 5 22 -16 16 -30 4 -58 -52 -23 -45 -24 -49 -7 -49 39 0 57 -26 57 -81 0
-38 4 -54 15 -57 12 -4 13 -3 2 10 -10 13 -9 18 3 28 13 11 19 10 33 -4 22
-21 5 -51 -29 -51 -18 0 -27 8 -35 32 -7 24 -13 30 -21 22 -15 -15 -51 -2 -58
23 -10 29 10 46 36 30 18 -12 20 -11 17 5 -3 15 -13 18 -57 16 -30 -2 -56 -5
-59 -7 -2 -3 5 -17 17 -32 12 -15 21 -41 21 -59 0 -35 33 -85 47 -72 4 5 0 13
-10 18 -13 8 -15 14 -7 30 19 34 70 18 70 -23 0 -21 1 -21 34 -7 20 10 30 9
51 -5 43 -29 28 -86 -23 -86 -22 0 -24 3 -19 30 7 34 -7 48 -29 29 -11 -9 -14
-24 -10 -48 18 -128 18 -142 1 -187 -22 -59 -28 -52 -9 11 28 94 -12 185 -81
185 -19 0 -37 -4 -40 -10 -3 -5 -12 -10 -18 -10 -17 1 32 40 50 40 8 0 27 -7
43 -15 28 -14 30 -14 30 3 0 10 6 24 13 31 10 11 8 11 -10 2 -12 -6 -29 -11
-37 -11 -22 0 -56 40 -56 66 l0 23 -25 -25 c-17 -17 -35 -25 -53 -23 -48 4
-62 -1 -62 -18 0 -15 2 -15 9 -4 14 21 43 5 39 -21 -3 -27 -46 -38 -59 -16
-16 25 -9 48 21 67 27 16 29 20 15 31 -41 34 6 96 54 71 28 -15 28 -51 0 -51
-11 0 -17 -4 -14 -10 9 -15 41 -12 56 6 23 27 -7 64 -69 84 -29 10 -61 25 -72
35 -17 16 -20 16 -20 2 0 -8 6 -17 13 -20 9 -3 9 -11 -3 -33 -12 -21 -24 -29
-48 -31 -23 -2 -32 1 -32 12 0 8 -4 15 -10 15 -14 0 -12 33 3 54 7 10 27 18
45 18 18 1 32 2 32 3 0 2 -7 16 -15 31 -8 16 -15 45 -15 64 l-1 35 -13 -31
c-16 -35 -61 -74 -86 -74 -10 0 -34 7 -55 16 -38 15 -65 13 -65 -6 0 -6 10 -8
24 -4 26 6 39 -6 30 -29 -14 -37 -74 -24 -74 16 0 36 15 50 47 45 27 -4 29 -2
25 23 -8 51 66 92 98 54 20 -25 8 -50 -25 -50 -42 0 -41 -29 1 -33 39 -4 61
23 94 115 13 37 43 87 75 125 63 78 75 98 75 135 0 46 -33 86 -98 121 -71 38
-92 63 -92 110 0 49 37 82 94 82 36 0 48 -5 65 -26 28 -35 26 -69 -4 -99 -28
-29 -61 -32 -93 -9 -43 30 -8 106 36 78 9 -6 17 -21 17 -32 1 -29 12 -37 30
-22 18 15 20 64 2 78 -41 35 -119 15 -131 -33 -10 -39 17 -78 76 -109 29 -16
61 -36 71 -45 18 -15 18 -14 12 20 -8 44 12 64 67 64 30 0 35 -2 23 -11 -8 -6
-15 -20 -15 -32 0 -21 -25 -36 -41 -26 -6 3 -7 15 -3 26 4 15 3 18 -6 13 -8
-5 -10 -22 -7 -48 4 -27 2 -36 -4 -26 -5 7 -9 9 -9 3 0 -22 13 -23 38 -4 13
11 35 20 48 20 34 0 54 10 53 29 0 10 -2 11 -6 4 -7 -18 -32 -16 -39 2 -7 18
13 45 32 45 8 0 20 -11 26 -25 9 -21 8 -28 -7 -45 -10 -11 -25 -20 -34 -20
-12 0 -12 -3 -3 -12 7 -7 12 -26 12 -44 0 -18 7 -37 18 -45 15 -12 16 -12 4 2
-10 13 -10 18 1 27 17 15 40 -1 35 -24 -5 -27 -44 -30 -58 -5 -9 17 -14 19
-29 9 -28 -17 -53 -3 -49 29 3 32 38 46 38 17 0 -13 3 -15 11 -7 16 16 3 43
-20 43 -27 0 -51 -37 -45 -69 6 -32 -16 -73 -75 -142 l-45 -51 30 6 c20 4 41
0 68 -15 27 -14 42 -17 49 -10 8 8 5 11 -9 11 -26 0 -34 8 -27 26 7 18 37 18
53 -1 18 -21 8 -48 -20 -55 -24 -6 -24 -6 9 -18 73 -26 167 -8 191 37 21 40 4
106 -25 94 -14 -5 -13 -7 1 -17 14 -11 14 -16 4 -35 -7 -13 -17 -20 -26 -17
-8 3 -14 -1 -14 -9 0 -22 -41 -30 -56 -10 -7 9 -17 14 -22 11 -13 -8 -34 19
-31 41 1 10 -1 26 -6 36 -9 21 12 50 32 43 7 -3 13 1 13 9 0 17 45 21 55 5 3
-6 13 -10 22 -10 20 0 72 -57 80 -88 4 -16 -2 -33 -16 -53 l-22 -29 29 0 c30
0 55 -20 69 -56 8 -19 9 -19 25 -2 16 16 15 19 -14 47 -16 16 -27 34 -23 40 3
6 -1 14 -9 17 -22 9 -20 45 3 51 12 3 17 11 14 23 -6 22 31 37 51 21 9 -7 16
-7 24 1 16 16 45 -10 39 -34 -3 -11 0 -18 9 -18 18 0 18 -49 0 -56 -8 -3 -16
-15 -19 -26 -5 -17 -11 -20 -36 -15 -33 7 -39 -1 -19 -21 14 -14 48 -16 48 -2
0 12 71 10 87 -2 6 -5 9 -16 6 -24 -3 -8 0 -14 6 -14 16 0 14 -27 -5 -55 -12
-19 -24 -24 -55 -23 -33 0 -41 5 -54 31 -20 39 -19 54 3 60 13 4 13 5 -4 6
-32 2 -72 -36 -80 -74 -8 -46 19 -90 71 -115 51 -25 73 -26 51 -4 -19 18 -21
45 -4 62 28 28 83 -3 58 -33 -7 -8 -16 -15 -21 -15 -5 0 -9 7 -9 15 0 8 -4 15
-10 15 -5 0 -10 -9 -10 -19 0 -25 51 -44 85 -31 52 20 57 64 15 152 -51 108
-33 201 46 234 31 13 39 13 65 0 24 -12 29 -12 29 -1 0 8 9 29 20 49 14 22 17
37 10 41 -6 3 -10 -3 -10 -14 0 -14 -6 -21 -19 -21 -23 0 -32 19 -19 43 12 23
44 22 62 -4 14 -21 15 -20 25 17 15 54 14 90 -5 129 -23 50 -99 78 -120 44 -3
-5 -11 -9 -17 -9 -7 1 -1 10 12 20 27 23 60 26 86 6 18 -13 21 -11 37 25 9 21
22 39 28 39 5 0 10 8 10 17 0 15 -2 14 -15 -3 -23 -34 -69 -49 -105 -34 -62
26 -78 104 -31 151 35 34 59 36 94 9 35 -28 41 -53 22 -90 -19 -37 -68 -43
-85 -9 -15 26 13 62 42 53 23 -7 26 31 2 40 -47 18 -84 -12 -84 -69 0 -34 34
-75 63 -75 51 0 97 53 97 112 0 32 -3 35 -50 52 -28 10 -75 41 -109 71 -73 65
-93 73 -120 46 -12 -12 -27 -21 -34 -21 -9 0 -12 -9 -9 -29 3 -22 -1 -32 -17
-41 -28 -14 -44 -4 -38 26 3 15 0 24 -9 24 -22 0 -26 -19 -13 -75 l12 -54 19
24 c11 15 34 27 56 30 78 13 82 15 82 38 -1 20 -2 20 -11 5 -13 -23 -36 -23
-48 0 -12 23 11 62 38 62 61 0 53 -95 -10 -115 -17 -6 -18 -9 -7 -22 7 -9 15
-38 18 -66 3 -33 10 -52 20 -55 13 -5 13 -3 0 12 -13 16 -12 20 5 33 18 12 22
12 37 -7 19 -24 15 -47 -12 -55 -28 -9 -51 5 -57 37 l-6 29 -22 -21 c-39 -37
-85 -10 -72 42 9 34 37 45 44 18 6 -24 21 -26 29 -5 9 21 -14 45 -42 45 -27 0
-48 -28 -63 -86 -6 -22 -21 -50 -34 -62 -27 -25 -87 -52 -119 -52 -20 -1 -19
-3 8 -14 40 -18 64 -52 64 -91 0 -34 -8 -48 -30 -54 -8 -2 -23 -6 -32 -8 -19
-6 -68 38 -68 60 0 8 8 25 18 38 27 32 52 19 52 -26 0 -37 8 -43 28 -23 34 34
-9 87 -91 114 -60 19 -133 62 -168 100 -52 56 -128 71 -178 35 -15 -11 -42
-47 -59 -79 -51 -96 -108 -118 -163 -63 -57 57 -26 151 50 151 46 0 71 -24 71
-68 0 -33 -29 -72 -54 -72 -18 0 -46 27 -46 44 0 19 22 36 47 36 31 0 30 27
-2 42 -38 17 -75 -12 -75 -60 0 -51 23 -82 61 -82 47 0 67 16 99 79 62 124
148 144 247 58 81 -71 79 -71 75 -33 -4 35 13 80 27 72 4 -3 6 6 3 19 -5 28
-25 35 -20 8 4 -22 -30 -30 -38 -9 -14 37 45 63 65 29 27 -47 51 72 27 133
-26 65 -87 89 -133 52 -19 -16 -5 -29 17 -16 20 13 50 -3 50 -27 0 -7 7 -15
15 -19 19 -7 20 -45 1 -52 -8 -3 -13 -11 -10 -18 7 -18 -22 -40 -42 -32 -9 4
-23 1 -30 -5 -16 -13 -44 4 -44 26 0 7 -7 15 -15 19 -20 7 -20 56 0 56 9 0 12
6 8 15 -7 19 50 73 86 82 15 4 36 0 53 -10 26 -15 28 -15 28 2 0 31 39 71 69
71 57 0 82 -79 31 -95 -30 -9 -43 4 -36 36 4 21 2 29 -8 29 -27 0 -39 -28 -31
-73 5 -23 9 -70 9 -105 1 -34 5 -62 9 -62 5 0 6 4 2 9 -3 5 2 17 11 26 12 11
20 13 29 5 10 -8 14 -7 18 2 3 10 9 10 23 1 11 -6 18 -15 17 -21 -1 -5 9 -7
23 -4 25 4 64 -21 64 -41 0 -6 -10 -1 -23 11 -31 29 -45 28 -39 -3 3 -18 0
-25 -11 -25 -10 0 -13 -6 -10 -19 5 -20 -29 -41 -35 -21 -3 8 -8 8 -18 -1 -17
-14 -44 -5 -44 16 0 8 -4 15 -10 15 -5 0 -10 10 -10 23 -1 33 -49 -60 -50 -95
0 -53 60 -85 111 -58 20 11 27 40 9 40 -5 0 -10 -4 -10 -10 0 -16 -27 -12 -34
5 -5 14 17 45 33 45 13 0 41 -36 41 -53 0 -9 -10 -23 -22 -32 -23 -16 -23 -16
7 -9 85 20 126 69 121 144 -5 66 -20 87 -84 118 -50 24 -57 31 -60 59 -3 27 1
35 23 45 32 14 58 2 63 -31 4 -27 -27 -41 -40 -18 -12 22 -28 22 -28 -1 0 -11
19 -26 53 -43 l52 -25 2 25 c2 33 30 52 73 51 51 -3 60 -1 60 9 0 5 -9 7 -20
4 -15 -4 -20 0 -20 15 0 11 7 25 15 32 12 10 20 8 41 -9 15 -12 32 -21 40 -21
7 0 37 -22 67 -50 30 -27 58 -50 61 -50 3 0 6 17 6 39 0 35 19 68 32 56 3 -3
3 6 1 20 -6 28 -26 35 -21 8 4 -22 -30 -30 -38 -9 -3 9 -1 23 7 32 18 22 52
13 59 -16 l6 -24 11 29 c30 79 23 143 -22 185 -27 26 -75 31 -99 11 -21 -18
-10 -33 14 -19 14 9 22 9 35 -2 9 -7 14 -19 11 -26 -2 -6 4 -14 15 -17 22 -6
26 -45 5 -53 -8 -3 -13 -11 -10 -18 7 -18 -22 -40 -42 -32 -9 4 -22 2 -29 -4
-17 -14 -45 -2 -45 20 0 10 -7 20 -15 24 -20 7 -20 56 0 56 9 0 12 6 8 15 -7
19 50 73 86 82 15 4 36 0 53 -10 27 -16 28 -15 28 7 0 12 11 33 25 46 28 26
34 70 9 70 -24 0 -55 -19 -111 -71 -35 -31 -76 -56 -125 -75 -114 -43 -138
-66 -123 -114 11 -34 35 -24 35 14 0 44 27 57 52 26 24 -30 23 -46 -8 -77 -17
-17 -33 -24 -49 -20 -21 4 -24 1 -19 -18 10 -40 -45 -72 -74 -43 -19 19 -14
56 8 63 28 9 41 -2 34 -31 -4 -15 -2 -24 6 -24 9 0 10 11 5 38 -10 54 -10 114
-1 134 6 13 -2 24 -35 47 -82 60 -162 34 -214 -69 -42 -83 -103 -112 -151 -72
-33 26 -47 60 -40 98 8 40 39 64 83 64 56 0 89 -59 59 -104 -32 -49 -90 -40
-84 13 2 21 9 27 36 29 36 4 40 13 16 36 -34 35 -94 2 -94 -53 0 -40 35 -81
69 -81 40 0 68 25 101 90 46 90 113 120 195 85 17 -8 16 -4 -6 22 -14 17 -31
52 -38 77 -13 55 -44 76 -80 56 -12 -6 -21 -19 -19 -27 5 -25 25 -27 31 -3 7
27 35 16 44 -18 12 -51 -38 -81 -75 -44 -20 20 -20 20 -26 -9 -7 -35 -49 -50
-73 -26 -21 21 -8 57 22 57 26 0 39 -22 22 -39 -8 -8 -8 -11 0 -11 15 0 23 24
23 69 0 20 6 43 12 49 10 10 -3 12 -67 10 -67 -3 -80 -6 -83 -20 -4 -22 23
-24 32 -3 7 20 32 19 40 -1 9 -24 -12 -54 -38 -54 -30 0 -60 34 -53 60 4 16 0
20 -22 20 -23 0 -28 -6 -40 -46 -10 -34 -11 -51 -3 -70 17 -37 43 -31 40 8 -3
27 1 34 19 36 31 5 59 -39 43 -67 -12 -24 -49 -36 -80 -26 -23 7 -52 63 -42
80 3 5 -6 2 -21 -7 -32 -22 -66 -23 -94 -3 -21 15 -21 15 -6 -15 18 -38 11
-73 -22 -106 -43 -43 -106 -27 -146 38 -13 22 -32 44 -41 49 -10 5 -18 18 -18
28 0 27 -21 40 -73 47 -52 7 -66 1 -145 -69 -30 -27 -80 -56 -129 -76 -45 -18
-89 -41 -98 -51 -20 -22 -17 -75 5 -75 10 0 14 8 12 26 -1 15 5 32 13 39 13
11 19 10 35 -5 41 -38 15 -99 -42 -99 -31 0 -34 -3 -30 -23 9 -48 -40 -70 -74
-32 -21 24 -9 54 22 54 15 0 19 -7 17 -28 -1 -18 2 -27 10 -24 15 5 13 42 -3
83 -19 44 1 89 49 114 34 18 35 19 10 20 -14 0 -47 11 -72 24 -43 23 -46 24
-44 5 1 -10 7 -19 13 -19 7 0 14 -7 18 -15 6 -17 -2 -45 -14 -45 -5 0 -10 -10
-12 -22 -2 -17 -10 -23 -28 -24 -14 0 -31 -3 -38 -7 -17 -11 -55 12 -48 29 3
8 -1 14 -9 14 -22 0 -30 41 -10 56 9 7 15 17 12 21 -6 10 36 54 70 71 19 11
20 15 10 48 -20 64 -97 87 -97 28 0 -29 16 -32 23 -3 5 17 9 19 26 10 23 -13
34 -41 25 -65 -9 -24 -52 -32 -72 -13 -14 15 -17 14 -34 -13 -26 -43 -78 -35
-78 12 0 23 33 41 48 26 16 -16 15 -35 0 -41 -10 -4 -10 -6 -1 -6 17 -1 26 17
25 53 0 17 6 41 14 54 14 21 13 22 -10 22 -15 0 -30 -8 -36 -20 -6 -11 -20
-20 -31 -20 -12 0 -23 8 -26 20 -3 11 -14 20 -24 20 -24 0 -24 -3 7 -67 23
-46 26 -61 20 -106 -18 -132 -18 -133 -2 -146 20 -17 39 -5 27 17 -12 25 -3
42 25 42 32 0 51 -38 35 -69 -27 -49 -106 -29 -118 29 -5 28 -7 29 -26 15 -12
-8 -31 -15 -42 -15 -31 0 -107 61 -102 82 3 9 -1 19 -9 22 -19 7 -18 45 1 52
8 4 15 14 15 24 0 22 28 34 45 20 7 -6 20 -8 29 -4 20 8 49 -14 42 -32 -3 -7
2 -15 10 -18 21 -8 17 -47 -5 -53 -11 -3 -17 -11 -15 -17 3 -7 -2 -19 -11 -26
-13 -11 -21 -11 -35 -2 -11 7 -21 8 -25 2 -8 -13 28 -30 63 -30 37 0 77 43 86
94 7 35 -5 97 -24 126 -8 12 -10 11 -10 -8 0 -26 -26 -40 -49 -25 -23 15 -21
48 4 48 14 0 19 -6 17 -17 -5 -28 15 -21 20 7 3 13 1 23 -5 22 -5 -1 -12 4
-15 12 -3 9 0 11 9 6 8 -5 10 -4 6 0 -16 18 -58 16 -75 -3 -9 -10 -13 -12 -8
-5 18 27 -6 26 -57 -2 -60 -32 -105 -30 -150 5 -30 24 -47 26 -47 5 0 -8 -4
-15 -9 -15 -5 0 -11 7 -15 15 -10 28 -43 17 -50 -17z m-1 -79 c6 1 9 7 8 12
-8 28 -6 34 15 37 17 3 25 -2 29 -16 5 -20 5 -20 24 -1 29 29 83 25 108 -7 31
-39 28 -89 -8 -125 -41 -41 -83 -39 -127 5 -19 19 -34 41 -34 49 0 8 -11 22
-25 31 -24 16 -33 45 -17 60 4 4 9 -5 12 -21 3 -15 10 -26 15 -24z m1192 23
c4 -9 12 -21 20 -25 17 -11 17 -36 -1 -43 -8 -3 -12 -12 -10 -19 7 -16 -1 -21
-49 -29 -30 -6 -38 -4 -44 11 -4 10 -13 24 -20 31 -17 18 -16 31 2 38 8 4 12
11 8 17 -9 15 19 32 56 34 22 2 34 -3 38 -15z m412 -81 c23 -32 26 -48 12 -70
-8 -12 -15 -10 -40 11 -17 15 -35 28 -41 30 -8 2 -8 11 -1 31 14 36 44 35 70
-2z m-1039 -19 c0 -14 -23 -32 -42 -32 -20 0 -25 26 -5 33 20 8 47 8 47 -1z
m498 -16 c3 -12 -1 -17 -10 -14 -7 3 -15 13 -16 22 -3 12 1 17 10 14 7 -3 15
-13 16 -22z m981 -15 c23 -32 27 -61 10 -61 -6 0 -9 -7 -6 -15 8 -18 -9 -29
-51 -32 -23 -1 -35 3 -39 15 -4 9 -13 22 -22 28 -22 17 13 88 40 81 10 -3 22
-1 25 4 9 16 22 10 43 -20z m-1028 -17 c9 -17 10 -28 3 -32 -6 -4 -13 -14 -16
-23 -8 -20 -68 -24 -68 -4 0 7 -6 15 -12 18 -22 7 4 60 32 67 33 9 45 4 61
-26z m-610 -101 c7 -7 -7 -27 -45 -66 -55 -57 -85 -62 -47 -8 12 16 21 31 21
34 0 3 4 17 9 30 10 25 42 30 62 10z m577 -55 c28 -54 28 -60 -2 -47 -24 11
-60 72 -49 83 15 14 29 3 51 -36z m-971 4 c4 -10 12 -21 20 -25 17 -11 17 -36
-1 -43 -8 -3 -13 -11 -10 -18 7 -17 -22 -41 -31 -26 -5 8 -11 8 -20 0 -16 -13
-45 -3 -45 16 0 8 -4 14 -9 14 -16 0 -20 29 -6 44 8 7 11 16 8 20 -13 12 18
32 52 33 25 1 38 -4 42 -15z m59 -128 c-3 -9 -6 -18 -6 -20 0 -2 -7 -4 -15 -4
-18 0 -19 12 -3 28 17 17 31 15 24 -4z m114 -49 c0 -7 6 -15 13 -18 9 -3 9
-11 2 -32 -14 -40 -58 -51 -85 -22 -21 22 -27 47 -11 47 5 0 11 8 13 18 6 23
68 29 68 7z m857 -1 c8 -22 -38 -67 -60 -58 -21 8 -21 18 -1 49 18 28 52 33
61 9z m-296 -4 c10 -6 19 -16 19 -22 0 -7 -7 -5 -17 4 -10 9 -27 18 -38 21
-17 4 -18 5 -2 6 10 0 27 -4 38 -9z m748 -29 c11 -7 10 -13 -5 -35 -21 -28
-32 -29 -48 -4 -7 12 -6 21 3 32 15 18 29 20 50 7z m-375 -17 c9 -3 16 -12 16
-19 0 -7 7 -15 15 -19 19 -7 20 -35 1 -42 -8 -3 -12 -12 -10 -19 7 -17 -13
-29 -54 -32 -23 -1 -35 3 -39 15 -4 9 -13 23 -20 30 -16 17 -17 29 0 39 6 4
12 15 12 23 0 10 10 15 28 15 15 -1 27 3 27 7 0 10 4 10 24 2z m-388 -79 c-7
-18 -26 -20 -26 -2 0 18 24 41 28 27 2 -6 1 -17 -2 -25z m1304 21 c0 -7 -6
-19 -14 -25 -19 -16 -32 5 -16 24 16 19 30 19 30 1z m-1692 -29 c15 -24 15
-29 2 -37 -8 -5 -11 -10 -5 -10 22 0 -17 -23 -45 -27 -21 -2 -30 1 -30 12 0 8
-4 15 -10 15 -5 0 -10 9 -10 20 0 11 5 20 10 20 6 0 9 5 8 12 -3 10 37 28 55
24 5 -1 16 -14 25 -29z m1826 -39 c15 -25 -3 -52 -38 -56 -23 -3 -25 -6 -15
-18 19 -23 -5 -66 -34 -62 -17 2 -22 9 -20 31 1 18 -2 27 -10 24 -11 -4 -14
-104 -3 -115 3 -2 17 5 32 17 15 11 39 21 55 21 40 0 79 17 79 35 0 20 -10 19
-25 -2 -11 -15 -15 -15 -29 -4 -32 27 -13 71 31 71 23 0 43 -26 43 -54 0 -25
-37 -56 -66 -56 l-26 0 22 -18 c16 -13 24 -31 26 -58 1 -21 2 -45 3 -51 1 -7
9 -13 19 -13 14 0 14 2 3 9 -21 14 -5 43 21 39 18 -2 23 -9 23 -33 0 -25 -4
-30 -27 -33 -22 -3 -32 3 -46 28 -17 27 -21 29 -32 15 -34 -41 -94 2 -71 51
13 29 41 31 48 4 6 -24 23 -17 23 10 0 11 -9 24 -21 30 -28 16 -68 -11 -76
-51 -3 -16 -14 -34 -25 -40 -40 -22 -82 20 -58 58 10 17 10 17 9 -2 -2 -34 1
-45 11 -45 6 0 9 12 8 28 -3 24 0 27 23 25 26 -1 26 -1 12 28 -22 45 -27 101
-10 123 11 15 27 20 67 20 38 1 55 5 58 16 3 12 2 12 -8 3 -27 -25 -54 9 -28
35 16 16 38 12 52 -10z m-1255 -11 c8 -10 7 -18 -2 -31 -12 -16 -14 -16 -41 5
-27 21 -27 23 -10 30 29 11 40 10 53 -4z m871 -31 c0 -14 -37 -18 -46 -5 -3 5
0 16 6 25 10 11 16 12 26 3 8 -6 14 -17 14 -23z m574 -32 c9 -3 16 -14 16 -24
0 -10 7 -20 15 -24 19 -7 20 -45 1 -52 -8 -3 -12 -13 -9 -24 5 -17 -21 -34
-43 -29 -5 1 -17 -1 -27 -6 -19 -8 -47 10 -47 30 0 7 -7 15 -15 19 -19 7 -19
45 0 52 8 4 12 10 9 15 -10 17 18 41 42 35 13 -4 26 -2 29 4 7 12 8 12 29 4z
m-1100 -120 c9 -3 16 -11 16 -17 0 -6 8 -19 17 -30 16 -17 16 -20 3 -30 -9 -7
-14 -20 -12 -29 2 -10 0 -18 -5 -19 -72 -9 -85 -7 -90 11 -3 10 -11 21 -19 24
-17 7 -18 20 -1 38 6 7 12 20 12 28 0 8 13 18 30 21 17 4 31 7 32 8 1 0 8 -2
17 -5z m390 -29 c12 -19 13 -28 3 -48 -10 -21 -18 -26 -47 -24 -19 1 -33 6
-32 11 2 5 -3 13 -11 18 -14 7 -14 12 -1 37 18 37 65 41 88 6z m-1086 -26 c15
-24 10 -34 -13 -26 -15 6 -22 47 -7 47 4 0 13 -9 20 -21z m1385 -33 c27 -35
34 -56 19 -56 -9 0 -72 74 -72 84 0 17 29 2 53 -28z m-1273 8 c11 -12 10 -18
-5 -32 -13 -13 -19 -14 -22 -4 -8 20 -26 14 -20 -8 3 -11 1 -20 -4 -20 -5 0
-11 11 -15 25 -11 45 37 74 66 39z m660 -50 c0 -13 -21 -44 -30 -44 -14 0 -12
24 2 38 13 13 28 16 28 6z m860 -50 c0 -19 -16 -18 -24 2 -11 27 -7 37 9 24 8
-7 15 -19 15 -26z m-940 6 c11 -21 -2 -60 -20 -60 -6 0 -5 9 2 20 16 25 2 39
-15 16 -12 -16 -14 -16 -26 -2 -7 9 -11 23 -7 31 8 22 53 19 66 -5z m211 -33
c25 -30 25 -39 -8 -96 -2 -2 -21 -6 -43 -8 -32 -3 -42 0 -47 14 -4 10 -13 24
-20 32 -12 11 -11 16 3 32 9 11 14 19 9 19 -4 0 -2 6 4 14 19 22 81 18 102 -7z
m267 -106 c9 -5 24 -12 33 -14 24 -8 24 -86 1 -94 -9 -4 -22 -13 -28 -21 -8
-11 -15 -12 -30 -4 -10 6 -26 13 -35 15 -11 4 -16 18 -16 51 -1 38 2 46 17 46
10 0 20 7 24 15 6 18 10 18 34 6z m-1498 -11 c0 -18 -43 -70 -57 -70 -19 0
-16 18 8 51 20 28 49 39 49 19z m1847 -146 c-10 -10 -37 16 -37 34 0 13 4 12
22 -5 12 -13 19 -25 15 -29z m-870 14 c42 -15 42 -28 0 -28 -31 0 -57 14 -57
32 0 11 18 10 57 -4z m444 -4 c11 -14 10 -15 -11 -12 -13 1 -25 9 -28 16 -5
17 23 15 39 -4z m314 -15 c8 -12 -33 -59 -52 -59 -21 0 -15 37 9 54 26 19 35
20 43 5z m-840 -10 c4 -5 -1 -12 -9 -15 -9 -3 -13 -11 -10 -16 4 -6 10 -5 15
3 6 10 11 11 20 2 18 -18 -16 -60 -49 -61 -41 0 -47 9 -21 30 l24 19 -24 -11
c-17 -9 -26 -9 -34 -1 -8 8 -9 14 -1 19 6 4 13 14 16 23 7 17 64 24 73 8z
m245 -30 c0 -8 5 -8 15 1 18 15 45 6 45 -15 0 -8 5 -15 10 -15 6 0 10 -11 10
-25 0 -14 -5 -25 -11 -25 -5 0 -8 -4 -5 -9 8 -13 -21 -34 -38 -28 -8 3 -17 1
-19 -6 -5 -14 -40 2 -37 17 1 5 -5 13 -14 18 -17 10 -22 48 -6 48 6 0 10 6 10
13 0 14 20 37 32 37 4 0 8 -5 8 -11z m-1090 -72 c0 -5 -10 -2 -22 9 -13 10
-25 20 -27 21 -1 1 0 7 5 14 5 9 12 6 26 -10 10 -13 18 -28 18 -34z m695 -7
c-29 -31 -50 -35 -50 -10 0 10 45 34 74 39 3 1 -8 -13 -24 -29z m-345 14 c0
-18 -24 -43 -50 -52 -36 -13 -38 -4 -5 32 21 23 55 36 55 20z m1718 -21 c2
-13 9 -23 17 -23 20 0 27 -31 10 -50 -8 -9 -15 -24 -15 -33 0 -16 -37 -34 -47
-23 -4 3 -12 1 -19 -5 -16 -13 -54 5 -54 26 0 8 -4 15 -9 15 -17 0 -24 43 -10
54 8 6 14 17 15 24 1 6 2 17 3 23 0 7 13 9 31 7 17 -3 30 -1 30 4 0 5 10 8 23
6 14 -2 23 -11 25 -25z m-1617 8 c3 -1 10 -11 16 -23 15 -35 -10 -75 -47 -76
-31 -1 -39 15 -18 36 18 18 19 42 1 35 -10 -4 -11 -8 -3 -13 8 -5 6 -11 -5
-20 -24 -20 -40 1 -23 31 20 36 24 38 79 30z m284 -41 c4 -6 13 -5 24 2 24 15
53 3 49 -19 -3 -15 -12 -17 -47 -15 -27 3 -41 0 -37 -6 3 -6 0 -13 -6 -15 -9
-4 -10 -6 -1 -6 6 -1 15 4 18 9 3 6 15 10 26 10 16 0 17 -3 7 -19 -7 -11 -16
-17 -22 -14 -5 4 -6 1 -1 -7 6 -10 11 -9 21 4 7 10 15 13 18 7 4 -5 2 -12 -4
-16 -14 -8 -13 -25 2 -25 6 0 8 3 5 7 -4 3 0 15 10 25 11 13 12 18 3 18 -10 0
-10 3 0 15 10 12 16 13 26 4 18 -15 18 -45 -1 -53 -8 -3 -12 -12 -9 -20 7 -19
-10 -28 -63 -33 -38 -3 -46 0 -50 16 -3 11 -11 22 -19 25 -19 7 -18 56 1 56 9
0 12 6 9 15 -11 27 27 58 41 35z m1052 -92 c4 -7 6 -21 5 -30 -2 -10 1 -18 7
-18 5 0 11 12 13 28 4 24 5 25 13 8 11 -24 -5 -50 -34 -54 -41 -6 -67 38 -39
66 15 15 25 15 35 0z m-293 -64 c6 -10 17 -23 24 -27 17 -11 15 -46 -2 -53 -8
-3 -13 -11 -10 -18 6 -17 -22 -40 -40 -33 -7 3 -18 1 -24 -5 -15 -15 -52 0
-52 22 0 10 -7 20 -15 24 -18 7 -20 42 -2 53 6 4 12 17 12 28 0 16 7 20 32 20
17 0 35 3 39 8 11 11 26 4 38 -19z m-1683 6 c10 -6 19 -16 19 -22 0 -7 -7 -5
-17 4 -10 9 -27 18 -38 21 -17 4 -18 5 -2 6 10 0 27 -4 38 -9z m1526 -15 c2
-6 -2 -19 -9 -28 -12 -16 -16 -16 -33 -3 -17 12 -17 16 -6 30 15 18 42 18 48
1z m-1541 -110 c-7 -18 -26 -20 -26 -2 0 18 24 41 28 27 2 -6 1 -17 -2 -25z"/>
<path d="M223 1859 c-30 -11 -30 -39 0 -39 25 0 47 -17 47 -36 0 -17 -28 -44
-46 -44 -23 0 -54 38 -54 66 0 23 -2 24 -15 10 -14 -14 -14 -18 0 -45 42 -81
145 -64 145 24 0 52 -34 80 -77 64z"/>
<path d="M1233 1814 c-3 -9 3 -25 16 -37 11 -12 21 -16 21 -10 0 6 -7 14 -16
17 -10 4 -13 13 -9 26 7 24 -3 27 -12 4z"/>
<path d="M1285 1795 c0 -22 1 -23 12 -9 7 9 10 21 7 25 -10 17 -19 9 -19 -16z"/>
<path d="M2081 1692 c-12 -22 4 -52 27 -52 14 0 14 2 3 9 -8 5 -10 14 -6 21 6
9 4 11 -5 5 -8 -5 -11 -3 -8 6 3 8 13 14 24 14 15 0 18 -6 16 -30 -2 -23 0
-26 8 -15 15 22 12 47 -6 54 -27 10 -43 7 -53 -12z"/>
<path d="M64 1525 c-18 -15 -18 -15 8 -9 20 4 29 2 34 -9 11 -28 -6 -40 -32
-22 -26 16 -32 12 -11 -8 17 -18 36 -15 52 6 14 20 10 51 -6 41 -5 -3 -9 0 -9
5 0 15 -13 14 -36 -4z"/>
<path d="M1190 1290 c-8 -5 -15 -20 -16 -35 -1 -19 5 -27 24 -32 25 -6 42 8
42 37 0 21 -33 40 -50 30z m37 -26 c3 -8 1 -20 -5 -26 -15 -15 -43 8 -35 28 7
19 32 18 40 -2z"/>
<path d="M2405 1076 c-23 -25 -3 -76 30 -76 24 0 49 22 38 33 -3 4 -1 7 6 7 8
0 6 9 -6 25 -18 25 -43 33 -43 14 0 -5 4 -8 9 -5 17 11 33 -21 22 -43 -10 -17
-15 -19 -35 -9 -21 9 -23 14 -15 36 11 28 9 35 -6 18z"/>
<path d="M2427 1054 c-8 -8 1 -24 14 -24 5 0 9 7 9 15 0 15 -12 20 -23 9z"/>
<path d="M1327 967 c-22 -15 -17 -61 6 -65 10 -2 17 2 17 8 0 6 -5 8 -12 4 -7
-5 -9 -2 -5 8 3 9 0 21 -6 28 -9 9 -7 11 12 8 14 -1 26 -9 29 -17 3 -9 0 -11
-8 -6 -9 5 -11 4 -6 -3 10 -17 26 -15 26 4 0 14 -22 44 -32 44 -2 0 -12 -6
-21 -13z"/>
<path d="M1520 790 c0 -5 -5 -9 -11 -7 -6 1 -13 -10 -16 -25 -3 -23 1 -29 22
-34 30 -7 57 20 46 46 -4 11 -7 9 -9 -8 -4 -27 -30 -41 -42 -21 -10 16 -3 32
11 23 5 -3 6 -10 3 -16 -5 -7 -2 -8 5 -3 9 5 9 11 3 17 -6 6 -8 17 -5 24 3 8
2 14 -1 14 -3 0 -6 -4 -6 -10z"/>
<path d="M1804 648 c-3 -5 2 -8 10 -8 10 0 13 -7 10 -25 -3 -20 0 -25 16 -25
11 0 20 5 20 11 0 6 -6 9 -14 6 -9 -4 -13 0 -12 11 2 9 8 18 14 20 7 2 12 8
12 13 0 11 -49 8 -56 -3z"/>
<path d="M1477 455 c-4 -9 1 -11 14 -8 26 7 32 19 9 20 -10 1 -21 -4 -23 -12z"/>
<path d="M1490 431 c0 -6 -8 -7 -17 -4 -16 6 -16 5 -4 -10 8 -10 17 -14 20
-10 3 4 10 11 15 14 4 4 3 10 -3 13 -6 4 -11 3 -11 -3z"/>
<path d="M2431 383 c-1 -6 3 -14 8 -18 6 -3 9 -14 8 -24 -1 -13 -8 -17 -27
-16 -38 3 -39 3 -33 25 3 12 0 20 -6 20 -7 0 -10 -4 -7 -9 4 -5 2 -11 -3 -13
-5 -1 -1 -14 10 -27 14 -18 25 -22 44 -17 26 7 51 48 34 54 -5 2 -6 9 -3 14 4
6 2 8 -4 4 -5 -3 -13 0 -15 6 -4 9 -6 10 -6 1z"/>
<path d="M2405 351 c-6 -11 9 -23 19 -14 9 9 7 23 -3 23 -6 0 -12 -4 -16 -9z"/>
<path d="M1113 288 c5 -27 47 -50 47 -26 0 4 -7 8 -15 8 -8 0 -15 7 -15 15 0
8 -4 15 -10 15 -5 0 -9 -5 -7 -12z"/>
<path d="M1820 191 c0 -5 12 -11 28 -13 28 -3 29 -7 17 -47 -6 -21 -5 -22 7
-10 27 25 8 79 -28 79 -13 0 -24 -4 -24 -9z"/>
<path d="M1804 150 c0 -16 3 -27 8 -24 4 3 8 0 8 -7 0 -7 3 -9 6 -6 4 4 1 13
-5 21 -7 8 -10 20 -7 25 4 5 3 12 -2 15 -5 3 -8 -8 -8 -24z"/>
<path d="M260 1925 c33 -19 91 -19 116 0 17 13 11 14 -61 14 -74 0 -78 -1 -55
-14z"/>
<path d="M832 1888 c-4 -72 27 -107 118 -133 23 -7 24 -6 7 7 -13 9 -18 24
-15 43 2 24 8 31 31 33 32 4 46 -20 26 -44 -12 -14 -14 -14 -25 1 -7 9 -15 12
-18 6 -11 -16 24 -41 58 -41 19 0 40 8 49 18 21 23 21 78 2 112 -16 28 -20 54
-5 30 8 -13 10 -12 10 3 0 9 -3 17 -6 17 -10 0 -50 -45 -57 -63 -10 -27 -104
-12 -94 16 5 17 -31 47 -55 45 -20 -2 -24 -8 -26 -50z m68 -54 c0 -19 -16 -18
-24 2 -11 27 -7 37 9 24 8 -7 15 -19 15 -26z"/>
<path d="M945 1923 c-16 -13 -17 -15 -2 -10 12 5 17 1 18 -11 0 -14 2 -14 6
-2 3 8 12 21 21 28 14 11 14 12 -4 12 -10 0 -28 -8 -39 -17z"/>
<path d="M1090 1940 c-6 -12 -5 -58 2 -54 4 2 12 -5 18 -17 14 -26 5 -73 -13
-63 -9 5 -9 4 1 -7 10 -11 18 -7 50 23 49 48 110 88 133 88 12 0 16 5 13 15
-9 22 -51 18 -82 -6 l-27 -21 -3 21 c-4 28 -42 29 -42 1 0 -29 -37 -27 -43 3
-2 12 -5 20 -7 17z"/>
<path d="M1353 1928 c2 -7 10 -13 17 -13 7 0 15 6 18 13 2 7 -5 12 -18 12 -13
0 -20 -5 -17 -12z"/>
<path d="M1411 1905 c-7 -19 -16 -33 -21 -30 -5 3 -5 -7 -1 -22 4 -15 13 -29
20 -31 10 -3 12 2 7 22 -8 33 16 46 43 22 16 -15 19 -15 31 -1 13 15 71 21 84
8 4 -5 11 -8 14 -8 4 0 22 -6 40 -14 42 -18 74 -4 102 41 26 43 25 48 -5 48
-14 0 -25 -4 -25 -10 0 -5 -7 -10 -15 -10 -8 0 -12 -6 -9 -13 7 -20 -22 -41
-43 -32 -10 5 -26 7 -36 6 -22 -3 -49 18 -41 31 4 6 0 14 -7 19 -19 12 -52 11
-44 -1 11 -18 -27 -24 -40 -7 -19 27 -40 20 -54 -18z"/>
<path d="M2125 1886 c2 -73 31 -106 115 -131 24 -7 24 -7 8 12 -31 35 -16 73
28 73 27 0 35 -18 21 -44 -9 -19 -10 -19 -23 -1 -17 23 -33 11 -18 -13 17 -26
78 -28 103 -3 27 27 26 65 -4 121 -19 35 -24 40 -25 23 0 -25 -19 -30 -38 -11
-7 7 -12 8 -12 4 0 -5 7 -14 17 -21 9 -7 13 -17 9 -23 -10 -16 -46 -15 -46 1
0 8 -3 8 -9 -2 -12 -19 -41 -6 -41 19 0 11 -4 20 -10 20 -5 0 -10 7 -10 15 0
17 -35 20 -46 4 -5 -8 -9 -8 -14 1 -4 6 -6 -13 -5 -44z m64 -35 c6 -10 7 -21
4 -25 -9 -8 -33 14 -33 30 0 20 18 17 29 -5z"/>
<path d="M2378 1917 c-3 -14 -1 -24 3 -21 14 8 31 -37 27 -72 -4 -38 -6 -38
75 33 26 23 61 44 77 48 20 4 27 11 23 21 -7 20 -43 17 -73 -6 -32 -25 -43
-25 -35 0 5 15 2 20 -13 20 -11 0 -22 -9 -25 -20 -7 -27 -36 -25 -46 2 -8 21
-8 21 -13 -5z"/>
<path d="M1512 1854 c-27 -19 -28 -34 -3 -34 34 0 51 -12 51 -34 0 -26 -18
-46 -41 -46 -23 0 -61 50 -56 72 4 14 2 15 -13 5 -15 -9 -16 -15 -8 -31 21
-42 51 -66 82 -66 37 0 49 7 65 37 17 34 13 62 -14 88 -28 29 -33 30 -63 9z"/>
<path d="M792 1814 c-12 -8 -20 -20 -16 -25 4 -6 10 -6 19 1 7 6 20 8 29 4 19
-7 21 9 3 24 -10 9 -19 7 -35 -4z"/>
<path d="M414 1793 c-11 -26 -13 -53 -2 -47 5 3 7 12 4 19 -2 7 1 18 7 24 6 6
8 13 5 16 -3 3 -9 -2 -14 -12z"/>
<path d="M2570 1795 c-9 -11 -10 -29 -5 -63 11 -64 12 -132 1 -161 -7 -21 -6
-22 6 -10 11 10 15 43 17 131 1 65 0 118 -2 118 -3 0 -10 -7 -17 -15z"/>
<path d="M470 1774 c9 -22 7 -25 -20 -31 -41 -8 -48 -23 -12 -23 19 0 33 7 38
18 13 28 12 51 -2 56 -10 4 -11 -1 -4 -20z"/>
<path d="M2189 1741 c30 -25 37 -27 64 -17 l29 11 -34 6 c-18 3 -43 11 -55 17
-37 21 -39 13 -4 -17z"/>
<path d="M800 1752 c0 -6 4 -13 9 -17 14 -8 9 -45 -6 -45 -7 0 -13 -5 -13 -10
0 -15 36 5 43 24 3 8 -3 24 -14 37 -10 12 -19 17 -19 11z"/>
<path d="M744 1731 c4 -5 0 -12 -6 -15 -7 -4 -3 -4 9 -2 13 2 26 0 29 -5 3 -5
11 -9 17 -9 8 0 7 3 -2 9 -7 5 -9 11 -5 13 5 3 4 3 -3 2 -7 -2 -15 1 -18 6 -4
6 -11 10 -16 10 -6 0 -8 -4 -5 -9z"/>
<path d="M1340 1725 c-8 -9 -10 -27 -6 -47 22 -109 20 -147 -14 -219 -36 -78
-33 -113 11 -138 29 -16 77 -8 86 15 7 20 -6 32 -16 15 -11 -18 -31 -5 -31 19
0 23 36 36 55 20 18 -15 19 -52 3 -68 -17 -17 3 -16 46 2 56 23 77 60 73 126
-6 76 -17 94 -82 120 -59 24 -76 51 -56 87 8 17 6 19 -12 19 -19 -1 -22 4 -19
32 2 35 -16 44 -38 17z m61 -187 c0 -10 2 -10 6 0 2 6 10 12 17 12 22 0 116
-50 116 -62 0 -7 -7 -5 -17 5 -41 36 -83 31 -90 -13 -1 -8 -7 -16 -12 -18 -6
-2 -11 -8 -11 -13 0 -6 6 -6 18 0 9 5 17 20 17 33 0 30 29 31 33 1 2 -13 -2
-23 -8 -23 -6 0 -9 -4 -5 -9 9 -15 -26 -44 -38 -32 -7 7 -15 7 -24 0 -9 -9
-17 -8 -28 1 -9 7 -13 15 -10 18 2 3 -3 11 -13 18 -14 11 -15 16 -4 33 6 12
12 27 12 35 0 22 39 35 41 14z m105 -143 c-7 -18 -26 -20 -26 -2 0 18 24 41
28 27 2 -6 1 -17 -2 -25z"/>
<path d="M1386 1504 c-17 -12 -18 -17 -6 -39 7 -14 15 -23 18 -20 3 2 -1 12
-9 21 -11 14 -11 18 6 30 10 8 17 16 14 18 -2 2 -13 -2 -23 -10z"/>
<path d="M2402 1685 c-7 -8 -9 -15 -5 -15 4 0 2 -4 -5 -8 -9 -7 -8 -14 8 -32
11 -13 20 -18 20 -12 0 6 -4 13 -9 16 -13 8 -1 46 14 46 33 0 44 -11 35 -35
-7 -18 -6 -23 3 -19 18 6 19 44 1 51 -7 3 -11 9 -8 14 9 15 -40 9 -54 -6z"/>
<path d="M1200 1624 c0 -8 6 -11 14 -8 18 7 29 -25 15 -42 -6 -8 -21 -14 -32
-14 -11 0 -17 3 -13 8 4 4 13 7 19 7 5 0 11 6 13 13 1 7 0 8 -2 3 -3 -5 -17
-7 -32 -5 -18 3 -22 1 -14 -4 8 -5 12 -13 10 -18 -1 -5 13 -10 32 -12 19 -2
32 0 28 3 -4 4 0 14 8 23 13 12 13 16 2 23 -7 5 -9 9 -5 9 13 0 -16 27 -30 27
-7 0 -13 -6 -13 -13z"/>
<path d="M2536 1506 c-9 -19 -16 -45 -16 -58 0 -32 27 -68 51 -68 25 0 25 31
-1 48 -11 7 -20 19 -20 28 0 9 9 18 20 21 23 6 26 28 6 49 -20 19 -22 19 -40
-20z"/>
<path d="M2505 1488 c-8 -27 -11 -77 -4 -73 4 3 9 23 11 45 4 40 1 51 -7 28z"/>
<path d="M561 1483 c-1 -6 3 -14 8 -18 6 -3 9 -14 8 -24 -1 -15 -4 -17 -19 -8
-13 8 -14 13 -5 19 9 6 9 8 0 8 -19 0 -26 -20 -9 -26 8 -3 12 -12 9 -21 -5
-13 -2 -13 14 -4 24 12 39 44 24 49 -6 2 -8 9 -5 14 4 6 2 8 -4 4 -5 -3 -13 0
-15 6 -4 9 -6 10 -6 1z"/>
<path d="M1815 1477 c-16 -21 -16 -37 0 -60 8 -12 15 -17 15 -11 0 5 -4 14 -9
20 -13 14 5 55 23 48 8 -3 17 -1 21 5 9 16 -38 13 -50 -2z"/>
<path d="M1857 1464 c-16 -8 -25 -20 -21 -26 5 -7 11 -6 19 5 7 10 15 17 19
17 10 0 3 -33 -9 -43 -6 -5 -4 -7 5 -4 9 2 15 17 16 35 1 18 1 32 0 32 -1 -1
-14 -8 -29 -16z"/>
<path d="M731 1361 c-17 -17 -19 -25 -11 -41 16 -29 23 -24 15 10 -6 26 -4 30
14 30 27 0 38 -20 18 -35 -24 -17 -21 -28 3 -13 25 16 25 30 1 52 -18 17 -20
17 -40 -3z"/>
<path d="M2017 1363 c-9 -19 11 -63 28 -63 7 0 19 8 26 18 13 15 12 16 -3 3
-23 -17 -48 1 -41 29 5 19 -2 28 -10 13z"/>
<path d="M2568 1175 c-8 -19 -8 -38 0 -77 7 -29 14 -69 15 -88 2 -19 5 16 5
78 1 61 0 112 -3 112 -3 0 -11 -11 -17 -25z"/>
<path d="M1120 1159 c-37 -15 -69 -49 -96 -101 -29 -58 -70 -91 -105 -86 -25
4 -26 2 -23 -36 l3 -41 -8 38 c-4 21 -14 43 -21 50 -10 10 -10 8 -1 -10 6 -12
11 -33 11 -47 0 -43 17 -39 85 19 49 41 73 55 96 55 l31 0 -22 18 c-14 11 -19
23 -14 35 8 22 36 18 40 -5 2 -20 34 -55 34 -39 0 5 -5 13 -11 16 -6 4 -8 13
-5 21 3 7 -4 18 -14 24 -30 16 -24 32 22 68 43 33 42 38 -2 21z"/>
<path d="M1160 1153 c-24 -9 -40 -25 -34 -34 3 -5 13 -3 24 3 14 9 22 9 35 -2
9 -7 14 -19 11 -26 -2 -6 4 -14 15 -17 23 -6 26 -45 4 -53 -8 -4 -12 -10 -9
-15 9 -16 -17 -40 -40 -37 -12 1 -26 -1 -33 -5 -13 -8 -43 1 -43 14 0 31 -74
-7 -158 -82 -26 -23 -69 -46 -107 -59 -35 -12 -69 -28 -76 -36 -9 -12 -15 -12
-27 -2 -13 11 -14 10 -10 -2 3 -11 20 -15 57 -15 55 0 81 -18 81 -56 0 -16 4
-16 50 4 51 21 68 43 50 61 -7 7 -15 3 -26 -12 -13 -18 -19 -21 -30 -11 -19
16 -18 33 5 53 23 21 56 14 72 -15 17 -34 0 -59 -56 -84 -49 -22 -85 -55 -85
-79 0 -5 10 0 23 12 13 12 32 22 43 22 14 0 11 -5 -12 -16 -34 -17 -54 -50
-54 -92 0 -48 38 -85 110 -107 22 -7 23 -6 12 8 -8 9 -12 28 -10 44 3 24 8 28
33 28 25 0 30 -4 30 -25 0 -16 -6 -26 -17 -28 -12 -2 -18 3 -18 14 0 14 -3 15
-12 6 -10 -9 -9 -15 2 -26 47 -44 120 -13 120 50 0 19 -11 56 -24 82 -35 71
-40 104 -21 167 17 59 14 85 -10 105 -21 18 -37 3 -24 -22 9 -16 7 -24 -6 -37
-15 -15 -18 -14 -41 12 -28 33 -20 60 22 79 35 16 78 -16 82 -61 3 -32 4 -32
23 -15 22 20 74 23 92 5 9 -9 4 -10 -21 -5 -86 17 -139 -86 -100 -196 11 -32
12 -32 19 -12 5 13 15 25 24 28 21 9 47 -15 43 -40 -4 -29 -31 -26 -38 4 -4
16 -9 20 -13 13 -4 -6 2 -30 14 -52 14 -28 19 -50 14 -68 -5 -21 -8 -24 -16
-12 -5 9 -9 9 -9 2 0 -27 20 -19 85 38 48 42 77 59 97 59 25 0 27 3 22 28 -4
19 0 33 14 45 28 25 54 12 50 -26 -3 -35 16 -47 31 -19 16 30 -9 64 -69 94
-67 33 -70 33 -63 7 4 -15 0 -22 -15 -26 -11 -3 -18 -11 -16 -17 3 -7 -2 -19
-11 -26 -13 -11 -21 -11 -35 -2 -12 7 -21 8 -25 2 -10 -16 -45 8 -45 29 0 11
-7 21 -15 25 -22 8 -18 33 8 51 12 8 21 18 20 20 -14 26 26 43 44 19 14 -19
14 -19 18 11 4 26 23 75 30 75 3 0 3 -12 0 -27 -3 -16 -2 -21 1 -13 4 8 11 23
16 34 7 13 7 16 -1 11 -8 -5 -10 1 -5 19 4 16 2 26 -5 26 -6 0 -11 -9 -11 -20
0 -23 -28 -27 -36 -5 -9 21 15 47 40 43 12 -2 23 -13 26 -28 6 -24 6 -24 18 9
7 19 12 58 12 87 0 45 -5 59 -27 83 -30 31 -58 43 -83 34z m-50 -228 c35 -18
39 -35 9 -35 -20 0 -48 25 -49 43 0 10 7 9 40 -8z m-95 -250 c0 -11 6 -24 13
-28 17 -11 15 -34 -3 -41 -8 -3 -15 -12 -15 -20 0 -12 -11 -15 -47 -13 -37 2
-48 6 -48 18 0 9 -6 23 -14 32 -14 18 -7 37 13 37 8 0 19 -7 26 -15 9 -10 9
-15 1 -15 -6 0 -11 -5 -11 -11 0 -6 5 -7 13 -2 18 11 37 12 37 2 0 -5 5 -9 11
-9 8 0 8 5 -1 15 -10 12 -10 15 0 15 10 0 10 3 -1 16 -8 9 -21 13 -35 10 -13
-4 -26 -2 -29 4 -12 19 6 30 48 27 35 -2 42 -6 42 -22z m-37 -26 c-2 -6 -8
-10 -13 -10 -5 0 -11 4 -13 10 -2 6 4 11 13 11 9 0 15 -5 13 -11z m-80 -103
c3 -12 -1 -17 -10 -14 -7 3 -15 13 -16 22 -3 12 1 17 10 14 7 -3 15 -13 16
-22z"/>
<path d="M1115 1079 c4 -6 13 -8 20 -5 13 5 35 -12 35 -27 0 -5 -8 -3 -17 4
-9 8 -14 9 -10 2 4 -6 1 -14 -5 -17 -7 -3 -4 -4 7 -3 15 1 19 -3 17 -17 -3
-15 -1 -16 11 -5 15 15 16 20 3 57 -5 16 -15 22 -37 22 -19 0 -28 -4 -24 -11z"/>
<path d="M721 1042 c-21 -40 32 -71 60 -34 11 14 11 15 -1 5 -8 -7 -23 -13
-33 -13 -16 0 -18 6 -15 30 5 34 3 37 -11 12z"/>
<path d="M750 1049 c0 -4 7 -10 16 -13 22 -8 24 -8 18 7 -5 14 -34 19 -34 6z"/>
<path d="M34 966 c-3 -9 -10 -14 -15 -11 -11 8 -2 -36 11 -49 8 -8 9 -3 4 18
-5 22 -4 27 6 21 8 -5 11 -4 6 3 -3 5 -1 12 6 14 9 3 9 6 0 12 -7 4 -15 1 -18
-8z"/>
<path d="M118 945 c2 -14 0 -25 -6 -25 -6 0 -12 -10 -14 -22 -2 -19 -10 -23
-43 -25 -22 -1 -43 3 -47 10 -4 7 -8 -16 -8 -50 0 -65 5 -72 44 -57 17 7 22
44 6 44 -5 0 -10 -7 -10 -16 0 -9 -6 -14 -12 -11 -7 2 -13 15 -13 28 0 18 6
25 24 27 40 6 56 -42 24 -74 -16 -16 -16 -16 7 -9 55 17 68 25 93 55 34 40 34
80 1 119 -32 38 -53 41 -46 6z m18 -103 c-14 -14 -16 -14 -16 -1 0 20 23 44
29 28 2 -6 -4 -18 -13 -27z"/>
<path d="M2560 940 c-7 -16 -15 -28 -19 -26 -3 2 -8 -8 -10 -22 -11 -83 2
-122 40 -122 23 0 26 35 4 44 -8 3 -15 17 -15 31 0 16 6 25 15 25 8 0 15 9 15
20 0 11 -4 20 -10 20 -14 0 -13 33 2 48 8 8 8 12 1 12 -6 0 -16 -13 -23 -30z"/>
<path d="M75 952 c4 -8 -1 -23 -11 -35 -18 -22 -18 -22 6 0 20 19 22 25 11 35
-11 11 -13 10 -6 0z"/>
<path d="M2510 881 c-5 -11 -10 -30 -9 -43 1 -18 3 -17 8 8 4 17 11 36 15 42
4 7 5 12 2 12 -3 0 -10 -9 -16 -19z"/>
<path d="M1935 870 c-4 -6 -11 -7 -17 -4 -7 4 -8 2 -4 -4 4 -7 2 -12 -5 -12
-7 0 -9 -3 -6 -6 4 -4 13 -1 22 6 13 10 19 10 33 -4 22 -19 29 -20 29 -3 0 25
-41 46 -52 27z"/>
<path d="M2370 822 c-34 -34 -46 -94 -30 -153 l12 -43 18 24 c16 21 21 23 44
12 29 -13 33 -33 11 -52 -17 -14 -39 -4 -31 16 3 7 0 16 -6 20 -8 5 -9 -3 -5
-25 5 -23 3 -30 -5 -25 -7 5 -8 3 -3 -6 5 -7 12 -27 16 -44 8 -29 8 -28 4 7
-2 24 0 35 7 31 5 -3 8 -24 6 -45 -2 -22 -2 -39 0 -39 2 0 28 22 58 49 30 27
69 54 86 60 27 9 33 16 33 38 1 16 -4 32 -10 36 -7 6 -6 10 3 14 20 8 14 50
-8 56 -15 4 -20 0 -20 -14 0 -11 -7 -22 -15 -25 -8 -4 -15 -15 -15 -25 0 -25
-27 -36 -51 -21 -11 7 -20 8 -24 2 -11 -17 -47 9 -42 30 3 11 -1 21 -9 24 -19
7 -18 45 1 52 8 4 15 12 15 20 0 19 34 36 48 22 5 -5 15 -7 22 -3 17 10 -19
34 -53 35 -18 0 -39 -10 -57 -28z"/>
<path d="M1933 825 c1 -15 -3 -19 -17 -17 -15 3 -16 1 -5 -11 8 -9 16 -11 18
-5 2 6 7 5 11 -3 7 -10 11 -10 24 0 9 8 16 19 16 25 0 6 -7 3 -14 -6 -7 -10
-16 -15 -19 -11 -4 3 -1 13 6 21 8 11 8 14 0 9 -6 -4 -14 -1 -17 5 -3 7 -4 4
-3 -7z"/>
<path d="M2139 809 c-8 -16 -8 -24 1 -33 9 -8 11 -7 8 4 -2 9 3 14 11 12 11
-2 12 0 3 10 -8 11 -7 14 8 15 11 1 22 -2 25 -8 4 -5 11 -9 16 -9 6 0 4 7 -5
15 -21 21 -53 19 -67 -6z"/>
<path d="M1140 775 c-7 -8 -9 -15 -4 -15 5 0 2 -5 -6 -10 -9 -6 -10 -10 -3
-10 13 0 38 38 30 46 -2 3 -10 -2 -17 -11z"/>
<path d="M1174 774 c3 -7 0 -15 -7 -18 -7 -3 -3 -4 8 -3 14 1 20 -4 21 -20 1
-22 -9 -23 -49 -8 -13 6 -16 3 -11 -9 3 -9 10 -13 15 -10 5 3 9 1 9 -4 0 -12
38 -3 47 11 3 5 7 20 9 33 1 16 -2 21 -12 17 -9 -3 -12 0 -9 9 4 9 0 15 -10
15 -9 0 -14 -6 -11 -13z"/>
<path d="M2200 781 c0 -5 -3 -17 -7 -27 -6 -16 -5 -17 9 -4 9 8 14 18 12 22
-2 3 2 9 8 11 8 3 6 6 -4 6 -10 1 -18 -3 -18 -8z"/>
<path d="M2431 768 c-14 -22 -14 -28 -1 -28 6 0 9 5 8 12 -4 17 30 22 48 7 8
-7 13 -18 10 -25 -3 -7 0 -16 6 -20 7 -4 8 -3 4 4 -4 7 -2 12 5 12 8 0 9 3 0
13 -6 8 -7 18 -3 22 4 5 1 5 -5 1 -8 -4 -13 -2 -13 6 0 20 -46 17 -59 -4z"/>
<path d="M0 705 c0 -33 2 -35 15 -21 24 23 45 9 45 -30 0 -38 24 -48 35 -14
13 40 -15 76 -72 94 -21 7 -23 4 -23 -29z"/>
<path d="M2252 667 c22 -17 11 -31 -11 -15 -10 8 -9 4 3 -10 22 -25 27 -27 24
-9 -2 7 5 11 17 10 11 -1 14 0 7 3 -6 3 -9 11 -5 17 3 7 3 9 -2 5 -4 -4 -17
-3 -29 3 -19 9 -19 9 -4 -4z"/>
<path d="M213 563 c-7 -2 -13 -14 -13 -25 0 -14 5 -18 16 -14 38 14 71 -33 42
-62 -31 -31 -88 1 -88 48 0 23 -1 23 -17 8 -15 -16 -14 -19 10 -51 52 -69 129
-51 135 30 4 59 -33 88 -85 66z"/>
<path d="M2548 475 c-8 -19 -7 -37 5 -82 11 -40 14 -69 8 -93 -11 -45 -32 -90
-40 -85 -7 4 -9 -10 -13 -70 -2 -40 26 -77 56 -73 18 3 21 10 20 53 -2 63 -5
77 -24 91 -12 10 -11 18 8 55 19 38 22 57 20 137 -2 66 -7 92 -16 92 -7 0 -17
-11 -24 -25z"/>
<path d="M2147 418 c6 -41 11 -46 20 -23 4 11 2 20 -5 23 -7 2 -10 8 -7 12 3
5 1 11 -4 14 -5 4 -7 -8 -4 -26z"/>
<path d="M2111 423 c7 -10 14 -20 16 -22 1 -2 1 6 0 18 -1 11 -8 21 -15 21
-12 0 -12 -3 -1 -17z"/>
<path d="M2090 405 c0 -8 9 -19 19 -25 25 -13 31 -13 31 0 0 6 -3 9 -7 9 -23
-4 -35 3 -29 16 3 8 1 15 -4 15 -6 0 -10 -7 -10 -15z"/>
<path d="M1 275 c1 -93 2 -98 14 -70 18 39 18 113 0 145 -13 23 -14 17 -14
-75z"/>
<path d="M87 219 c-18 -11 -24 -59 -7 -59 6 0 8 11 4 26 -6 23 -4 25 17 22 18
-2 23 -9 22 -26 -2 -13 1 -21 7 -17 29 18 -13 71 -43 54z"/>
<path d="M1337 216 c-22 -17 -22 -30 1 -47 16 -13 16 -12 2 5 -13 16 -12 20 5
32 10 8 17 16 14 18 -2 2 -12 -1 -22 -8z"/>
<path d="M1414 218 c19 -15 19 -17 2 -52 -11 -24 -23 -36 -34 -34 -9 1 -22 -1
-29 -5 -19 -12 -39 2 -53 39 -11 27 -16 31 -23 19 -4 -8 -11 -13 -15 -11 -4 3
-8 -3 -9 -12 -1 -9 -4 -33 -8 -52 -13 -65 48 -111 106 -80 20 11 27 40 9 40
-5 0 -10 -4 -10 -10 0 -17 -27 -11 -34 7 -9 23 17 47 43 38 26 -8 38 -50 20
-72 -13 -15 -11 -16 15 -9 67 17 115 78 102 130 -9 35 -37 64 -71 72 -28 6
-29 5 -11 -8z m46 -98 c0 -20 -25 -38 -37 -26 -5 5 24 46 34 46 1 0 3 -9 3
-20z"/>
<path d="M1360 195 c-8 -9 -8 -15 -2 -15 6 0 13 6 15 13 3 7 6 5 6 -5 1 -10
-3 -18 -9 -18 -5 0 -10 -6 -10 -12 1 -7 9 -2 20 11 19 22 19 41 1 41 -5 0 -14
-7 -21 -15z"/>
<path d="M2305 190 c-3 -5 -14 -10 -24 -10 -14 0 -17 -6 -13 -28 4 -32 -19
-58 -44 -48 -11 4 -14 13 -10 31 5 18 2 25 -8 25 -24 0 -28 -17 -16 -74 l11
-54 24 24 c15 15 36 24 54 24 43 0 81 17 81 37 0 16 -1 16 -13 -1 -25 -34 -67
6 -47 45 12 21 50 25 68 7 32 -32 -2 -98 -50 -98 -17 0 -16 -2 2 -20 11 -11
20 -28 20 -37 1 -11 6 -5 15 14 14 33 41 53 73 53 27 0 72 -38 72 -61 0 -25
26 -25 40 0 16 30 13 35 -33 53 -23 10 -70 43 -105 73 -62 54 -85 65 -97 45z"/>
<path d="M505 163 c2 -10 4 -24 4 -32 1 -8 4 -12 7 -8 4 3 14 -1 22 -10 11
-10 17 -12 20 -4 2 6 8 9 13 5 8 -5 11 3 8 22 0 4 5 11 13 16 10 8 10 9 -2 5
-8 -2 -14 -9 -13 -15 1 -5 -6 -12 -17 -15 -21 -5 -42 13 -38 33 2 7 -2 14 -9
17 -7 2 -10 -3 -8 -14z"/>
<path d="M1086 117 c-6 -24 -42 -47 -74 -47 -15 -1 -15 -2 1 -11 10 -6 22 -22
27 -35 12 -31 38 -31 50 1 8 20 16 25 45 25 19 0 35 -5 35 -11 0 -24 30 -39
77 -39 l48 0 -50 24 c-27 12 -73 44 -101 69 -50 45 -52 46 -58 24z"/>
<path d="M820 65 c10 -13 10 -19 -4 -33 -9 -10 -13 -22 -9 -25 8 -8 83 -9 83
-2 0 16 -31 63 -45 69 -28 11 -38 7 -25 -9z"/>
<path d="M2033 62 c10 -10 14 -22 10 -27 -5 -4 -2 -5 5 -1 10 6 10 11 2 21 -8
10 -7 14 2 18 7 3 2 6 -11 6 -23 1 -23 0 -8 -17z"/>
<path d="M2103 73 c18 -5 23 -38 7 -48 -23 -14 -7 -25 35 -25 l46 0 -16 30
c-17 32 -44 51 -72 49 -17 -1 -17 -2 0 -6z"/>
<path d="M942 44 c-12 -8 -22 -22 -22 -30 0 -19 16 -18 24 1 7 20 46 20 46 0
0 -8 5 -15 10 -15 14 0 13 33 -2 48 -16 16 -29 15 -56 -4z"/>
<path d="M2230 40 c-21 -21 -26 -40 -11 -40 5 0 14 7 21 15 7 8 19 15 26 15 8
0 14 -7 14 -15 0 -20 19 -19 27 1 4 11 -1 22 -12 30 -26 19 -42 17 -65 -6z"/>
<path d="M2383 48 c-6 -7 -13 -21 -16 -30 -5 -14 -1 -18 18 -18 13 0 27 4 30
10 3 5 17 10 31 10 26 0 31 9 12 28 -16 16 -63 15 -75 0z"/>
<path d="M661 24 c-10 -22 -9 -24 19 -24 35 0 36 4 11 29 -18 18 -19 18 -30
-5z"/>
<path d="M2561 31 c-15 -27 -14 -31 9 -31 13 0 20 7 20 19 0 28 -17 35 -29 12z"/>
<path d="M408 3 c12 -2 30 -2 40 0 9 3 -1 5 -23 4 -22 0 -30 -2 -17 -4z"/>
<path d="M1698 3 c12 -2 32 -2 45 0 12 2 2 4 -23 4 -25 0 -35 -2 -22 -4z"/>
</g>
</svg>
