<?xml version="1.0" standalone="no"?>
<!DOCTYPE svg PUBLIC "-//W3C//DTD SVG 20010904//EN"
 "http://www.w3.org/TR/2001/REC-SVG-20010904/DTD/svg10.dtd">
<svg version="1.0" xmlns="http://www.w3.org/2000/svg"
 width="351.000000pt" height="336.000000pt" viewBox="0 0 351.000000 336.000000"
 preserveAspectRatio="xMidYMid meet">

<g transform="translate(0.000000,336.000000) scale(0.100000,-0.100000)"
fill="#000000" stroke="none">
<path d="M1506 3140 c-342 -39 -598 -147 -705 -296 -69 -97 -73 -116 -69 -426
l3 -273 28 -53 c87 -166 289 -276 620 -339 131 -25 533 -25 664 0 196 37 345
91 454 163 79 52 128 104 166 176 l28 53 3 260 c4 299 -1 338 -59 424 -93 139
-300 242 -589 292 -132 23 -419 33 -544 19z m449 -211 c203 -25 400 -97 483
-178 217 -211 -223 -442 -798 -418 -219 9 -372 41 -515 107 -249 114 -253 272
-11 390 86 42 236 84 351 99 102 13 386 13 490 0z"/>
<path d="M735 1928 c-3 -8 -5 -134 -3 -279 3 -264 3 -264 30 -322 75 -160 293
-281 608 -339 96 -18 154 -21 345 -21 191 0 249 3 345 21 314 58 533 180 608
338 l27 59 3 264 c2 145 0 271 -3 279 -4 10 -22 -1 -66 -42 -110 -102 -327
-192 -559 -232 -197 -34 -520 -33 -715 1 -229 40 -445 130 -554 231 -44 41
-62 52 -66 42z"/>
<path d="M736 1163 c-3 -3 -6 -124 -6 -267 0 -249 2 -264 23 -317 73 -177 284
-299 627 -361 166 -30 504 -30 670 0 284 52 487 149 580 279 65 91 70 122 70
408 0 138 -3 255 -6 258 -4 4 -31 -16 -61 -43 -131 -120 -364 -209 -640 -245
-131 -17 -400 -20 -523 -5 -291 35 -535 125 -669 247 -32 29 -61 49 -65 46z"/>
</g>
</svg>
